Fira Sans-SemiLight Italic.ufo
<glyph name="exclam" format="1">
  <advance width="240"/>
  <unicode hex="0021"/>
  <outline>
    <contour>
      <point x="164" y="682" type="line"/>
      <point x="98" y="208" type="line"/>
      <point x="127" y="208" type="line"/>
      <point x="193" y="682" type="line"/>
    </contour>
    <component base="period" xOffset="34"/>
  </outline>
</glyph>
<glyph name="numbersign" format="1">
  <advance width="491"/>
  <unicode hex="0023"/>
  <outline>
    <contour>
      <point x="445" y="662" type="line"/>
      <point x="264" y="0" type="line"/>
      <point x="298" y="0" type="line"/>
      <point x="479" y="662" type="line"/>
    </contour>
    <contour>
      <point x="10" y="222" type="line"/>
      <point x="6" y="194" type="line"/>
      <point x="430" y="194" type="line"/>
      <point x="434" y="222" type="line"/>
    </contour>
    <contour>
      <point x="212" y="662" type="line"/>
      <point x="31" y="0" type="line"/>
      <point x="64" y="0" type="line"/>
      <point x="245" y="662" type="line"/>
    </contour>
    <contour>
      <point x="83" y="484" type="line"/>
      <point x="80" y="456" type="line"/>
      <point x="504" y="456" type="line"/>
      <point x="507" y="484" type="line"/>
    </contour>
  </outline>
</glyph>
<glyph name="dollar" format="1">
  <advance width="518"/>
  <unicode hex="0024"/>
  <outline>
    <contour>
      <point x="208" y="0" type="line"/>
      <point x="188" y="-147" type="line"/>
      <point x="215" y="-147" type="line"/>
      <point x="236" y="1" type="line"/>
    </contour>
    <contour>
      <point x="323" y="814" type="line"/>
      <point x="302" y="664" type="line"/>
      <point x="329" y="664" type="line"/>
      <point x="350" y="814" type="line"/>
    </contour>
    <contour>
      <point x="165" y="671"/>
      <point x="110" y="582"/>
      <point x="110" y="504" type="curve" smooth="yes"/>
      <point x="110" y="425"/>
      <point x="156" y="381"/>
      <point x="272" y="343" type="curve" smooth="yes"/>
      <point x="373" y="309"/>
      <point x="417" y="271"/>
      <point x="417" y="200" type="curve" smooth="yes"/>
      <point x="417" y="119"/>
      <point x="370" y="18"/>
      <point x="213" y="18" type="curve" smooth="yes"/>
      <point x="141" y="18"/>
      <point x="84" y="47"/>
      <point x="44" y="88" type="curve"/>
      <point x="23" y="70" type="line"/>
      <point x="70" y="23"/>
      <point x="135" y="-10"/>
      <point x="214" y="-10" type="curve" smooth="yes"/>
      <point x="385" y="-10"/>
      <point x="447" y="103"/>
      <point x="447" y="202" type="curve" smooth="yes"/>
      <point x="447" y="287"/>
      <point x="393" y="334"/>
      <point x="281" y="370" type="curve" smooth="yes"/>
      <point x="182" y="402"/>
      <point x="140" y="436"/>
      <point x="140" y="504" type="curve" smooth="yes"/>
      <point x="140" y="592"/>
      <point x="211" y="644"/>
      <point x="312" y="644" type="curve" smooth="yes"/>
      <point x="370" y="644"/>
      <point x="418" y="626"/>
      <point x="462" y="581" type="curve"/>
      <point x="484" y="600" type="line"/>
      <point x="438" y="643"/>
      <point x="388" y="671"/>
      <point x="312" y="671" type="curve" smooth="yes"/>
    </contour>
    <contour>
      <point x="317" y="662" type="move" name="top"/>
    </contour>
    <contour>
      <point x="219" y="0" type="move" name="bottom"/>
    </contour>
  </outline>
</glyph>
<glyph name="ampersand" format="1">
  <advance width="727"/>
  <unicode hex="0026"/>
  <outline>
    <contour>
      <point x="254" y="692"/>
      <point x="181" y="629"/>
      <point x="181" y="528" type="curve" smooth="yes"/>
      <point x="181" y="475"/>
      <point x="209" y="426"/>
      <point x="260" y="368" type="curve"/>
      <point x="126" y="302"/>
      <point x="87" y="235"/>
      <point x="87" y="151" type="curve" smooth="yes"/>
      <point x="87" y="59"/>
      <point x="160" y="-10"/>
      <point x="260" y="-10" type="curve" smooth="yes"/>
      <point x="372" y="-10"/>
      <point x="442" y="40"/>
      <point x="501" y="106" type="curve"/>
      <point x="605" y="-9" type="line"/>
      <point x="632" y="8" type="line"/>
      <point x="520" y="129" type="line"/>
      <point x="564" y="193"/>
      <point x="596" y="258"/>
      <point x="626" y="326" type="curve"/>
      <point x="599" y="337" type="line"/>
      <point x="571" y="273"/>
      <point x="543" y="215"/>
      <point x="502" y="149" type="curve"/>
      <point x="304" y="361" type="line"/>
      <point x="459" y="440"/>
      <point x="498" y="489"/>
      <point x="498" y="566" type="curve" smooth="yes"/>
      <point x="498" y="638"/>
      <point x="438" y="692"/>
      <point x="351" y="692" type="curve" smooth="yes"/>
    </contour>
    <contour>
      <point x="482" y="126" type="line"/>
      <point x="425" y="61"/>
      <point x="360" y="18"/>
      <point x="260" y="18" type="curve" smooth="yes"/>
      <point x="174" y="18"/>
      <point x="118" y="78"/>
      <point x="118" y="150" type="curve" smooth="yes"/>
      <point x="118" y="219"/>
      <point x="153" y="288"/>
      <point x="278" y="349" type="curve"/>
    </contour>
    <contour>
      <point x="415" y="665"/>
      <point x="467" y="628"/>
      <point x="467" y="566" type="curve" smooth="yes"/>
      <point x="467" y="499"/>
      <point x="435" y="454"/>
      <point x="286" y="380" type="curve"/>
      <point x="225" y="448"/>
      <point x="211" y="490"/>
      <point x="211" y="528" type="curve" smooth="yes"/>
      <point x="211" y="589"/>
      <point x="246" y="665"/>
      <point x="351" y="665" type="curve" smooth="yes"/>
    </contour>
  </outline>
</glyph>
<glyph name="parenleft" format="1">
  <advance width="324"/>
  <unicode hex="0028"/>
  <outline>
    <contour>
      <point x="204" y="697"/>
      <point x="110" y="580"/>
      <point x="78" y="352" type="curve"/>
      <point x="46" y="122"/>
      <point x="107" y="5"/>
      <point x="184" y="-130" type="curve"/>
      <point x="206" y="-120" type="line"/>
      <point x="135" y="11"/>
      <point x="77" y="129"/>
      <point x="107" y="348" type="curve"/>
      <point x="138" y="569"/>
      <point x="230" y="687"/>
      <point x="337" y="818" type="curve"/>
      <point x="318" y="832" type="line"/>
    </contour>
  </outline>
</glyph>
<glyph name="parenright" format="1">
  <advance width="323"/>
  <unicode hex="0029"/>
  <outline>
    <contour>
      <point x="143" y="820" type="line"/>
      <point x="213" y="689"/>
      <point x="272" y="571"/>
      <point x="241" y="352" type="curve"/>
      <point x="210" y="131"/>
      <point x="118" y="13"/>
      <point x="11" y="-118" type="curve"/>
      <point x="30" y="-132" type="line"/>
      <point x="144" y="3"/>
      <point x="238" y="120"/>
      <point x="270" y="348" type="curve"/>
      <point x="303" y="578"/>
      <point x="241" y="695"/>
      <point x="164" y="830" type="curve"/>
    </contour>
  </outline>
</glyph>
<glyph name="plus" format="1">
  <advance width="488"/>
  <unicode hex="002B"/>
  <outline>
    <contour>
      <point x="263" y="499" type="line"/>
      <point x="241" y="345" type="line"/>
      <point x="87" y="345" type="line"/>
      <point x="83" y="316" type="line"/>
      <point x="237" y="316" type="line"/>
      <point x="215" y="162" type="line"/>
      <point x="246" y="162" type="line"/>
      <point x="268" y="316" type="line"/>
      <point x="421" y="316" type="line"/>
      <point x="425" y="345" type="line"/>
      <point x="272" y="345" type="line"/>
      <point x="294" y="499" type="line"/>
    </contour>
  </outline>
</glyph>
<glyph name="comma" format="1">
  <advance width="180"/>
  <unicode hex="002C"/>
  <outline>
    <contour>
      <point x="38" y="49"/>
      <point x="24" y="35"/>
      <point x="24" y="18" type="curve" smooth="yes"/>
      <point x="24" y="6"/>
      <point x="29" y="-3"/>
      <point x="39" y="-7" type="curve"/>
      <point x="-20" y="-139" type="line"/>
      <point x="3" y="-139" type="line"/>
      <point x="67" y="-23" type="line" smooth="yes"/>
      <point x="78" y="-3"/>
      <point x="84" y="9"/>
      <point x="84" y="21" type="curve" smooth="yes"/>
      <point x="84" y="37"/>
      <point x="74" y="49"/>
      <point x="56" y="49" type="curve" smooth="yes"/>
    </contour>
  </outline>
</glyph>
<glyph name="hyphen" format="1">
  <advance width="399"/>
  <unicode hex="002D"/>
  <outline>
    <contour>
      <point x="329" y="299" type="line"/>
      <point x="333" y="327" type="line"/>
      <point x="84" y="327" type="line"/>
      <point x="80" y="299" type="line"/>
    </contour>
  </outline>
</glyph>
<glyph name="slash" format="1">
  <advance width="520"/>
  <unicode hex="002F"/>
  <outline>
    <contour>
      <point x="81" y="-89" type="line"/>
      <point x="107" y="-96" type="line"/>
      <point x="464" y="792" type="line"/>
      <point x="438" y="799" type="line"/>
    </contour>
  </outline>
</glyph>
<glyph name="zero" format="1">
  <advance width="543"/>
  <unicode hex="0030"/>
  <outline>
    <contour>
      <point x="133" y="674"/>
      <point x="76" y="387"/>
      <point x="76" y="219" type="curve" smooth="yes"/>
      <point x="76" y="67"/>
      <point x="133" y="-10"/>
      <point x="236" y="-10" type="curve" smooth="yes"/>
      <point x="430" y="-10"/>
      <point x="487" y="273"/>
      <point x="487" y="445" type="curve" smooth="yes"/>
      <point x="487" y="598"/>
      <point x="431" y="674"/>
      <point x="328" y="674" type="curve" smooth="yes"/>
    </contour>
    <contour>
      <point x="412" y="646"/>
      <point x="456" y="581"/>
      <point x="456" y="450" type="curve" smooth="yes"/>
      <point x="456" y="415"/>
      <point x="453" y="376"/>
      <point x="447" y="332" type="curve" smooth="yes"/>
      <point x="417" y="120"/>
      <point x="343" y="18"/>
      <point x="236" y="18" type="curve" smooth="yes"/>
      <point x="152" y="18"/>
      <point x="107" y="83"/>
      <point x="107" y="215" type="curve" smooth="yes"/>
      <point x="107" y="249"/>
      <point x="110" y="287"/>
      <point x="116" y="330" type="curve" smooth="yes"/>
      <point x="146" y="543"/>
      <point x="222" y="646"/>
      <point x="328" y="646" type="curve" smooth="yes"/>
    </contour>
  </outline>
</glyph>
<glyph name="one" format="1">
  <advance width="396"/>
  <unicode hex="0031"/>
  <outline>
    <contour>
      <point x="298" y="662" type="line"/>
      <point x="89" y="542" type="line"/>
      <point x="102" y="517" type="line"/>
      <point x="287" y="625" type="line"/>
      <point x="199" y="0" type="line"/>
      <point x="229" y="0" type="line"/>
      <point x="322" y="662" type="line"/>
    </contour>
  </outline>
</glyph>
<glyph name="two" format="1">
  <advance width="465"/>
  <unicode hex="0032"/>
  <outline>
    <contour>
      <point x="201" y="674"/>
      <point x="144" y="648"/>
      <point x="85" y="586" type="curve"/>
      <point x="107" y="567" type="line"/>
      <point x="152" y="614"/>
      <point x="202" y="646"/>
      <point x="272" y="646" type="curve" smooth="yes"/>
      <point x="350" y="646"/>
      <point x="398" y="602"/>
      <point x="398" y="525" type="curve" smooth="yes"/>
      <point x="398" y="425"/>
      <point x="355" y="352"/>
      <point x="13" y="30" type="curve"/>
      <point x="9" y="0" type="line"/>
      <point x="367" y="0" type="line"/>
      <point x="378" y="30" type="line"/>
      <point x="53" y="29" type="line"/>
      <point x="373" y="333"/>
      <point x="429" y="413"/>
      <point x="429" y="526" type="curve" smooth="yes"/>
      <point x="429" y="615"/>
      <point x="373" y="674"/>
      <point x="273" y="674" type="curve" smooth="yes"/>
    </contour>
  </outline>
</glyph>
<glyph name="six" format="1">
  <advance width="515"/>
  <unicode hex="0036"/>
  <outline>
    <contour>
      <point x="219" y="674"/>
      <point x="112" y="532"/>
      <point x="78" y="291" type="curve" smooth="yes"/>
      <point x="74" y="261"/>
      <point x="71" y="232"/>
      <point x="71" y="204" type="curve" smooth="yes"/>
      <point x="71" y="82"/>
      <point x="116" y="-10"/>
      <point x="238" y="-10" type="curve" smooth="yes"/>
      <point x="394" y="-10"/>
      <point x="455" y="157"/>
      <point x="455" y="266" type="curve" smooth="yes"/>
      <point x="455" y="375"/>
      <point x="389" y="428"/>
      <point x="305" y="428" type="curve" smooth="yes"/>
      <point x="221" y="428"/>
      <point x="153" y="382"/>
      <point x="106" y="312" type="curve"/>
      <point x="100" y="264" type="line"/>
      <point x="156" y="347"/>
      <point x="223" y="401"/>
      <point x="304" y="401" type="curve" smooth="yes"/>
      <point x="373" y="401"/>
      <point x="424" y="357"/>
      <point x="424" y="265" type="curve" smooth="yes"/>
      <point x="424" y="179"/>
      <point x="377" y="18"/>
      <point x="238" y="18" type="curve" smooth="yes"/>
      <point x="139" y="18"/>
      <point x="102" y="91"/>
      <point x="102" y="201" type="curve" smooth="yes"/>
      <point x="102" y="229"/>
      <point x="104" y="259"/>
      <point x="108" y="291" type="curve"/>
      <point x="109" y="306" type="line"/>
      <point x="138" y="498"/>
      <point x="231" y="647"/>
      <point x="358" y="647" type="curve" smooth="yes"/>
      <point x="396" y="647"/>
      <point x="423" y="635"/>
      <point x="450" y="614" type="curve"/>
      <point x="468" y="636" type="line"/>
      <point x="438" y="659"/>
      <point x="408" y="674"/>
      <point x="359" y="674" type="curve"/>
    </contour>
  </outline>
</glyph>
<glyph name="eight" format="1">
  <advance width="527"/>
  <unicode hex="0038"/>
  <outline>
    <contour>
      <point x="221" y="674"/>
      <point x="124" y="608"/>
      <point x="124" y="499" type="curve" smooth="yes"/>
      <point x="124" y="430"/>
      <point x="161" y="390"/>
      <point x="235" y="358" type="curve"/>
      <point x="249" y="352" type="line"/>
      <point x="297" y="332" type="line" smooth="yes"/>
      <point x="383" y="296"/>
      <point x="425" y="262"/>
      <point x="425" y="195" type="curve" smooth="yes"/>
      <point x="425" y="76"/>
      <point x="336" y="19"/>
      <point x="227" y="19" type="curve" smooth="yes"/>
      <point x="136" y="19"/>
      <point x="76" y="67"/>
      <point x="76" y="147" type="curve" smooth="yes"/>
      <point x="76" y="221"/>
      <point x="106" y="300"/>
      <point x="271" y="352" type="curve"/>
      <point x="239" y="365" type="line"/>
      <point x="92" y="320"/>
      <point x="45" y="228"/>
      <point x="45" y="149" type="curve" smooth="yes"/>
      <point x="45" y="57"/>
      <point x="112" y="-10"/>
      <point x="226" y="-10" type="curve" smooth="yes"/>
      <point x="392" y="-10"/>
      <point x="456" y="99"/>
      <point x="456" y="193" type="curve" smooth="yes"/>
      <point x="456" y="268"/>
      <point x="411" y="311"/>
      <point x="318" y="350" type="curve"/>
      <point x="307" y="355" type="line"/>
      <point x="258" y="375" type="line" smooth="yes"/>
      <point x="179" y="408"/>
      <point x="154" y="445"/>
      <point x="154" y="497" type="curve" smooth="yes"/>
      <point x="154" y="592"/>
      <point x="233" y="647"/>
      <point x="320" y="647" type="curve" smooth="yes"/>
      <point x="391" y="647"/>
      <point x="444" y="609"/>
      <point x="444" y="537" type="curve" smooth="yes"/>
      <point x="444" y="453"/>
      <point x="397" y="403"/>
      <point x="290" y="354" type="curve"/>
      <point x="318" y="343" type="line"/>
      <point x="427" y="394"/>
      <point x="475" y="445"/>
      <point x="475" y="536" type="curve" smooth="yes"/>
      <point x="475" y="627"/>
      <point x="403" y="674"/>
      <point x="320" y="674" type="curve" smooth="yes"/>
    </contour>
  </outline>
</glyph>
<glyph name="nine" format="1">
  <advance width="512"/>
  <unicode hex="0039"/>
  <outline>
    <contour>
      <point x="437" y="402" type="line"/>
      <point x="377" y="325"/>
      <point x="317" y="281"/>
      <point x="241" y="281" type="curve" smooth="yes"/>
      <point x="163" y="281"/>
      <point x="116" y="336"/>
      <point x="116" y="426" type="curve" smooth="yes"/>
      <point x="116" y="513"/>
      <point x="162" y="647"/>
      <point x="309" y="647" type="curve" smooth="yes"/>
      <point x="400" y="647"/>
      <point x="437" y="583"/>
      <point x="437" y="478" type="curve" smooth="yes"/>
      <point x="437" y="451"/>
      <point x="436" y="424"/>
      <point x="432" y="391" type="curve"/>
      <point x="430" y="368" type="line"/>
      <point x="392" y="160"/>
      <point x="270" y="67"/>
      <point x="81" y="8" type="curve"/>
      <point x="88" y="-17" type="line"/>
      <point x="398" y="67"/>
      <point x="468" y="275"/>
      <point x="468" y="479" type="curve" smooth="yes"/>
      <point x="468" y="599"/>
      <point x="418" y="674"/>
      <point x="308" y="674" type="curve" smooth="yes"/>
      <point x="147" y="674"/>
      <point x="85" y="532"/>
      <point x="85" y="428" type="curve" smooth="yes"/>
      <point x="85" y="321"/>
      <point x="147" y="253"/>
      <point x="238" y="253" type="curve" smooth="yes"/>
      <point x="313" y="253"/>
      <point x="382" y="293"/>
      <point x="438" y="368" type="curve"/>
    </contour>
  </outline>
</glyph>
<glyph name="less" format="1">
  <advance width="492"/>
  <unicode hex="003C"/>
  <outline>
    <contour>
      <point x="86" y="344" type="line"/>
      <point x="83" y="322" type="line"/>
      <point x="391" y="152" type="line"/>
      <point x="406" y="178" type="line"/>
      <point x="118" y="333" type="line"/>
      <point x="449" y="484" type="line"/>
      <point x="441" y="510" type="line"/>
    </contour>
  </outline>
</glyph>
<glyph name="question" format="1">
  <advance width="438"/>
  <unicode hex="003F"/>
  <outline>
    <contour>
      <point x="215" y="692"/>
      <point x="159" y="665"/>
      <point x="99" y="606" type="curve"/>
      <point x="119" y="587" type="line"/>
      <point x="174" y="639"/>
      <point x="220" y="665"/>
      <point x="290" y="665" type="curve" smooth="yes"/>
      <point x="358" y="665"/>
      <point x="399" y="628"/>
      <point x="399" y="573" type="curve" smooth="yes"/>
      <point x="399" y="422"/>
      <point x="174" y="421"/>
      <point x="174" y="272" type="curve" smooth="yes"/>
      <point x="174" y="253"/>
      <point x="178" y="233"/>
      <point x="184" y="214" type="curve"/>
      <point x="211" y="221" type="line"/>
      <point x="208" y="234"/>
      <point x="204" y="250"/>
      <point x="204" y="272" type="curve" smooth="yes"/>
      <point x="204" y="404"/>
      <point x="430" y="405"/>
      <point x="430" y="574" type="curve" smooth="yes"/>
      <point x="430" y="642"/>
      <point x="380" y="692"/>
      <point x="290" y="692" type="curve" smooth="yes"/>
    </contour>
    <component base="period" xOffset="129" yOffset="-1"/>
  </outline>
</glyph>
<glyph name="at" format="1">
  <advance width="1020"/>
  <unicode hex="0040"/>
  <outline>
    <contour>
      <point x="221" y="692"/>
      <point x="89" y="389"/>
      <point x="89" y="174" type="curve" smooth="yes"/>
      <point x="89" y="-56"/>
      <point x="249" y="-199"/>
      <point x="471" y="-199" type="curve" smooth="yes"/>
      <point x="558" y="-199"/>
      <point x="613" y="-184"/>
      <point x="670" y="-165" type="curve"/>
      <point x="664" y="-138" type="line"/>
      <point x="606" y="-159"/>
      <point x="549" y="-171"/>
      <point x="472" y="-171" type="curve" smooth="yes"/>
      <point x="264" y="-171"/>
      <point x="119" y="-39"/>
      <point x="119" y="175" type="curve" smooth="yes"/>
      <point x="119" y="377"/>
      <point x="245" y="664"/>
      <point x="575" y="664" type="curve" smooth="yes"/>
      <point x="788" y="664"/>
      <point x="903" y="535"/>
      <point x="903" y="357" type="curve" smooth="yes"/>
      <point x="903" y="220"/>
      <point x="852" y="41"/>
      <point x="722" y="41" type="curve" smooth="yes"/>
      <point x="645" y="41"/>
      <point x="642" y="121"/>
      <point x="650" y="186" type="curve" smooth="yes"/>
      <point x="685" y="444" type="line"/>
      <point x="650" y="462"/>
      <point x="605" y="478"/>
      <point x="553" y="478" type="curve" smooth="yes"/>
      <point x="381" y="478"/>
      <point x="315" y="305"/>
      <point x="315" y="185" type="curve" smooth="yes"/>
      <point x="315" y="73"/>
      <point x="377" y="17"/>
      <point x="455" y="17" type="curve" smooth="yes"/>
      <point x="524" y="17"/>
      <point x="578" y="56"/>
      <point x="620" y="129" type="curve"/>
      <point x="623" y="59"/>
      <point x="661" y="15"/>
      <point x="723" y="15" type="curve" smooth="yes"/>
      <point x="872" y="15"/>
      <point x="934" y="200"/>
      <point x="934" y="358" type="curve" smooth="yes"/>
      <point x="934" y="546"/>
      <point x="812" y="692"/>
      <point x="575" y="692" type="curve" smooth="yes"/>
    </contour>
    <contour>
      <point x="391" y="45"/>
      <point x="346" y="90"/>
      <point x="346" y="181" type="curve" smooth="yes"/>
      <point x="346" y="283"/>
      <point x="397" y="450"/>
      <point x="554" y="450" type="curve" smooth="yes"/>
      <point x="593" y="450"/>
      <point x="622" y="441"/>
      <point x="654" y="425" type="curve"/>
      <point x="617" y="170" type="line"/>
      <point x="588" y="103"/>
      <point x="527" y="45"/>
      <point x="457" y="45" type="curve" smooth="yes"/>
    </contour>
  </outline>
</glyph>
<glyph name="A" format="1">
  <advance width="558"/>
  <unicode hex="0041"/>
  <outline>
    <contour>
      <point x="319" y="682" type="line"/>
      <point x="-12" y="0" type="line"/>
      <point x="20" y="0" type="line"/>
      <point x="335" y="657" type="line"/>
      <point x="464" y="0" type="line"/>
      <point x="496" y="0" type="line"/>
      <point x="357" y="682" type="line"/>
    </contour>
    <contour>
      <point x="119" y="228" type="line"/>
      <point x="103" y="199" type="line"/>
      <point x="435" y="199" type="line"/>
      <point x="430" y="228" type="line"/>
    </contour>
    <contour>
      <point x="506" y="0" type="move" name="ogonek"/>
    </contour>
    <contour>
      <point x="338" y="682" type="move" name="top"/>
    </contour>
    <contour>
      <point x="198" y="520" type="move" name="topleft"/>
    </contour>
  </outline>
</glyph>
<glyph name="B" format="1">
  <advance width="589"/>
  <unicode hex="0042"/>
  <outline>
    <contour>
      <point x="179" y="682" type="line"/>
      <point x="83" y="0" type="line"/>
      <point x="268" y="0" type="line" smooth="yes"/>
      <point x="467" y="0"/>
      <point x="521" y="121"/>
      <point x="521" y="216" type="curve" smooth="yes"/>
      <point x="521" y="311"/>
      <point x="460" y="353"/>
      <point x="379" y="361" type="curve"/>
      <point x="498" y="382"/>
      <point x="532" y="460"/>
      <point x="532" y="534" type="curve" smooth="yes"/>
      <point x="532" y="634"/>
      <point x="455" y="682"/>
      <point x="332" y="682" type="curve" smooth="yes"/>
    </contour>
    <contour>
      <point x="438" y="653"/>
      <point x="501" y="617"/>
      <point x="501" y="533" type="curve" smooth="yes"/>
      <point x="501" y="463"/>
      <point x="459" y="374"/>
      <point x="324" y="374" type="curve" smooth="yes"/>
      <point x="160" y="374" type="line"/>
      <point x="156" y="346" type="line"/>
      <point x="331" y="346" type="line" smooth="yes"/>
      <point x="427" y="346"/>
      <point x="489" y="305"/>
      <point x="489" y="217" type="curve" smooth="yes"/>
      <point x="489" y="132"/>
      <point x="444" y="29"/>
      <point x="272" y="29" type="curve" smooth="yes"/>
      <point x="119" y="29" type="line"/>
      <point x="206" y="653" type="line"/>
      <point x="334" y="653" type="line" smooth="yes"/>
    </contour>
  </outline>
</glyph>
<glyph name="C" format="1">
  <advance width="541"/>
  <unicode hex="0043"/>
  <outline>
    <contour>
      <point x="166" y="692"/>
      <point x="80" y="440"/>
      <point x="80" y="259" type="curve" smooth="yes"/>
      <point x="80" y="83"/>
      <point x="172" y="-10"/>
      <point x="305" y="-10" type="curve" smooth="yes"/>
      <point x="382" y="-10"/>
      <point x="439" y="16"/>
      <point x="488" y="54" type="curve"/>
      <point x="470" y="78" type="line"/>
      <point x="425" y="44"/>
      <point x="382" y="20"/>
      <point x="306" y="20" type="curve" smooth="yes"/>
      <point x="193" y="20"/>
      <point x="111" y="99"/>
      <point x="111" y="260" type="curve" smooth="yes"/>
      <point x="111" y="425"/>
      <point x="187" y="663"/>
      <point x="405" y="663" type="curve" smooth="yes"/>
      <point x="464" y="663"/>
      <point x="499" y="648"/>
      <point x="541" y="611" type="curve"/>
      <point x="560" y="633" type="line"/>
      <point x="520" y="669"/>
      <point x="477" y="692"/>
      <point x="403" y="692" type="curve" smooth="yes"/>
    </contour>
    <contour>
      <point x="400" y="682" type="move" name="top"/>
    </contour>
    <contour>
      <point x="303" y="0" type="move" name="bottom"/>
    </contour>
  </outline>
</glyph>
<glyph name="D" format="1">
  <advance width="622"/>
  <unicode hex="0044"/>
  <outline>
    <contour>
      <point x="179" y="682" type="line"/>
      <point x="83" y="0" type="line"/>
      <point x="216" y="0" type="line" smooth="yes"/>
      <point x="476" y="0"/>
      <point x="565" y="222"/>
      <point x="565" y="429" type="curve" smooth="yes"/>
      <point x="565" y="638"/>
      <point x="437" y="682"/>
      <point x="307" y="682" type="curve" smooth="yes"/>
    </contour>
    <contour>
      <point x="416" y="653"/>
      <point x="534" y="623"/>
      <point x="534" y="430" type="curve" smooth="yes"/>
      <point x="534" y="240"/>
      <point x="457" y="29"/>
      <point x="220" y="29" type="curve" smooth="yes"/>
      <point x="119" y="29" type="line"/>
      <point x="206" y="653" type="line"/>
      <point x="302" y="653" type="line" smooth="yes"/>
    </contour>
    <contour>
      <point x="328" y="341" type="move" name="center"/>
    </contour>
    <contour>
      <point x="356" y="682" type="move" name="top"/>
    </contour>
  </outline>
</glyph>
<glyph name="E" format="1">
  <advance width="493"/>
  <unicode hex="0045"/>
  <outline>
    <contour>
      <point x="179" y="682" type="line"/>
      <point x="83" y="0" type="line"/>
      <point x="416" y="0" type="line"/>
      <point x="421" y="29" type="line"/>
      <point x="119" y="29" type="line"/>
      <point x="163" y="345" type="line"/>
      <point x="415" y="345" type="line"/>
      <point x="419" y="373" type="line"/>
      <point x="167" y="373" type="line"/>
      <point x="206" y="653" type="line"/>
      <point x="498" y="653" type="line"/>
      <point x="506" y="682" type="line"/>
    </contour>
    <contour>
      <point x="401" y="0" type="move" name="ogonek"/>
    </contour>
    <contour>
      <point x="347" y="682" type="move" name="top"/>
    </contour>
    <contour>
      <point x="88" y="520" type="move" name="topleft"/>
    </contour>
    <contour>
      <point x="246" y="0" type="move" name="bottom"/>
    </contour>
  </outline>
</glyph>
<glyph name="F" format="1">
  <advance width="472"/>
  <unicode hex="0046"/>
  <outline>
    <contour>
      <point x="179" y="682" type="line"/>
      <point x="83" y="0" type="line"/>
      <point x="114" y="0" type="line"/>
      <point x="161" y="331" type="line"/>
      <point x="409" y="331" type="line"/>
      <point x="413" y="359" type="line"/>
      <point x="165" y="359" type="line"/>
      <point x="206" y="653" type="line"/>
      <point x="493" y="653" type="line"/>
      <point x="501" y="682" type="line"/>
    </contour>
  </outline>
</glyph>
<glyph name="G" format="1">
  <advance width="607"/>
  <unicode hex="0047"/>
  <outline>
    <contour>
      <point x="189" y="692"/>
      <point x="80" y="464"/>
      <point x="80" y="260" type="curve" smooth="yes"/>
      <point x="80" y="81"/>
      <point x="172" y="-10"/>
      <point x="316" y="-10" type="curve" smooth="yes"/>
      <point x="378" y="-10"/>
      <point x="446" y="8"/>
      <point x="507" y="41" type="curve"/>
      <point x="551" y="359" type="line"/>
      <point x="373" y="359" type="line"/>
      <point x="374" y="330" type="line"/>
      <point x="516" y="330" type="line"/>
      <point x="477" y="58" type="line"/>
      <point x="428" y="33"/>
      <point x="381" y="19"/>
      <point x="316" y="19" type="curve" smooth="yes"/>
      <point x="191" y="19"/>
      <point x="112" y="97"/>
      <point x="112" y="258" type="curve" smooth="yes"/>
      <point x="112" y="451"/>
      <point x="206" y="663"/>
      <point x="406" y="663" type="curve" smooth="yes"/>
      <point x="468" y="663"/>
      <point x="512" y="647"/>
      <point x="553" y="610" type="curve"/>
      <point x="574" y="631" type="line"/>
      <point x="526" y="672"/>
      <point x="474" y="692"/>
      <point x="406" y="692" type="curve" smooth="yes"/>
    </contour>
    <contour>
      <point x="407" y="682" type="move" name="top"/>
    </contour>
    <contour>
      <point x="299" y="0" type="move" name="bottom"/>
    </contour>
  </outline>
</glyph>
<glyph name="I" format="1">
  <advance width="271"/>
  <unicode hex="0049"/>
  <outline>
    <contour>
      <point x="179" y="682" type="line"/>
      <point x="83" y="0" type="line"/>
      <point x="114" y="0" type="line"/>
      <point x="210" y="682" type="line"/>
    </contour>
    <contour>
      <point x="114" y="0" type="move" name="ogonek"/>
    </contour>
    <contour>
      <point x="195" y="682" type="move" name="top"/>
    </contour>
    <contour>
      <point x="88" y="520" type="move" name="topleft"/>
    </contour>
    <contour>
      <point x="99" y="0" type="move" name="bottom"/>
    </contour>
  </outline>
</glyph>
<glyph name="J" format="1">
  <advance width="279"/>
  <unicode hex="004A"/>
  <outline>
    <contour>
      <point x="193" y="682" type="line"/>
      <point x="110" y="92" type="line" smooth="yes"/>
      <point x="97" y="-2"/>
      <point x="68" y="-36"/>
      <point x="-29" y="-80" type="curve"/>
      <point x="-21" y="-104" type="line"/>
      <point x="98" y="-54"/>
      <point x="126" y="-16"/>
      <point x="141" y="88" type="curve" smooth="yes"/>
      <point x="224" y="682" type="line"/>
    </contour>
    <contour>
      <point x="206" y="682" type="move" name="top"/>
    </contour>
  </outline>
</glyph>
<glyph name="K" format="1">
  <advance width="513"/>
  <unicode hex="004B"/>
  <outline>
    <contour>
      <point x="517" y="682" type="line"/>
      <point x="169" y="367" type="line"/>
      <point x="439" y="0" type="line"/>
      <point x="476" y="0" type="line"/>
      <point x="207" y="365" type="line"/>
      <point x="556" y="682" type="line"/>
    </contour>
    <contour>
      <point x="179" y="682" type="line"/>
      <point x="83" y="0" type="line"/>
      <point x="114" y="0" type="line"/>
      <point x="210" y="682" type="line"/>
    </contour>
    <contour>
      <point x="349" y="682" type="move" name="top"/>
    </contour>
    <contour>
      <point x="263" y="0" type="move" name="bottom"/>
    </contour>
  </outline>
</glyph>
<glyph name="L" format="1">
  <advance width="455"/>
  <unicode hex="004C"/>
  <outline>
    <contour>
      <point x="179" y="682" type="line"/>
      <point x="83" y="0" type="line"/>
      <point x="397" y="0" type="line"/>
      <point x="408" y="30" type="line"/>
      <point x="119" y="30" type="line"/>
      <point x="210" y="682" type="line"/>
    </contour>
    <contour>
      <point x="244" y="0" type="move" name="bottom"/>
    </contour>
    <contour>
      <point x="195" y="682" type="move" name="top"/>
    </contour>
    <contour>
      <point x="250" y="682" type="move" name="topright"/>
    </contour>
    <contour>
      <point x="365" y="354" type="move" name="center"/>
    </contour>
  </outline>
</glyph>
<glyph name="M" format="1">
  <advance width="764"/>
  <unicode hex="004D"/>
  <outline>
    <contour>
      <point x="627" y="682" type="line"/>
      <point x="361" y="119" type="line"/>
      <point x="250" y="682" type="line"/>
      <point x="205" y="682" type="line"/>
      <point x="38" y="0" type="line"/>
      <point x="68" y="0" type="line"/>
      <point x="153" y="350" type="line"/>
      <point x="179" y="458"/>
      <point x="214" y="596"/>
      <point x="226" y="656" type="curve"/>
      <point x="342" y="83" type="line"/>
      <point x="372" y="83" type="line"/>
      <point x="646" y="658" type="line"/>
      <point x="641" y="589"/>
      <point x="636" y="455"/>
      <point x="633" y="343" type="curve" smooth="yes"/>
      <point x="622" y="0" type="line"/>
      <point x="652" y="0" type="line"/>
      <point x="675" y="682" type="line"/>
    </contour>
  </outline>
</glyph>
<glyph name="N" format="1">
  <advance width="664"/>
  <unicode hex="004E"/>
  <outline>
    <contour>
      <point x="573" y="682" type="line"/>
      <point x="510" y="233" type="line"/>
      <point x="497" y="141"/>
      <point x="490" y="76"/>
      <point x="487" y="34" type="curve"/>
      <point x="218" y="682" type="line"/>
      <point x="179" y="682" type="line"/>
      <point x="83" y="0" type="line"/>
      <point x="113" y="0" type="line"/>
      <point x="175" y="437" type="line"/>
      <point x="192" y="556"/>
      <point x="198" y="607"/>
      <point x="200" y="651" type="curve"/>
      <point x="469" y="0" type="line"/>
      <point x="507" y="0" type="line"/>
      <point x="603" y="682" type="line"/>
    </contour>
    <contour>
      <point x="398" y="682" type="move" name="top"/>
    </contour>
    <contour>
      <point x="295" y="0" type="move" name="bottom"/>
    </contour>
  </outline>
</glyph>
<glyph name="O" format="1">
  <advance width="690"/>
  <unicode hex="004F"/>
  <outline>
    <contour>
      <point x="163" y="692"/>
      <point x="80" y="430"/>
      <point x="80" y="259" type="curve" smooth="yes"/>
      <point x="80" y="85"/>
      <point x="169" y="-10"/>
      <point x="309" y="-10" type="curve" smooth="yes"/>
      <point x="554" y="-10"/>
      <point x="633" y="250"/>
      <point x="633" y="426" type="curve" smooth="yes"/>
      <point x="633" y="601"/>
      <point x="544" y="692"/>
      <point x="405" y="692" type="curve" smooth="yes"/>
    </contour>
    <contour>
      <point x="526" y="664"/>
      <point x="601" y="585"/>
      <point x="601" y="427" type="curve" smooth="yes"/>
      <point x="601" y="270"/>
      <point x="538" y="19"/>
      <point x="309" y="19" type="curve" smooth="yes"/>
      <point x="189" y="19"/>
      <point x="112" y="100"/>
      <point x="112" y="256" type="curve" smooth="yes"/>
      <point x="112" y="415"/>
      <point x="182" y="664"/>
      <point x="404" y="664" type="curve"/>
    </contour>
    <contour>
      <point x="389" y="682" type="move" name="top"/>
    </contour>
    <contour>
      <point x="78" y="520" type="move" name="topleft"/>
    </contour>
  </outline>
</glyph>
<glyph name="P" format="1">
  <advance width="561"/>
  <unicode hex="0050"/>
  <outline>
    <contour>
      <point x="206" y="653" type="line"/>
      <point x="320" y="653" type="line" smooth="yes"/>
      <point x="441" y="653"/>
      <point x="508" y="616"/>
      <point x="508" y="516" type="curve" smooth="yes"/>
      <point x="508" y="410"/>
      <point x="458" y="307"/>
      <point x="267" y="307" type="curve" smooth="yes"/>
      <point x="151" y="307" type="line"/>
      <point x="147" y="278" type="line"/>
      <point x="263" y="278" type="line" smooth="yes"/>
      <point x="479" y="278"/>
      <point x="540" y="397"/>
      <point x="540" y="516" type="curve" smooth="yes"/>
      <point x="540" y="631"/>
      <point x="461" y="682"/>
      <point x="322" y="682" type="curve" smooth="yes"/>
      <point x="179" y="682" type="line"/>
      <point x="83" y="0" type="line"/>
      <point x="114" y="0" type="line"/>
    </contour>
  </outline>
</glyph>
<glyph name="Q" format="1">
  <advance width="674"/>
  <unicode hex="0051"/>
  <outline>
    <contour>
      <point x="309" y="-10" type="line"/>
      <point x="429" y="-10"/>
      <point x="505" y="-23"/>
      <point x="568" y="-85" type="curve"/>
      <point x="591" y="-61" type="line"/>
      <point x="541" y="-10"/>
      <point x="466" y="7"/>
      <point x="394" y="9" type="curve"/>
    </contour>
    <contour>
      <point x="163" y="692"/>
      <point x="80" y="430"/>
      <point x="80" y="259" type="curve" smooth="yes"/>
      <point x="80" y="85"/>
      <point x="169" y="-10"/>
      <point x="309" y="-10" type="curve" smooth="yes"/>
      <point x="331" y="-10"/>
      <point x="352" y="-8"/>
      <point x="366" y="-4" type="curve"/>
      <point x="392" y="6" type="line"/>
      <point x="572" y="51"/>
      <point x="633" y="271"/>
      <point x="633" y="426" type="curve" smooth="yes"/>
      <point x="633" y="601"/>
      <point x="544" y="692"/>
      <point x="405" y="692" type="curve" smooth="yes"/>
    </contour>
    <contour>
      <point x="526" y="664"/>
      <point x="601" y="585"/>
      <point x="601" y="427" type="curve" smooth="yes"/>
      <point x="601" y="270"/>
      <point x="538" y="19"/>
      <point x="309" y="19" type="curve" smooth="yes"/>
      <point x="189" y="19"/>
      <point x="112" y="100"/>
      <point x="112" y="256" type="curve" smooth="yes"/>
      <point x="112" y="415"/>
      <point x="182" y="664"/>
      <point x="404" y="664" type="curve"/>
    </contour>
  </outline>
</glyph>
<glyph name="R" format="1">
  <advance width="577"/>
  <unicode hex="0052"/>
  <outline>
    <contour>
      <point x="179" y="682" type="line"/>
      <point x="83" y="0" type="line"/>
      <point x="114" y="0" type="line"/>
      <point x="206" y="653" type="line"/>
      <point x="336" y="653" type="line" smooth="yes"/>
      <point x="459" y="653"/>
      <point x="506" y="613"/>
      <point x="506" y="534" type="curve" smooth="yes"/>
      <point x="506" y="453"/>
      <point x="458" y="349"/>
      <point x="296" y="349" type="curve" smooth="yes"/>
      <point x="157" y="349" type="line"/>
      <point x="152" y="320" type="line"/>
      <point x="325" y="320" type="line"/>
      <point x="489" y="342"/>
      <point x="538" y="441"/>
      <point x="538" y="533" type="curve" smooth="yes"/>
      <point x="538" y="633"/>
      <point x="475" y="682"/>
      <point x="332" y="682" type="curve" smooth="yes"/>
    </contour>
    <contour>
      <point x="319" y="327" type="line"/>
      <point x="466" y="0" type="line"/>
      <point x="500" y="0" type="line"/>
      <point x="349" y="332" type="line"/>
    </contour>
    <contour>
      <point x="349" y="682" type="move" name="top"/>
    </contour>
    <contour>
      <point x="268" y="0" type="move" name="bottom"/>
    </contour>
  </outline>
</glyph>
<glyph name="S" format="1">
  <advance width="534"/>
  <unicode hex="0053"/>
  <outline>
    <contour>
      <point x="180" y="692"/>
      <point x="114" y="600"/>
      <point x="114" y="521" type="curve" smooth="yes"/>
      <point x="114" y="440"/>
      <point x="161" y="394"/>
      <point x="280" y="356" type="curve" smooth="yes"/>
      <point x="385" y="322"/>
      <point x="430" y="276"/>
      <point x="430" y="200" type="curve" smooth="yes"/>
      <point x="430" y="124"/>
      <point x="380" y="19"/>
      <point x="220" y="19" type="curve" smooth="yes"/>
      <point x="138" y="19"/>
      <point x="88" y="49"/>
      <point x="46" y="94" type="curve"/>
      <point x="24" y="74" type="line"/>
      <point x="73" y="24"/>
      <point x="131" y="-10"/>
      <point x="221" y="-10" type="curve" smooth="yes"/>
      <point x="392" y="-10"/>
      <point x="461" y="106"/>
      <point x="461" y="200" type="curve" smooth="yes"/>
      <point x="461" y="292"/>
      <point x="406" y="346"/>
      <point x="291" y="382" type="curve" smooth="yes"/>
      <point x="188" y="415"/>
      <point x="145" y="451"/>
      <point x="145" y="522" type="curve" smooth="yes"/>
      <point x="145" y="603"/>
      <point x="217" y="664"/>
      <point x="324" y="664" type="curve" smooth="yes"/>
      <point x="389" y="664"/>
      <point x="433" y="645"/>
      <point x="477" y="599" type="curve"/>
      <point x="498" y="619" type="line"/>
      <point x="454" y="663"/>
      <point x="402" y="692"/>
      <point x="324" y="692" type="curve" smooth="yes"/>
    </contour>
    <contour>
      <point x="327" y="682" type="move" name="top"/>
    </contour>
    <contour>
      <point x="224" y="0" type="move" name="bottom"/>
    </contour>
  </outline>
</glyph>
<glyph name="T" format="1">
  <advance width="477"/>
  <unicode hex="0054"/>
  <outline>
    <contour>
      <point x="74" y="682" type="line"/>
      <point x="70" y="652" type="line"/>
      <point x="278" y="652" type="line"/>
      <point x="186" y="0" type="line"/>
      <point x="217" y="0" type="line"/>
      <point x="309" y="652" type="line"/>
      <point x="517" y="652" type="line"/>
      <point x="526" y="682" type="line"/>
    </contour>
    <contour>
      <point x="288" y="682" type="move" name="top"/>
    </contour>
    <contour>
      <point x="202" y="0" type="move" name="bottom"/>
    </contour>
    <contour>
      <point x="227" y="0" type="move" name="bottomright"/>
    </contour>
  </outline>
</glyph>
<glyph name="U" format="1">
  <advance width="644"/>
  <unicode hex="0055"/>
  <outline>
    <contour>
      <point x="561" y="682" type="line"/>
      <point x="495" y="212" type="line" smooth="yes"/>
      <point x="480" y="101"/>
      <point x="416" y="19"/>
      <point x="286" y="19" type="curve" smooth="yes"/>
      <point x="159" y="19"/>
      <point x="118" y="96"/>
      <point x="134" y="210" type="curve" smooth="yes"/>
      <point x="200" y="682" type="line"/>
      <point x="169" y="682" type="line"/>
      <point x="103" y="209" type="line" smooth="yes"/>
      <point x="85" y="82"/>
      <point x="136" y="-10"/>
      <point x="286" y="-10" type="curve" smooth="yes"/>
      <point x="432" y="-10"/>
      <point x="508" y="80"/>
      <point x="526" y="207" type="curve" smooth="yes"/>
      <point x="592" y="682" type="line"/>
    </contour>
    <contour>
      <point x="370" y="0" type="move" name="ogonek"/>
    </contour>
    <contour>
      <point x="384" y="682" type="move" name="top"/>
    </contour>
  </outline>
</glyph>
<glyph name="V" format="1">
  <advance width="538"/>
  <unicode hex="0056"/>
  <outline>
    <contour>
      <point x="539" y="682" type="line"/>
      <point x="235" y="29" type="line"/>
      <point x="116" y="682" type="line"/>
      <point x="84" y="682" type="line"/>
      <point x="212" y="0" type="line"/>
      <point x="251" y="0" type="line"/>
      <point x="572" y="682" type="line"/>
    </contour>
  </outline>
</glyph>
<glyph name="W" format="1">
  <advance width="796"/>
  <unicode hex="0057"/>
  <outline>
    <contour>
      <point x="788" y="682" type="line"/>
      <point x="551" y="33" type="line"/>
      <point x="476" y="682" type="line"/>
      <point x="437" y="682" type="line"/>
      <point x="181" y="35" type="line"/>
      <point x="126" y="682" type="line"/>
      <point x="94" y="682" type="line"/>
      <point x="157" y="0" type="line"/>
      <point x="193" y="0" type="line"/>
      <point x="453" y="651" type="line"/>
      <point x="529" y="0" type="line"/>
      <point x="565" y="0" type="line"/>
      <point x="820" y="682" type="line"/>
    </contour>
    <contour>
      <point x="457" y="682" type="move" name="top"/>
    </contour>
  </outline>
</glyph>
<glyph name="Y" format="1">
  <advance width="500"/>
  <unicode hex="0059"/>
  <outline>
    <contour>
      <point x="503" y="682" type="line"/>
      <point x="255" y="301" type="line"/>
      <point x="113" y="682" type="line"/>
      <point x="79" y="682" type="line"/>
      <point x="237" y="270" type="line"/>
      <point x="199" y="0" type="line"/>
      <point x="230" y="0" type="line"/>
      <point x="269" y="271" type="line"/>
      <point x="539" y="682" type="line"/>
    </contour>
    <contour>
      <point x="305" y="682" type="move" name="top"/>
    </contour>
    <contour>
      <point x="18" y="520" type="move" name="topleft"/>
    </contour>
  </outline>
</glyph>
<glyph name="Z" format="1">
  <advance width="511"/>
  <unicode hex="005A"/>
  <outline>
    <contour>
      <point x="137" y="682" type="line"/>
      <point x="133" y="653" type="line"/>
      <point x="478" y="653" type="line"/>
      <point x="7" y="28" type="line"/>
      <point x="3" y="0" type="line"/>
      <point x="408" y="0" type="line"/>
      <point x="417" y="30" type="line"/>
      <point x="46" y="30" type="line"/>
      <point x="517" y="655" type="line"/>
      <point x="520" y="682" type="line"/>
    </contour>
    <contour>
      <point x="315" y="682" type="move" name="top"/>
    </contour>
  </outline>
</glyph>
<glyph name="bracketleft" format="1">
  <advance width="313"/>
  <unicode hex="005B"/>
  <outline>
    <contour>
      <point x="176" y="799" type="line"/>
      <point x="48" y="-109" type="line"/>
      <point x="181" y="-109" type="line"/>
      <point x="184" y="-86" type="line"/>
      <point x="78" y="-86" type="line"/>
      <point x="200" y="776" type="line"/>
      <point x="306" y="776" type="line"/>
      <point x="309" y="799" type="line"/>
    </contour>
  </outline>
</glyph>
<glyph name="bracketright" format="1">
  <advance width="313"/>
  <unicode hex="005D"/>
  <outline>
    <contour>
      <point x="156" y="799" type="line"/>
      <point x="153" y="776" type="line"/>
      <point x="259" y="776" type="line"/>
      <point x="137" y="-86" type="line"/>
      <point x="31" y="-86" type="line"/>
      <point x="28" y="-109" type="line"/>
      <point x="161" y="-109" type="line"/>
      <point x="289" y="799" type="line"/>
    </contour>
  </outline>
</glyph>
<glyph name="asciicircum" format="1">
  <advance width="523"/>
  <unicode hex="005E"/>
  <outline>
    <contour>
      <point x="331" y="826" type="line"/>
      <point x="108" y="527" type="line"/>
      <point x="147" y="527" type="line"/>
      <point x="337" y="788" type="line"/>
      <point x="453" y="527" type="line"/>
      <point x="491" y="527" type="line"/>
      <point x="352" y="826" type="line"/>
    </contour>
  </outline>
</glyph>
<glyph name="grave" format="1">
  <advance width="253"/>
  <unicode hex="0060"/>
  <outline>
    <contour>
      <point x="97" y="735" type="line"/>
      <point x="267" y="651" type="line"/>
      <point x="279" y="671" type="line"/>
      <point x="115" y="767" type="line"/>
    </contour>
    <contour>
      <point x="159" y="520" type="move" name="_top"/>
    </contour>
  </outline>
</glyph>
<glyph name="a" format="1">
  <advance width="552"/>
  <unicode hex="0061"/>
  <outline>
    <contour>
      <point x="134" y="530"/>
      <point x="65" y="332"/>
      <point x="65" y="193" type="curve" smooth="yes"/>
      <point x="65" y="65"/>
      <point x="126" y="-10"/>
      <point x="227" y="-10" type="curve" smooth="yes"/>
      <point x="297" y="-10"/>
      <point x="354" y="31"/>
      <point x="392" y="90" type="curve"/>
      <point x="385" y="21"/>
      <point x="407" y="1"/>
      <point x="443" y="-10" type="curve"/>
      <point x="452" y="13" type="line"/>
      <point x="431" y="22"/>
      <point x="419" y="34"/>
      <point x="419" y="69" type="curve"/>
      <point x="419" y="80"/>
      <point x="420" y="93"/>
      <point x="422" y="109" type="curve" smooth="yes"/>
      <point x="478" y="488" type="line"/>
      <point x="437" y="511"/>
      <point x="396" y="530"/>
      <point x="324" y="530" type="curve" smooth="yes"/>
    </contour>
    <contour>
      <point x="375" y="504"/>
      <point x="416" y="492"/>
      <point x="447" y="474" type="curve"/>
      <point x="398" y="140" type="line"/>
      <point x="352" y="61"/>
      <point x="298" y="18"/>
      <point x="228" y="18" type="curve" smooth="yes"/>
      <point x="144" y="18"/>
      <point x="96" y="81"/>
      <point x="96" y="194" type="curve" smooth="yes"/>
      <point x="96" y="318"/>
      <point x="156" y="504"/>
      <point x="325" y="504" type="curve" smooth="yes"/>
    </contour>
    <contour>
      <point x="452" y="-10" type="move" name="ogonek"/>
    </contour>
    <contour>
      <point x="333" y="520" type="move" name="top"/>
    </contour>
  </outline>
</glyph>
<glyph name="b" format="1">
  <advance width="565"/>
  <unicode hex="0062"/>
  <outline>
    <contour>
      <point x="182" y="734" type="line"/>
      <point x="81" y="23" type="line"/>
      <point x="142" y="-1"/>
      <point x="183" y="-10"/>
      <point x="241" y="-10" type="curve" smooth="yes"/>
      <point x="441" y="-10"/>
      <point x="501" y="200"/>
      <point x="501" y="339" type="curve" smooth="yes"/>
      <point x="501" y="463"/>
      <point x="447" y="530"/>
      <point x="345" y="530" type="curve" smooth="yes"/>
      <point x="274" y="530"/>
      <point x="216" y="494"/>
      <point x="171" y="443" type="curve"/>
      <point x="212" y="738" type="line"/>
    </contour>
    <contour>
      <point x="428" y="502"/>
      <point x="471" y="448"/>
      <point x="471" y="341" type="curve" smooth="yes"/>
      <point x="471" y="219"/>
      <point x="421" y="18"/>
      <point x="240" y="18" type="curve" smooth="yes"/>
      <point x="184" y="18"/>
      <point x="148" y="29"/>
      <point x="115" y="43" type="curve"/>
      <point x="165" y="404" type="line"/>
      <point x="217" y="462"/>
      <point x="268" y="502"/>
      <point x="345" y="502" type="curve" smooth="yes"/>
    </contour>
  </outline>
</glyph>
<glyph name="c" format="1">
  <advance width="462"/>
  <unicode hex="0063"/>
  <outline>
    <contour>
      <point x="133" y="530"/>
      <point x="66" y="332"/>
      <point x="66" y="198" type="curve" smooth="yes"/>
      <point x="66" y="63"/>
      <point x="139" y="-10"/>
      <point x="247" y="-10" type="curve" smooth="yes"/>
      <point x="306" y="-10"/>
      <point x="356" y="10"/>
      <point x="398" y="43" type="curve"/>
      <point x="382" y="65" type="line"/>
      <point x="344" y="37"/>
      <point x="301" y="18"/>
      <point x="248" y="18" type="curve" smooth="yes"/>
      <point x="156" y="18"/>
      <point x="97" y="77"/>
      <point x="97" y="198" type="curve" smooth="yes"/>
      <point x="97" y="319"/>
      <point x="154" y="503"/>
      <point x="319" y="503" type="curve" smooth="yes"/>
      <point x="370" y="503"/>
      <point x="405" y="486"/>
      <point x="433" y="460" type="curve"/>
      <point x="452" y="480" type="line"/>
      <point x="417" y="514"/>
      <point x="375" y="530"/>
      <point x="320" y="530" type="curve" smooth="yes"/>
    </contour>
    <contour>
      <point x="324" y="520" type="move" name="top"/>
    </contour>
    <contour>
      <point x="246" y="0" type="move" name="bottom"/>
    </contour>
  </outline>
</glyph>
<glyph name="d" format="1">
  <advance width="575"/>
  <unicode hex="0064"/>
  <outline>
    <contour>
      <point x="457" y="453" type="line"/>
      <point x="435" y="490"/>
      <point x="394" y="530"/>
      <point x="315" y="530" type="curve" smooth="yes"/>
      <point x="132" y="530"/>
      <point x="70" y="329"/>
      <point x="70" y="193" type="curve" smooth="yes"/>
      <point x="70" y="65"/>
      <point x="131" y="-10"/>
      <point x="226" y="-10" type="curve" smooth="yes"/>
      <point x="317" y="-10"/>
      <point x="374" y="56"/>
      <point x="411" y="122" type="curve"/>
      <point x="398" y="0" type="line"/>
      <point x="423" y="0" type="line"/>
      <point x="527" y="734" type="line"/>
      <point x="497" y="738" type="line"/>
    </contour>
    <contour>
      <point x="389" y="503"/>
      <point x="428" y="462"/>
      <point x="452" y="415" type="curve"/>
      <point x="419" y="179" type="line"/>
      <point x="367" y="86"/>
      <point x="314" y="18"/>
      <point x="227" y="18" type="curve" smooth="yes"/>
      <point x="149" y="18"/>
      <point x="101" y="81"/>
      <point x="101" y="194" type="curve" smooth="yes"/>
      <point x="101" y="321"/>
      <point x="157" y="503"/>
      <point x="316" y="503" type="curve" smooth="yes"/>
    </contour>
    <contour>
      <point x="293" y="260" type="move" name="center"/>
    </contour>
    <contour>
      <point x="557" y="734" type="move" name="topright"/>
    </contour>
  </outline>
</glyph>
<glyph name="e" format="1">
  <advance width="517"/>
  <unicode hex="0065"/>
  <outline>
    <contour>
      <point x="144" y="530"/>
      <point x="65" y="344"/>
      <point x="65" y="197" type="curve" smooth="yes"/>
      <point x="65" y="62"/>
      <point x="133" y="-10"/>
      <point x="246" y="-10" type="curve" smooth="yes"/>
      <point x="312" y="-10"/>
      <point x="363" y="12"/>
      <point x="415" y="51" type="curve"/>
      <point x="399" y="73" type="line"/>
      <point x="349" y="38"/>
      <point x="308" y="18"/>
      <point x="246" y="18" type="curve" smooth="yes"/>
      <point x="157" y="18"/>
      <point x="96" y="73"/>
      <point x="96" y="198" type="curve" smooth="yes"/>
      <point x="96" y="330"/>
      <point x="163" y="503"/>
      <point x="321" y="503" type="curve" smooth="yes"/>
      <point x="402" y="503"/>
      <point x="443" y="464"/>
      <point x="443" y="409" type="curve" smooth="yes"/>
      <point x="443" y="309"/>
      <point x="325" y="253"/>
      <point x="92" y="239" type="curve"/>
      <point x="89" y="213" type="line"/>
      <point x="330" y="226"/>
      <point x="474" y="287"/>
      <point x="474" y="410" type="curve" smooth="yes"/>
      <point x="474" y="482"/>
      <point x="415" y="530"/>
      <point x="321" y="530" type="curve" smooth="yes"/>
    </contour>
    <contour>
      <point x="341" y="5" type="move" name="ogonek"/>
    </contour>
    <contour>
      <point x="249" y="0" type="move" name="bottom"/>
    </contour>
    <contour>
      <point x="311" y="520" type="move" name="top"/>
    </contour>
  </outline>
</glyph>
<glyph name="g" format="1">
  <advance width="555"/>
  <unicode hex="0067"/>
  <outline>
    <contour>
      <point x="134" y="530"/>
      <point x="64" y="332"/>
      <point x="65" y="202" type="curve" smooth="yes"/>
      <point x="66" y="78"/>
      <point x="127" y="0"/>
      <point x="228" y="0" type="curve" smooth="yes"/>
      <point x="298" y="0"/>
      <point x="355" y="40"/>
      <point x="393" y="99" type="curve"/>
      <point x="378" y="-6" type="line" smooth="yes"/>
      <point x="361" y="-128"/>
      <point x="290" y="-173"/>
      <point x="209" y="-173" type="curve" smooth="yes"/>
      <point x="144" y="-173"/>
      <point x="99" y="-153"/>
      <point x="55" y="-130" type="curve"/>
      <point x="42" y="-152" type="line"/>
      <point x="85" y="-176"/>
      <point x="140" y="-199"/>
      <point x="208" y="-199" type="curve" smooth="yes"/>
      <point x="304" y="-199"/>
      <point x="387" y="-150"/>
      <point x="408" y="-2" type="curve" smooth="yes"/>
      <point x="478" y="488" type="line"/>
      <point x="437" y="511"/>
      <point x="396" y="530"/>
      <point x="324" y="530" type="curve" smooth="yes"/>
    </contour>
    <contour>
      <point x="375" y="504"/>
      <point x="417" y="492"/>
      <point x="448" y="474" type="curve"/>
      <point x="400" y="147" type="line"/>
      <point x="354" y="70"/>
      <point x="299" y="28"/>
      <point x="229" y="28" type="curve" smooth="yes"/>
      <point x="145" y="28"/>
      <point x="97" y="94"/>
      <point x="96" y="203" type="curve" smooth="yes"/>
      <point x="95" y="320"/>
      <point x="156" y="504"/>
      <point x="325" y="504" type="curve" smooth="yes"/>
    </contour>
    <contour>
      <point x="315" y="520" type="move" name="top"/>
    </contour>
  </outline>
</glyph>
<glyph name="h" format="1">
  <advance width="582"/>
  <unicode hex="0068"/>
  <outline>
    <contour>
      <point x="290" y="530"/>
      <point x="213" y="471"/>
      <point x="160" y="368" type="curve"/>
      <point x="212" y="739" type="line"/>
      <point x="182" y="734" type="line"/>
      <point x="78" y="0" type="line"/>
      <point x="108" y="0" type="line"/>
      <point x="152" y="310" type="line"/>
      <point x="212" y="424"/>
      <point x="281" y="504"/>
      <point x="367" y="504" type="curve" smooth="yes"/>
      <point x="440" y="504"/>
      <point x="470" y="460"/>
      <point x="457" y="367" type="curve" smooth="yes"/>
      <point x="405" y="0" type="line"/>
      <point x="435" y="0" type="line"/>
      <point x="487" y="369" type="line" smooth="yes"/>
      <point x="502" y="471"/>
      <point x="463" y="530"/>
      <point x="370" y="530" type="curve" smooth="yes"/>
    </contour>
    <contour>
      <point x="296" y="260" type="move" name="center"/>
    </contour>
    <contour>
      <point x="252" y="0" type="move" name="bottom"/>
    </contour>
    <contour>
      <point x="363" y="734" type="move" name="top"/>
    </contour>
  </outline>
</glyph>
<glyph name="k" format="1">
  <advance width="504"/>
  <unicode hex="006B"/>
  <outline>
    <contour>
      <point x="182" y="734" type="line"/>
      <point x="78" y="0" type="line"/>
      <point x="108" y="0" type="line"/>
      <point x="150" y="296" type="line"/>
      <point x="209" y="421"/>
      <point x="279" y="505"/>
      <point x="365" y="505" type="curve" smooth="yes"/>
      <point x="427" y="505"/>
      <point x="449" y="470"/>
      <point x="449" y="423" type="curve" smooth="yes"/>
      <point x="449" y="343"/>
      <point x="382" y="284"/>
      <point x="262" y="252" type="curve"/>
      <point x="386" y="0" type="line"/>
      <point x="419" y="0" type="line"/>
      <point x="300" y="239" type="line"/>
      <point x="415" y="275"/>
      <point x="480" y="338"/>
      <point x="480" y="424" type="curve"/>
      <point x="480" y="492"/>
      <point x="434" y="530"/>
      <point x="367" y="530" type="curve" smooth="yes"/>
      <point x="294" y="530"/>
      <point x="220" y="483"/>
      <point x="159" y="363" type="curve"/>
      <point x="212" y="738" type="line"/>
    </contour>
    <contour>
      <point x="241" y="0" type="move" name="bottom"/>
    </contour>
  </outline>
</glyph>
<glyph name="l" format="1">
  <advance width="276"/>
  <unicode hex="006C"/>
  <outline>
    <contour>
      <point x="176" y="734" type="line"/>
      <point x="84" y="79" type="line" smooth="yes"/>
      <point x="75" y="17"/>
      <point x="102" y="-10"/>
      <point x="151" y="-10" type="curve" smooth="yes"/>
      <point x="168" y="-10"/>
      <point x="187" y="-5"/>
      <point x="201" y="1" type="curve"/>
      <point x="193" y="25" type="line"/>
      <point x="180" y="20"/>
      <point x="167" y="16"/>
      <point x="153" y="16" type="curve" smooth="yes"/>
      <point x="118" y="16"/>
      <point x="108" y="36"/>
      <point x="113" y="76" type="curve" smooth="yes"/>
      <point x="206" y="738" type="line"/>
    </contour>
    <contour>
      <point x="275" y="375" type="move" name="center"/>
    </contour>
    <contour>
      <point x="91" y="0" type="move" name="bottom"/>
    </contour>
    <contour>
      <point x="236" y="734" type="move" name="topright"/>
    </contour>
  </outline>
</glyph>
<glyph name="m" format="1">
  <advance width="849"/>
  <unicode hex="006D"/>
  <outline>
    <contour>
      <point x="280" y="530"/>
      <point x="213" y="470"/>
      <point x="159" y="367" type="curve"/>
      <point x="177" y="520" type="line"/>
      <point x="152" y="520" type="line"/>
      <point x="78" y="0" type="line"/>
      <point x="108" y="0" type="line"/>
      <point x="152" y="310" type="line"/>
      <point x="212" y="424"/>
      <point x="275" y="504"/>
      <point x="352" y="504" type="curve" smooth="yes"/>
      <point x="410" y="504"/>
      <point x="440" y="460"/>
      <point x="427" y="367" type="curve" smooth="yes"/>
      <point x="375" y="0" type="line"/>
      <point x="405" y="0" type="line"/>
      <point x="457" y="369" type="line" smooth="yes"/>
      <point x="472" y="471"/>
      <point x="433" y="530"/>
      <point x="355" y="530" type="curve" smooth="yes"/>
    </contour>
    <contour>
      <point x="577" y="530"/>
      <point x="507" y="469"/>
      <point x="453" y="366" type="curve"/>
      <point x="448" y="310" type="line"/>
      <point x="508" y="424"/>
      <point x="572" y="504"/>
      <point x="649" y="504" type="curve" smooth="yes"/>
      <point x="707" y="504"/>
      <point x="737" y="460"/>
      <point x="724" y="367" type="curve" smooth="yes"/>
      <point x="672" y="0" type="line"/>
      <point x="702" y="0" type="line"/>
      <point x="754" y="369" type="line" smooth="yes"/>
      <point x="769" y="471"/>
      <point x="730" y="530"/>
      <point x="652" y="530" type="curve" smooth="yes"/>
    </contour>
  </outline>
</glyph>
<glyph name="o" format="1">
  <advance width="561"/>
  <unicode hex="006F"/>
  <outline>
    <contour>
      <point x="128" y="530"/>
      <point x="65" y="331"/>
      <point x="65" y="197" type="curve" smooth="yes"/>
      <point x="65" y="66"/>
      <point x="131" y="-10"/>
      <point x="244" y="-10" type="curve" smooth="yes"/>
      <point x="436" y="-10"/>
      <point x="496" y="196"/>
      <point x="496" y="327" type="curve" smooth="yes"/>
      <point x="496" y="459"/>
      <point x="429" y="530"/>
      <point x="317" y="530" type="curve" smooth="yes"/>
    </contour>
    <contour>
      <point x="412" y="503"/>
      <point x="465" y="441"/>
      <point x="465" y="326" type="curve" smooth="yes"/>
      <point x="465" y="204"/>
      <point x="411" y="18"/>
      <point x="244" y="18" type="curve" smooth="yes"/>
      <point x="150" y="18"/>
      <point x="96" y="81"/>
      <point x="96" y="196" type="curve" smooth="yes"/>
      <point x="96" y="312"/>
      <point x="147" y="503"/>
      <point x="317" y="503" type="curve" smooth="yes"/>
    </contour>
    <contour>
      <point x="318" y="520" type="move" name="top"/>
    </contour>
  </outline>
</glyph>
<glyph name="p" format="1">
  <advance width="570"/>
  <unicode hex="0070"/>
  <outline>
    <contour>
      <point x="275" y="530"/>
      <point x="218" y="495"/>
      <point x="169" y="443" type="curve"/>
      <point x="178" y="520" type="line"/>
      <point x="152" y="520" type="line"/>
      <point x="50" y="-199" type="line"/>
      <point x="81" y="-195" type="line"/>
      <point x="110" y="13" type="line"/>
      <point x="155" y="-4"/>
      <point x="192" y="-10"/>
      <point x="241" y="-10" type="curve" smooth="yes"/>
      <point x="441" y="-10"/>
      <point x="501" y="200"/>
      <point x="501" y="339" type="curve" smooth="yes"/>
      <point x="501" y="463"/>
      <point x="447" y="530"/>
      <point x="345" y="530" type="curve" smooth="yes"/>
    </contour>
    <contour>
      <point x="428" y="502"/>
      <point x="471" y="448"/>
      <point x="471" y="341" type="curve" smooth="yes"/>
      <point x="471" y="219"/>
      <point x="421" y="18"/>
      <point x="240" y="18" type="curve" smooth="yes"/>
      <point x="184" y="18"/>
      <point x="148" y="29"/>
      <point x="115" y="43" type="curve"/>
      <point x="165" y="404" type="line"/>
      <point x="217" y="462"/>
      <point x="268" y="502"/>
      <point x="345" y="502" type="curve" smooth="yes"/>
    </contour>
  </outline>
</glyph>
<glyph name="q" format="1">
  <advance width="559"/>
  <unicode hex="0071"/>
  <outline>
    <contour>
      <point x="134" y="530"/>
      <point x="65" y="332"/>
      <point x="65" y="193" type="curve" smooth="yes"/>
      <point x="65" y="65"/>
      <point x="126" y="-10"/>
      <point x="227" y="-10" type="curve" smooth="yes"/>
      <point x="297" y="-10"/>
      <point x="358" y="31"/>
      <point x="396" y="90" type="curve"/>
      <point x="357" y="-199" type="line"/>
      <point x="385" y="-195" type="line"/>
      <point x="478" y="488" type="line"/>
      <point x="437" y="511"/>
      <point x="396" y="530"/>
      <point x="324" y="530" type="curve" smooth="yes"/>
    </contour>
    <contour>
      <point x="375" y="504"/>
      <point x="416" y="492"/>
      <point x="447" y="474" type="curve"/>
      <point x="402" y="140" type="line"/>
      <point x="356" y="61"/>
      <point x="298" y="18"/>
      <point x="228" y="18" type="curve" smooth="yes"/>
      <point x="144" y="18"/>
      <point x="96" y="81"/>
      <point x="96" y="194" type="curve" smooth="yes"/>
      <point x="96" y="318"/>
      <point x="156" y="504"/>
      <point x="325" y="504" type="curve" smooth="yes"/>
    </contour>
  </outline>
</glyph>
<glyph name="r" format="1">
  <advance width="363"/>
  <unicode hex="0072"/>
  <outline>
    <contour>
      <point x="253" y="530"/>
      <point x="196" y="470"/>
      <point x="158" y="377" type="curve"/>
      <point x="178" y="520" type="line"/>
      <point x="152" y="520" type="line"/>
      <point x="78" y="0" type="line"/>
      <point x="108" y="0" type="line"/>
      <point x="153" y="314" type="line"/>
      <point x="202" y="430"/>
      <point x="252" y="503"/>
      <point x="336" y="503" type="curve" smooth="yes"/>
      <point x="346" y="503"/>
      <point x="363" y="501"/>
      <point x="376" y="497" type="curve"/>
      <point x="384" y="523" type="line"/>
      <point x="374" y="526"/>
      <point x="356" y="530"/>
      <point x="336" y="530" type="curve" smooth="yes"/>
    </contour>
    <contour>
      <point x="266" y="520" type="move" name="top"/>
    </contour>
    <contour>
      <point x="92" y="0" type="move" name="bottom"/>
    </contour>
  </outline>
</glyph>
<glyph name="t" format="1">
  <advance width="325"/>
  <unicode hex="0074"/>
  <outline>
    <contour>
      <point x="172" y="650" type="line"/>
      <point x="145" y="510" type="line"/>
      <point x="90" y="118" type="line" smooth="yes"/>
      <point x="78" y="32"/>
      <point x="120" y="-10"/>
      <point x="189" y="-10" type="curve" smooth="yes"/>
      <point x="230" y="-10"/>
      <point x="265" y="2"/>
      <point x="297" y="20" type="curve"/>
      <point x="285" y="44" type="line"/>
      <point x="257" y="29"/>
      <point x="226" y="17"/>
      <point x="192" y="17" type="curve" smooth="yes"/>
      <point x="132" y="17"/>
      <point x="111" y="53"/>
      <point x="120" y="120" type="curve" smooth="yes"/>
      <point x="195" y="653" type="line"/>
    </contour>
    <contour>
      <point x="61" y="520" type="line"/>
      <point x="57" y="493" type="line"/>
      <point x="311" y="493" type="line"/>
      <point x="319" y="520" type="line"/>
    </contour>
    <contour>
      <point x="157" y="260" type="move" name="center"/>
    </contour>
    <contour>
      <point x="185" y="0" type="move" name="bottom"/>
    </contour>
    <contour>
      <point x="246" y="735" type="move" name="topright"/>
    </contour>
  </outline>
</glyph>
<glyph name="u" format="1">
  <advance width="577"/>
  <unicode hex="0075"/>
  <outline>
    <contour>
      <point x="469" y="520" type="line"/>
      <point x="426.645" y="217.869" type="line"/>
      <point x="375.88" y="102.065"/>
      <point x="304.441" y="18"/>
      <point x="216" y="18" type="curve" smooth="yes"/>
      <point x="148" y="18"/>
      <point x="112" y="58"/>
      <point x="125" y="150" type="curve" smooth="yes"/>
      <point x="177" y="520" type="line"/>
      <point x="147" y="520" type="line"/>
      <point x="95" y="150" type="line" smooth="yes"/>
      <point x="80" y="47"/>
      <point x="126" y="-9.99999"/>
      <point x="213" y="-9.99999" type="curve" smooth="yes"/>
      <point x="305.296" y="-9.99999"/>
      <point x="379.484" y="64.2396"/>
      <point x="421.782" y="162.754" type="curve"/>
      <point x="402" y="0" type="line"/>
      <point x="425" y="0" type="line"/>
      <point x="499" y="520" type="line"/>
    </contour>
    <contour>
      <point x="435" y="0" type="move" name="ogonek"/>
    </contour>
    <contour>
      <point x="323" y="520" type="move" name="top"/>
    </contour>
  </outline>
</glyph>
<glyph name="v" format="1">
  <advance width="452"/>
  <unicode hex="0076"/>
  <outline>
    <contour>
      <point x="434" y="520" type="line"/>
      <point x="196" y="26" type="line"/>
      <point x="89" y="520" type="line"/>
      <point x="57" y="520" type="line"/>
      <point x="173" y="0" type="line"/>
      <point x="213" y="0" type="line"/>
      <point x="469" y="520" type="line"/>
    </contour>
  </outline>
</glyph>
<glyph name="w" format="1">
  <advance width="683"/>
  <unicode hex="0077"/>
  <outline>
    <contour>
      <point x="659" y="520" type="line"/>
      <point x="466" y="28" type="line"/>
      <point x="399" y="520" type="line"/>
      <point x="361" y="520" type="line"/>
      <point x="156" y="29" type="line"/>
      <point x="97" y="520" type="line"/>
      <point x="67" y="520" type="line"/>
      <point x="131" y="0" type="line"/>
      <point x="172" y="0" type="line"/>
      <point x="376" y="490" type="line"/>
      <point x="443" y="0" type="line"/>
      <point x="482" y="0" type="line"/>
      <point x="690" y="520" type="line"/>
    </contour>
    <contour>
      <point x="379" y="520" type="move" name="top"/>
    </contour>
  </outline>
</glyph>
<glyph name="y" format="1">
  <advance width="448"/>
  <unicode hex="0079"/>
  <outline>
    <contour>
      <point x="431" y="520" type="line"/>
      <point x="192" y="22" type="line"/>
      <point x="89" y="520" type="line"/>
      <point x="57" y="520" type="line"/>
      <point x="168" y="0" type="line"/>
      <point x="181" y="1" type="line"/>
      <point x="130" y="-99"/>
      <point x="101" y="-142"/>
      <point x="-8" y="-173" type="curve"/>
      <point x="-5" y="-197" type="line"/>
      <point x="111" y="-165"/>
      <point x="155" y="-118"/>
      <point x="211" y="-3" type="curve" smooth="yes"/>
      <point x="465" y="520" type="line"/>
    </contour>
    <contour>
      <point x="253" y="520" type="move" name="top"/>
    </contour>
  </outline>
</glyph>
<glyph name="z" format="1">
  <advance width="410"/>
  <unicode hex="007A"/>
  <outline>
    <contour>
      <point x="92" y="520" type="line"/>
      <point x="88" y="492" type="line"/>
      <point x="369" y="492" type="line"/>
      <point x="-3" y="25" type="line"/>
      <point x="-7" y="0" type="line"/>
      <point x="329" y="0" type="line"/>
      <point x="336" y="28" type="line"/>
      <point x="37" y="28" type="line"/>
      <point x="408" y="495" type="line"/>
      <point x="412" y="520" type="line"/>
    </contour>
    <contour>
      <point x="251" y="520" type="move" name="top"/>
    </contour>
  </outline>
</glyph>
<glyph name="braceleft" format="1">
  <advance width="329"/>
  <unicode hex="007B"/>
  <outline>
    <contour>
      <point x="261" y="822"/>
      <point x="216" y="791"/>
      <point x="205" y="717" type="curve" smooth="yes"/>
      <point x="166" y="435" type="line" smooth="yes"/>
      <point x="158" y="382"/>
      <point x="120" y="363"/>
      <point x="73" y="363" type="curve"/>
      <point x="70" y="335" type="line"/>
      <point x="119" y="335"/>
      <point x="149" y="318"/>
      <point x="142" y="265" type="curve" smooth="yes"/>
      <point x="102" y="-17" type="line" smooth="yes"/>
      <point x="92" y="-91"/>
      <point x="134" y="-124"/>
      <point x="196" y="-124" type="curve"/>
      <point x="197" y="-101" type="line"/>
      <point x="137" y="-101"/>
      <point x="121" y="-73"/>
      <point x="129" y="-14" type="curve" smooth="yes"/>
      <point x="167" y="251" type="line" smooth="yes"/>
      <point x="177" y="319"/>
      <point x="154" y="339"/>
      <point x="106" y="349" type="curve"/>
      <point x="159" y="359"/>
      <point x="185" y="379"/>
      <point x="194" y="445" type="curve" smooth="yes"/>
      <point x="231" y="710" type="line" smooth="yes"/>
      <point x="240" y="769"/>
      <point x="266" y="799"/>
      <point x="326" y="799" type="curve"/>
      <point x="327" y="822" type="line"/>
    </contour>
  </outline>
</glyph>
<glyph name="braceright" format="1">
  <advance width="329"/>
  <unicode hex="007D"/>
  <outline>
    <contour>
      <point x="93" y="-124"/>
      <point x="138" y="-93"/>
      <point x="149" y="-19" type="curve" smooth="yes"/>
      <point x="188" y="263" type="line" smooth="yes"/>
      <point x="196" y="316"/>
      <point x="234" y="335"/>
      <point x="281" y="335" type="curve"/>
      <point x="284" y="363" type="line"/>
      <point x="235" y="363"/>
      <point x="205" y="380"/>
      <point x="212" y="433" type="curve" smooth="yes"/>
      <point x="252" y="715" type="line" smooth="yes"/>
      <point x="262" y="789"/>
      <point x="220" y="822"/>
      <point x="158" y="822" type="curve"/>
      <point x="157" y="799" type="line"/>
      <point x="217" y="799"/>
      <point x="233" y="771"/>
      <point x="225" y="712" type="curve" smooth="yes"/>
      <point x="187" y="447" type="line" smooth="yes"/>
      <point x="177" y="379"/>
      <point x="200" y="359"/>
      <point x="248" y="349" type="curve"/>
      <point x="195" y="339"/>
      <point x="169" y="319"/>
      <point x="160" y="253" type="curve" smooth="yes"/>
      <point x="123" y="-12" type="line" smooth="yes"/>
      <point x="114" y="-71"/>
      <point x="88" y="-101"/>
      <point x="28" y="-101" type="curve"/>
      <point x="27" y="-124" type="line"/>
    </contour>
  </outline>
</glyph>
<glyph name="asciitilde" format="1">
  <advance width="458"/>
  <unicode hex="007E"/>
  <outline>
    <contour>
      <point x="125" y="360"/>
      <point x="101" y="338"/>
      <point x="71" y="302" type="curve"/>
      <point x="90" y="288" type="line"/>
      <point x="114" y="313"/>
      <point x="131" y="330"/>
      <point x="166" y="330" type="curve"/>
      <point x="212" y="330"/>
      <point x="256" y="275"/>
      <point x="311" y="275" type="curve" smooth="yes"/>
      <point x="350" y="275"/>
      <point x="373" y="297"/>
      <point x="403" y="333" type="curve"/>
      <point x="384" y="347" type="line"/>
      <point x="360" y="322"/>
      <point x="344" y="305"/>
      <point x="311" y="305" type="curve" smooth="yes"/>
      <point x="264" y="305"/>
      <point x="225" y="360"/>
      <point x="166" y="360" type="curve"/>
    </contour>
  </outline>
</glyph>
<glyph name="exclamdown" format="1">
  <advance width="240"/>
  <unicode hex="00A1"/>
  <outline>
    <contour>
      <point x="107" y="251" type="line"/>
      <point x="44" y="-193" type="line"/>
      <point x="73" y="-193" type="line"/>
      <point x="136" y="251" type="line"/>
    </contour>
    <component base="period" xOffset="91" yOffset="409"/>
  </outline>
</glyph>
<glyph name="cent" format="1">
  <advance width="462"/>
  <unicode hex="00A2"/>
  <outline>
    <contour>
      <point x="318" y="677" type="line"/>
      <point x="297" y="527" type="line"/>
      <point x="323" y="527" type="line"/>
      <point x="344" y="677" type="line"/>
    </contour>
    <contour>
      <point x="201" y="-147" type="line"/>
      <point x="228" y="-147" type="line"/>
      <point x="248" y="-6" type="line"/>
      <point x="220" y="-7" type="line"/>
    </contour>
    <component base="c"/>
  </outline>
</glyph>
<glyph name="sterling" format="1">
  <advance width="505"/>
  <unicode hex="00A3"/>
  <outline>
    <contour>
      <point x="253" y="674"/>
      <point x="192" y="599"/>
      <point x="179" y="506" type="curve" smooth="yes"/>
      <point x="159" y="367" type="line"/>
      <point x="94" y="367" type="line"/>
      <point x="90" y="339" type="line"/>
      <point x="156" y="339" type="line"/>
      <point x="128" y="143" type="line" smooth="yes"/>
      <point x="119" y="82"/>
      <point x="90" y="58"/>
      <point x="26" y="28" type="curve"/>
      <point x="23" y="0" type="line"/>
      <point x="397" y="0" type="line"/>
      <point x="406" y="29" type="line"/>
      <point x="72" y="29" type="line"/>
      <point x="123" y="53"/>
      <point x="148" y="76"/>
      <point x="158" y="143" type="curve" smooth="yes"/>
      <point x="185" y="339" type="line"/>
      <point x="404" y="339" type="line"/>
      <point x="408" y="367" type="line"/>
      <point x="189" y="367" type="line"/>
      <point x="208" y="503" type="line" smooth="yes"/>
      <point x="220" y="584"/>
      <point x="271" y="646"/>
      <point x="358" y="646" type="curve" smooth="yes"/>
      <point x="415" y="646"/>
      <point x="447" y="626"/>
      <point x="476" y="587" type="curve"/>
      <point x="498" y="604" type="line"/>
      <point x="464" y="650"/>
      <point x="423" y="674"/>
      <point x="358" y="674" type="curve" smooth="yes"/>
    </contour>
  </outline>
</glyph>
<glyph name="yen" format="1">
  <advance width="492"/>
  <unicode hex="00A5"/>
  <outline>
    <contour>
      <point x="493" y="662" type="line"/>
      <point x="257" y="333" type="line"/>
      <point x="112" y="662" type="line"/>
      <point x="76" y="662" type="line"/>
      <point x="239" y="310" type="line"/>
      <point x="195" y="0" type="line"/>
      <point x="226" y="0" type="line"/>
      <point x="270" y="309" type="line"/>
      <point x="528" y="662" type="line"/>
    </contour>
    <contour>
      <point x="89" y="191" type="line"/>
      <point x="85" y="162" type="line"/>
      <point x="382" y="162" type="line"/>
      <point x="386" y="191" type="line"/>
    </contour>
    <contour>
      <point x="109" y="332" type="line"/>
      <point x="105" y="304" type="line"/>
      <point x="402" y="304" type="line"/>
      <point x="406" y="332" type="line"/>
    </contour>
  </outline>
</glyph>
<glyph name="brokenbar" format="1">
  <advance width="410"/>
  <unicode hex="00A6"/>
  <outline>
    <contour>
      <point x="190" y="262" type="line"/>
      <point x="140" y="-99" type="line"/>
      <point x="170" y="-99" type="line"/>
      <point x="220" y="262" type="line"/>
    </contour>
    <contour>
      <point x="266" y="802" type="line"/>
      <point x="216" y="443" type="line"/>
      <point x="246" y="443" type="line"/>
      <point x="296" y="802" type="line"/>
    </contour>
  </outline>
</glyph>
<glyph name="dieresis" format="1">
  <advance width="284"/>
  <unicode hex="00A8"/>
  <outline>
    <contour>
      <point x="276" y="720"/>
      <point x="265" y="710"/>
      <point x="263" y="697" type="curve" smooth="yes"/>
      <point x="261" y="682"/>
      <point x="271" y="670"/>
      <point x="288" y="670" type="curve" smooth="yes"/>
      <point x="302" y="670"/>
      <point x="312" y="680"/>
      <point x="314" y="693" type="curve" smooth="yes"/>
      <point x="316" y="708"/>
      <point x="307" y="720"/>
      <point x="291" y="720" type="curve" smooth="yes"/>
    </contour>
    <contour>
      <point x="104" y="720"/>
      <point x="93" y="710"/>
      <point x="91" y="697" type="curve" smooth="yes"/>
      <point x="89" y="682"/>
      <point x="99" y="670"/>
      <point x="115" y="670" type="curve" smooth="yes"/>
      <point x="130" y="670"/>
      <point x="140" y="680"/>
      <point x="142" y="693" type="curve" smooth="yes"/>
      <point x="144" y="708"/>
      <point x="135" y="720"/>
      <point x="118" y="720" type="curve" smooth="yes"/>
    </contour>
    <contour>
      <point x="195" y="640" type="move" name="top"/>
    </contour>
    <contour>
      <point x="186" y="520" type="move" name="_top"/>
    </contour>
  </outline>
</glyph>
<glyph name="copyright" format="1">
  <advance width="810"/>
  <unicode hex="00A9"/>
  <outline>
    <contour>
      <point x="243" y="726"/>
      <point x="122" y="605"/>
      <point x="122" y="435" type="curve" smooth="yes"/>
      <point x="122" y="263"/>
      <point x="243" y="144"/>
      <point x="405" y="144" type="curve"/>
      <point x="567" y="144"/>
      <point x="688" y="265"/>
      <point x="688" y="435" type="curve" smooth="yes"/>
      <point x="688" y="607"/>
      <point x="567" y="726"/>
      <point x="405" y="726" type="curve"/>
    </contour>
    <contour>
      <point x="344" y="608"/>
      <point x="270" y="557"/>
      <point x="270" y="437" type="curve" smooth="yes"/>
      <point x="270" y="331"/>
      <point x="326" y="262"/>
      <point x="406" y="262" type="curve" smooth="yes"/>
      <point x="449" y="262"/>
      <point x="481" y="278"/>
      <point x="504" y="296" type="curve"/>
      <point x="490" y="318" type="line"/>
      <point x="469" y="303"/>
      <point x="446" y="290"/>
      <point x="407" y="290" type="curve" smooth="yes"/>
      <point x="347" y="290"/>
      <point x="301" y="337"/>
      <point x="301" y="437" type="curve" smooth="yes"/>
      <point x="301" y="549"/>
      <point x="363" y="580"/>
      <point x="406" y="580" type="curve" smooth="yes"/>
      <point x="440" y="580"/>
      <point x="459" y="572"/>
      <point x="480" y="557" type="curve"/>
      <point x="495" y="578" type="line"/>
      <point x="470" y="597"/>
      <point x="444" y="608"/>
      <point x="406" y="608" type="curve" smooth="yes"/>
    </contour>
    <contour>
      <point x="551" y="698"/>
      <point x="657" y="593"/>
      <point x="657" y="435" type="curve" smooth="yes"/>
      <point x="657" y="280"/>
      <point x="551" y="172"/>
      <point x="406" y="172" type="curve"/>
      <point x="259" y="172"/>
      <point x="153" y="277"/>
      <point x="153" y="435" type="curve" smooth="yes"/>
      <point x="153" y="590"/>
      <point x="259" y="698"/>
      <point x="406" y="698" type="curve"/>
    </contour>
  </outline>
</glyph>
<glyph name="ordfeminine" format="1">
  <advance width="500"/>
  <unicode hex="00AA"/>
  <outline>
    <contour>
      <point x="259" y="682"/>
      <point x="221" y="672"/>
      <point x="178" y="657" type="curve"/>
      <point x="185" y="631" type="line"/>
      <point x="226" y="645"/>
      <point x="264" y="654"/>
      <point x="301" y="654" type="curve" smooth="yes"/>
      <point x="367" y="654"/>
      <point x="390" y="633"/>
      <point x="390" y="587" type="curve" smooth="yes"/>
      <point x="390" y="579"/>
      <point x="389" y="571"/>
      <point x="388" y="561" type="curve"/>
      <point x="382" y="518" type="line"/>
      <point x="290" y="518" type="line" smooth="yes"/>
      <point x="184" y="518"/>
      <point x="108" y="467"/>
      <point x="108" y="382" type="curve" smooth="yes"/>
      <point x="108" y="321"/>
      <point x="149" y="276"/>
      <point x="222" y="276" type="curve" smooth="yes"/>
      <point x="278" y="276"/>
      <point x="324" y="298"/>
      <point x="361" y="342" type="curve"/>
      <point x="361" y="299"/>
      <point x="376" y="286"/>
      <point x="406" y="276" type="curve"/>
      <point x="414" y="297" type="line"/>
      <point x="385" y="310"/>
      <point x="386" y="334"/>
      <point x="391" y="367" type="curve" smooth="yes"/>
      <point x="418" y="562" type="line"/>
      <point x="419" y="572"/>
      <point x="420" y="581"/>
      <point x="420" y="590" type="curve" smooth="yes"/>
      <point x="420" y="651"/>
      <point x="383" y="682"/>
      <point x="301" y="682" type="curve" smooth="yes"/>
    </contour>
    <contour>
      <point x="363" y="382" type="line"/>
      <point x="330" y="335"/>
      <point x="283" y="304"/>
      <point x="222" y="304" type="curve" smooth="yes"/>
      <point x="171" y="304"/>
      <point x="139" y="336"/>
      <point x="139" y="382" type="curve" smooth="yes"/>
      <point x="139" y="435"/>
      <point x="174" y="490"/>
      <point x="294" y="490" type="curve" smooth="yes"/>
      <point x="378" y="490" type="line"/>
    </contour>
    <component base="minus" xOffset="-34" yOffset="-316"/>
  </outline>
</glyph>
<glyph name="logicalnot" format="1">
  <advance width="498"/>
  <unicode hex="00AC"/>
  <outline>
    <contour>
      <point x="86" y="335" type="line"/>
      <point x="81" y="305" type="line"/>
      <point x="397" y="305" type="line"/>
      <point x="381" y="191" type="line"/>
      <point x="413" y="191" type="line"/>
      <point x="434" y="335" type="line"/>
    </contour>
  </outline>
</glyph>
<glyph name="macron" format="1">
  <advance width="274"/>
  <unicode hex="00AF"/>
  <outline>
    <contour>
      <point x="308" y="712" type="line"/>
      <point x="94" y="712" type="line"/>
      <point x="89" y="683" type="line"/>
      <point x="303" y="683" type="line"/>
    </contour>
    <contour>
      <point x="174" y="520" type="move" name="_top"/>
    </contour>
  </outline>
</glyph>
<glyph name="degree" format="1">
  <advance width="519"/>
  <unicode hex="00B0"/>
  <outline>
    <contour>
      <point x="182" y="435"/>
      <point x="142" y="483"/>
      <point x="151" y="548" type="curve" smooth="yes"/>
      <point x="161" y="616"/>
      <point x="216" y="664"/>
      <point x="278" y="664" type="curve" smooth="yes"/>
      <point x="345" y="664"/>
      <point x="378" y="618"/>
      <point x="369" y="551" type="curve" smooth="yes"/>
      <point x="360" y="485"/>
      <point x="311" y="435"/>
      <point x="242" y="435" type="curve" smooth="yes"/>
    </contour>
    <contour>
      <point x="319" y="407"/>
      <point x="388" y="463"/>
      <point x="399" y="547" type="curve" smooth="yes"/>
      <point x="412" y="636"/>
      <point x="357" y="692"/>
      <point x="278" y="692" type="curve" smooth="yes"/>
      <point x="208" y="692"/>
      <point x="133" y="637"/>
      <point x="121" y="552" type="curve" smooth="yes"/>
      <point x="108" y="461"/>
      <point x="170" y="407"/>
      <point x="242" y="407" type="curve" smooth="yes"/>
    </contour>
  </outline>
</glyph>
<glyph name="acute" format="1">
  <advance width="255"/>
  <unicode hex="00B4"/>
  <outline>
    <contour>
      <point x="88" y="672" type="line"/>
      <point x="96" y="651" type="line"/>
      <point x="290" y="735" type="line"/>
      <point x="280" y="767" type="line"/>
    </contour>
    <contour>
      <point x="174" y="520" type="move" name="_top"/>
    </contour>
  </outline>
</glyph>
<glyph name="cedilla" format="1">
  <advance width="221"/>
  <unicode hex="00B8"/>
  <outline>
    <contour>
      <point x="44" y="16" type="line"/>
      <point x="22" y="-93" type="line"/>
      <point x="84" y="-94"/>
      <point x="105" y="-107"/>
      <point x="104" y="-138" type="curve" smooth="yes"/>
      <point x="103" y="-172"/>
      <point x="69" y="-189"/>
      <point x="36" y="-189" type="curve" smooth="yes"/>
      <point x="11" y="-189"/>
      <point x="-7" y="-182"/>
      <point x="-19" y="-174" type="curve"/>
      <point x="-34" y="-197" type="line"/>
      <point x="-18" y="-207"/>
      <point x="3" y="-216"/>
      <point x="36" y="-216" type="curve" smooth="yes"/>
      <point x="86" y="-216"/>
      <point x="136" y="-183"/>
      <point x="136" y="-134" type="curve" smooth="yes"/>
      <point x="136" y="-94"/>
      <point x="109" y="-75"/>
      <point x="52" y="-71" type="curve"/>
      <point x="66" y="16" type="line"/>
    </contour>
    <contour>
      <point x="55" y="0" type="move" name="_bottom"/>
    </contour>
  </outline>
</glyph>
<glyph name="ordmasculine" format="1">
  <advance width="500"/>
  <unicode hex="00BA"/>
  <outline>
    <contour>
      <point x="156" y="682"/>
      <point x="105" y="536"/>
      <point x="105" y="435" type="curve" smooth="yes"/>
      <point x="105" y="335"/>
      <point x="158" y="276"/>
      <point x="251" y="276" type="curve" smooth="yes"/>
      <point x="401" y="276"/>
      <point x="453" y="421"/>
      <point x="453" y="525" type="curve" smooth="yes"/>
      <point x="453" y="628"/>
      <point x="398" y="682"/>
      <point x="305" y="682" type="curve" smooth="yes"/>
    </contour>
    <contour>
      <point x="381" y="655"/>
      <point x="422" y="611"/>
      <point x="422" y="527" type="curve" smooth="yes"/>
      <point x="422" y="441"/>
      <point x="385" y="304"/>
      <point x="252" y="304" type="curve" smooth="yes"/>
      <point x="178" y="304"/>
      <point x="136" y="350"/>
      <point x="136" y="435" type="curve" smooth="yes"/>
      <point x="136" y="521"/>
      <point x="174" y="655"/>
      <point x="306" y="655" type="curve" smooth="yes"/>
    </contour>
    <component base="minus" xOffset="-37" yOffset="-316"/>
  </outline>
</glyph>
<glyph name="questiondown" format="1">
  <advance width="438"/>
  <unicode hex="00BF"/>
  <outline>
    <contour>
      <point x="219" y="-199"/>
      <point x="275" y="-172"/>
      <point x="335" y="-113" type="curve"/>
      <point x="315" y="-94" type="line"/>
      <point x="260" y="-146"/>
      <point x="214" y="-172"/>
      <point x="144" y="-172" type="curve" smooth="yes"/>
      <point x="76" y="-172"/>
      <point x="35" y="-135"/>
      <point x="35" y="-80" type="curve" smooth="yes"/>
      <point x="35" y="71"/>
      <point x="260" y="72"/>
      <point x="260" y="221" type="curve" smooth="yes"/>
      <point x="260" y="240"/>
      <point x="256" y="260"/>
      <point x="250" y="279" type="curve"/>
      <point x="223" y="272" type="line"/>
      <point x="226" y="259"/>
      <point x="230" y="243"/>
      <point x="230" y="221" type="curve" smooth="yes"/>
      <point x="230" y="89"/>
      <point x="4" y="88"/>
      <point x="4" y="-81" type="curve" smooth="yes"/>
      <point x="4" y="-149"/>
      <point x="54" y="-199"/>
      <point x="144" y="-199" type="curve" smooth="yes"/>
    </contour>
    <component base="period" xOffset="305" yOffset="494" xScale="-1" yScale="-1"/>
  </outline>
</glyph>
<glyph name="AE" format="1">
  <advance width="757"/>
  <unicode hex="00C6"/>
  <outline>
    <contour>
      <point x="331" y="682" type="line"/>
      <point x="-28" y="0" type="line"/>
      <point x="5" y="0" type="line"/>
      <point x="349" y="657" type="line"/>
      <point x="428" y="0" type="line"/>
      <point x="680" y="0" type="line"/>
      <point x="685" y="29" type="line"/>
      <point x="455" y="29" type="line"/>
      <point x="378" y="653" type="line"/>
      <point x="715" y="653" type="line"/>
      <point x="723" y="682" type="line"/>
    </contour>
    <contour>
      <point x="114" y="221" type="line"/>
      <point x="97" y="193" type="line"/>
      <point x="411" y="193" type="line"/>
      <point x="408" y="221" type="line"/>
    </contour>
    <contour>
      <point x="404" y="373" type="line"/>
      <point x="408" y="345" type="line"/>
      <point x="669" y="345" type="line"/>
      <point x="673" y="373" type="line"/>
    </contour>
    <contour>
      <point x="501" y="682" type="move" name="top"/>
    </contour>
  </outline>
</glyph>
<glyph name="Eth" format="1">
  <advance width="613"/>
  <unicode hex="00D0"/>
  <outline>
    <contour>
      <point x="131" y="367" type="line"/>
      <point x="40" y="367" type="line"/>
      <point x="36" y="339" type="line"/>
      <point x="348" y="339" type="line"/>
      <point x="352" y="367" type="line"/>
    </contour>
    <component base="D" xOffset="-9"/>
  </outline>
</glyph>
<glyph name="Oslash" format="1">
  <advance width="690"/>
  <unicode hex="00D8"/>
  <outline>
    <contour>
      <point x="487" y="675" type="line"/>
      <point x="480" y="656" type="line"/>
      <point x="209" y="34" type="line"/>
      <point x="201" y="20" type="line"/>
      <point x="145" y="-105" type="line"/>
      <point x="172" y="-114" type="line"/>
      <point x="225" y="9" type="line"/>
      <point x="231" y="27" type="line"/>
      <point x="501" y="648" type="line"/>
      <point x="510" y="664" type="line"/>
      <point x="568" y="794" type="line"/>
      <point x="540" y="803" type="line"/>
    </contour>
    <contour>
      <point x="163" y="692"/>
      <point x="80" y="430"/>
      <point x="80" y="259" type="curve" smooth="yes"/>
      <point x="80" y="85"/>
      <point x="169" y="-10"/>
      <point x="309" y="-10" type="curve" smooth="yes"/>
      <point x="554" y="-10"/>
      <point x="633" y="250"/>
      <point x="633" y="426" type="curve" smooth="yes"/>
      <point x="633" y="601"/>
      <point x="544" y="692"/>
      <point x="405" y="692" type="curve" smooth="yes"/>
    </contour>
    <contour>
      <point x="526" y="664"/>
      <point x="601" y="585"/>
      <point x="601" y="427" type="curve" smooth="yes"/>
      <point x="601" y="270"/>
      <point x="538" y="19"/>
      <point x="309" y="19" type="curve" smooth="yes"/>
      <point x="189" y="19"/>
      <point x="112" y="100"/>
      <point x="112" y="256" type="curve" smooth="yes"/>
      <point x="112" y="415"/>
      <point x="182" y="664"/>
      <point x="404" y="664" type="curve"/>
    </contour>
    <contour>
      <point x="398" y="692" type="move" name="top"/>
    </contour>
    <contour>
      <point x="162" y="682" type="move" name="topleft"/>
    </contour>
  </outline>
</glyph>
<glyph name="Thorn" format="1">
  <advance width="561"/>
  <unicode hex="00DE"/>
  <outline>
    <contour>
      <point x="172" y="556" type="line"/>
      <point x="179" y="527" type="line"/>
      <point x="303" y="527" type="line" smooth="yes"/>
      <point x="424" y="527"/>
      <point x="491" y="492"/>
      <point x="491" y="384" type="curve" smooth="yes"/>
      <point x="491" y="280"/>
      <point x="435" y="173"/>
      <point x="249" y="173" type="curve" smooth="yes"/>
      <point x="132" y="173" type="line"/>
      <point x="128" y="144" type="line"/>
      <point x="244" y="144" type="line" smooth="yes"/>
      <point x="463" y="144"/>
      <point x="522" y="273"/>
      <point x="522" y="385" type="curve" smooth="yes"/>
      <point x="522" y="508"/>
      <point x="443" y="556"/>
      <point x="305" y="556" type="curve" smooth="yes"/>
    </contour>
    <contour>
      <point x="179" y="682" type="line"/>
      <point x="83" y="0" type="line"/>
      <point x="114" y="0" type="line"/>
      <point x="210" y="682" type="line"/>
    </contour>
    <contour>
      <point x="-268" y="-532" type="move" name="top"/>
    </contour>
  </outline>
</glyph>
<glyph name="germandbls" format="1">
  <advance width="573"/>
  <unicode hex="00DF"/>
  <outline>
    <contour>
      <point x="343" y="490"/>
      <point x="493" y="498"/>
      <point x="493" y="626" type="curve" smooth="yes"/>
      <point x="493" y="693"/>
      <point x="439" y="738"/>
      <point x="357" y="738" type="curve" smooth="yes"/>
      <point x="257" y="738"/>
      <point x="173" y="671"/>
      <point x="155" y="542" type="curve"/>
      <point x="80" y="10" type="line" smooth="yes"/>
      <point x="63" y="-107"/>
      <point x="28" y="-136"/>
      <point x="-46" y="-172" type="curve"/>
      <point x="-36" y="-196" type="line"/>
      <point x="50" y="-156"/>
      <point x="91" y="-125"/>
      <point x="109" y="7" type="curve" smooth="yes"/>
      <point x="184" y="536" type="line"/>
      <point x="201" y="657"/>
      <point x="273" y="711"/>
      <point x="357" y="711" type="curve" smooth="yes"/>
      <point x="422" y="711"/>
      <point x="462" y="679"/>
      <point x="462" y="628" type="curve" smooth="yes"/>
      <point x="462" y="505"/>
      <point x="314" y="509"/>
      <point x="314" y="411" type="curve" smooth="yes"/>
      <point x="314" y="318"/>
      <point x="474" y="308"/>
      <point x="474" y="164" type="curve" smooth="yes"/>
      <point x="474" y="112"/>
      <point x="435" y="18"/>
      <point x="325" y="18" type="curve" smooth="yes"/>
      <point x="288" y="18"/>
      <point x="263" y="26"/>
      <point x="234" y="39" type="curve"/>
      <point x="221" y="16" type="line"/>
      <point x="243" y="4"/>
      <point x="283" y="-10"/>
      <point x="326" y="-10" type="curve" smooth="yes"/>
      <point x="454" y="-10"/>
      <point x="504" y="96"/>
      <point x="504" y="164" type="curve" smooth="yes"/>
      <point x="504" y="318"/>
      <point x="343" y="337"/>
      <point x="343" y="411" type="curve" smooth="yes"/>
    </contour>
  </outline>
</glyph>
<glyph name="ae" format="1">
  <advance width="839.556"/>
  <unicode hex="00E6"/>
  <outline>
    <contour>
      <point x="247" y="530"/>
      <point x="198" y="517"/>
      <point x="143" y="496" type="curve"/>
      <point x="152" y="471" type="line"/>
      <point x="204" y="491"/>
      <point x="251" y="503"/>
      <point x="298" y="503" type="curve" smooth="yes"/>
      <point x="380" y="503"/>
      <point x="425" y="453"/>
      <point x="428" y="381" type="curve"/>
      <point x="422" y="369"/>
      <point x="411" y="339"/>
      <point x="401" y="300" type="curve"/>
      <point x="282" y="300" type="line" smooth="yes"/>
      <point x="113" y="300"/>
      <point x="52.9999" y="212"/>
      <point x="52.9999" y="124" type="curve" smooth="yes"/>
      <point x="52.9999" y="44"/>
      <point x="107" y="-10"/>
      <point x="197" y="-10" type="curve" smooth="yes"/>
      <point x="265.85" y="-10"/>
      <point x="332.92" y="16.6865"/>
      <point x="400.729" y="103.616" type="curve"/>
      <point x="425.937" y="29.0717"/>
      <point x="484.759" y="-10"/>
      <point x="568" y="-10" type="curve" smooth="yes"/>
      <point x="634" y="-10"/>
      <point x="685" y="12"/>
      <point x="737" y="51" type="curve"/>
      <point x="721" y="73" type="line"/>
      <point x="671" y="38"/>
      <point x="630" y="18"/>
      <point x="568" y="18" type="curve" smooth="yes"/>
      <point x="479" y="18"/>
      <point x="418" y="67"/>
      <point x="418.299" y="213.41" type="curve"/>
      <point x="654.905" y="227.243"/>
      <point x="796" y="288.237"/>
      <point x="796" y="409" type="curve" smooth="yes"/>
      <point x="796" y="482"/>
      <point x="737" y="530"/>
      <point x="648" y="530" type="curve" smooth="yes"/>
      <point x="549.283" y="530"/>
      <point x="472" y="463"/>
      <point x="450" y="413" type="curve"/>
      <point x="440" y="478"/>
      <point x="394.613" y="530"/>
      <point x="298" y="530" type="curve" smooth="yes"/>
    </contour>
    <contour>
      <point x="386" y="227"/>
      <point x="385" y="176"/>
      <point x="394" y="134" type="curve"/>
      <point x="330" y="50"/>
      <point x="266.353" y="17.9998"/>
      <point x="197" y="17.9998" type="curve" smooth="yes"/>
      <point x="129" y="17.9999"/>
      <point x="83.9998" y="57.9999"/>
      <point x="83.9998" y="124" type="curve" smooth="yes"/>
      <point x="83.9998" y="195"/>
      <point x="130" y="274"/>
      <point x="286" y="274" type="curve" smooth="yes"/>
      <point x="393.923" y="274" type="line"/>
    </contour>
    <contour>
      <point x="724" y="503"/>
      <point x="765" y="464"/>
      <point x="765" y="408" type="curve" smooth="yes"/>
      <point x="765" y="309.87"/>
      <point x="649.064" y="253.988"/>
      <point x="420.115" y="239.379" type="curve"/>
      <point x="432.642" y="363.443"/>
      <point x="501.6" y="503"/>
      <point x="648" y="503" type="curve" smooth="yes"/>
    </contour>
    <contour>
      <point x="462" y="520" type="move" name="top"/>
    </contour>
  </outline>
</glyph>
<glyph name="eth" format="1">
  <advance width="553.783"/>
  <unicode hex="00F0"/>
  <outline>
    <contour>
      <point x="444" y="733" type="line"/>
      <point x="426" y="750" type="line"/>
      <point x="347.335" y="678.486" type="line"/>
      <point x="305.934" y="708.636"/>
      <point x="259.967" y="729.46"/>
      <point x="214" y="739" type="curve"/>
      <point x="206" y="713" type="line"/>
      <point x="249.6" y="704.102"/>
      <point x="295.576" y="681.744"/>
      <point x="327.018" y="660.017" type="curve"/>
      <point x="231" y="572" type="line"/>
      <point x="254" y="563" type="line"/>
      <point x="345.963" y="644.968" type="line"/>
      <point x="421" y="576"/>
      <point x="452" y="501"/>
      <point x="451.417" y="372.809" type="curve"/>
      <point x="412.106" y="428.372"/>
      <point x="358.643" y="463"/>
      <point x="287" y="463" type="curve" smooth="yes"/>
      <point x="123" y="463"/>
      <point x="61.9999" y="308"/>
      <point x="61.9999" y="177" type="curve" smooth="yes"/>
      <point x="61.9999" y="63"/>
      <point x="120" y="-9.9998"/>
      <point x="233" y="-9.9998" type="curve" smooth="yes"/>
      <point x="351" y="-9.9998"/>
      <point x="444" y="83"/>
      <point x="473" y="290" type="curve" smooth="yes"/>
      <point x="478" y="326"/>
      <point x="481" y="360"/>
      <point x="481" y="391" type="curve" smooth="yes"/>
      <point x="481" y="520.393"/>
      <point x="436.419" y="602.233"/>
      <point x="366.979" y="663.144" type="curve"/>
    </contour>
    <contour>
      <point x="142" y="18"/>
      <point x="92.9999" y="76"/>
      <point x="92.9999" y="177" type="curve" smooth="yes"/>
      <point x="92.9999" y="298"/>
      <point x="145" y="435"/>
      <point x="289" y="435" type="curve" smooth="yes"/>
      <point x="353.789" y="435"/>
      <point x="406.777" y="398.689"/>
      <point x="447.963" y="338.175" type="curve"/>
      <point x="447" y="329"/>
      <point x="446" y="313"/>
      <point x="443" y="294" type="curve" smooth="yes"/>
      <point x="417" y="111"/>
      <point x="341" y="18"/>
      <point x="233" y="18" type="curve" smooth="yes"/>
    </contour>
  </outline>
</glyph>
<glyph name="oslash" format="1">
  <advance width="561"/>
  <unicode hex="00F8"/>
  <outline>
    <contour>
      <point x="389.031" y="518.067" type="line"/>
      <point x="367.768" y="525.977"/>
      <point x="343.659" y="530"/>
      <point x="317" y="530" type="curve" smooth="yes"/>
      <point x="128" y="530"/>
      <point x="65" y="331"/>
      <point x="65" y="197" type="curve" smooth="yes"/>
      <point x="65" y="108.799"/>
      <point x="94.9194" y="45.5318"/>
      <point x="148.958" y="13.6054" type="curve"/>
      <point x="88" y="-113" type="line"/>
      <point x="113" y="-121" type="line"/>
      <point x="173.511" y="1.8845" type="line"/>
      <point x="194.349" y="-5.9522"/>
      <point x="217.923" y="-9.9998"/>
      <point x="244" y="-9.9998" type="curve" smooth="yes"/>
      <point x="436" y="-9.9998"/>
      <point x="496" y="196"/>
      <point x="496" y="327" type="curve" smooth="yes"/>
      <point x="496" y="414.336"/>
      <point x="466.669" y="474.968"/>
      <point x="414.381" y="506" type="curve"/>
      <point x="473" y="634" type="line"/>
      <point x="447" y="642" type="line"/>
    </contour>
    <contour>
      <point x="339.892" y="503"/>
      <point x="360.345" y="499.4"/>
      <point x="378.206" y="492.325" type="curve"/>
      <point x="163.291" y="38.9431" type="line"/>
      <point x="119.795" y="66.2364"/>
      <point x="95.9999" y="119.661"/>
      <point x="95.9999" y="196" type="curve"/>
      <point x="95.9998" y="312"/>
      <point x="147" y="503"/>
      <point x="317" y="503" type="curve" smooth="yes"/>
    </contour>
    <contour>
      <point x="442.224" y="453.998"/>
      <point x="465" y="401.387"/>
      <point x="465" y="326" type="curve" smooth="yes"/>
      <point x="465" y="204"/>
      <point x="411" y="18"/>
      <point x="244" y="18" type="curve" smooth="yes"/>
      <point x="222.086" y="18"/>
      <point x="202.347" y="21.4248"/>
      <point x="184.959" y="28.133" type="curve"/>
      <point x="399.771" y="481.298" type="line"/>
    </contour>
    <contour>
      <point x="318" y="520" type="move" name="top"/>
    </contour>
  </outline>
</glyph>
<glyph name="thorn" format="1">
  <advance width="570"/>
  <unicode hex="00FE"/>
  <outline>
    <contour>
      <point x="274" y="530"/>
      <point x="215" y="493"/>
      <point x="170" y="442" type="curve"/>
      <point x="212" y="738" type="line"/>
      <point x="182" y="734" type="line"/>
      <point x="50" y="-199" type="line"/>
      <point x="81" y="-195" type="line"/>
      <point x="110" y="16" type="line"/>
      <point x="155" y="-3"/>
      <point x="198" y="-10"/>
      <point x="243" y="-10" type="curve" smooth="yes"/>
      <point x="442" y="-10"/>
      <point x="501" y="200"/>
      <point x="501" y="339" type="curve" smooth="yes"/>
      <point x="501" y="463"/>
      <point x="447" y="530"/>
      <point x="345" y="530" type="curve" smooth="yes"/>
    </contour>
    <contour>
      <point x="186" y="18"/>
      <point x="150" y="30"/>
      <point x="115" y="43" type="curve"/>
      <point x="165" y="404" type="line"/>
      <point x="217" y="462"/>
      <point x="268" y="502"/>
      <point x="345" y="502" type="curve" smooth="yes"/>
      <point x="428" y="502"/>
      <point x="471" y="448"/>
      <point x="471" y="341" type="curve" smooth="yes"/>
      <point x="471" y="219"/>
      <point x="422" y="18"/>
      <point x="242" y="18" type="curve" smooth="yes"/>
    </contour>
  </outline>
</glyph>
<glyph name="dcroat" format="1">
  <advance width="581"/>
  <unicode hex="0111"/>
  <outline>
    <contour>
      <point x="312" y="652" type="line"/>
      <point x="312" y="625" type="line"/>
      <point x="509" y="625" type="line"/>
      <point x="584" y="625" type="line"/>
      <point x="588" y="652" type="line"/>
    </contour>
    <component base="d"/>
  </outline>
</glyph>
<glyph name="Hbar" format="1">
  <advance width="652"/>
  <unicode hex="0126"/>
  <outline>
    <contour>
      <point x="577" y="542" type="line"/>
      <point x="98" y="542" type="line"/>
      <point x="94" y="518" type="line"/>
      <point x="157" y="518" type="line"/>
      <point x="636" y="518" type="line"/>
      <point x="640" y="542" type="line"/>
    </contour>
    <component base="H"/>
  </outline>
</glyph>
<glyph name="hbar" format="1">
  <advance width="587"/>
  <unicode hex="0127"/>
  <outline>
    <contour>
      <point x="103" y="652" type="line"/>
      <point x="99" y="625" type="line"/>
      <point x="174" y="625" type="line"/>
      <point x="380" y="625" type="line"/>
      <point x="390" y="652" type="line"/>
    </contour>
    <component base="h" xOffset="5"/>
  </outline>
</glyph>
<glyph name="dotlessi" format="1">
  <advance width="260"/>
  <unicode hex="0131"/>
  <outline>
    <contour>
      <point x="152" y="520" type="line"/>
      <point x="78" y="0" type="line"/>
      <point x="108" y="0" type="line"/>
      <point x="182" y="520" type="line"/>
    </contour>
    <contour>
      <point x="118" y="0" type="move" name="ogonek"/>
    </contour>
    <contour>
      <point x="167" y="520" type="move" name="top"/>
    </contour>
  </outline>
</glyph>
<glyph name="kgreenlandic" format="1">
  <advance width="469"/>
  <unicode hex="0138"/>
  <outline>
    <contour>
      <point x="428" y="520" type="line"/>
      <point x="153" y="274" type="line"/>
      <point x="381" y="0" type="line"/>
      <point x="417" y="0" type="line"/>
      <point x="191" y="272" type="line"/>
      <point x="467" y="520" type="line"/>
    </contour>
    <contour>
      <point x="152" y="520" type="line"/>
      <point x="78" y="0" type="line"/>
      <point x="108" y="0" type="line"/>
      <point x="182" y="520" type="line"/>
    </contour>
  </outline>
</glyph>
<glyph name="Lslash" format="1">
  <advance width="466"/>
  <unicode hex="0141"/>
  <outline>
    <contour>
      <point x="130" y="30" type="line"/>
      <point x="171" y="320" type="line"/>
      <point x="400" y="453" type="line"/>
      <point x="389" y="475" type="line"/>
      <point x="175" y="351" type="line"/>
      <point x="221" y="682" type="line"/>
      <point x="190" y="682" type="line"/>
      <point x="141" y="331" type="line"/>
      <point x="50" y="279" type="line"/>
      <point x="61" y="257" type="line"/>
      <point x="137" y="301" type="line"/>
      <point x="94" y="0" type="line"/>
      <point x="408" y="0" type="line"/>
      <point x="419" y="30" type="line"/>
    </contour>
  </outline>
</glyph>
<glyph name="lslash" format="1">
  <advance width="283"/>
  <unicode hex="0142"/>
  <outline>
    <contour>
      <point x="49" y="333" type="line"/>
      <point x="61" y="311" type="line"/>
      <point x="288" y="440" type="line"/>
      <point x="277" y="463" type="line"/>
    </contour>
    <component base="l"/>
  </outline>
</glyph>
<glyph name="eng" format="1">
  <advance width="582"/>
  <unicode hex="014B"/>
  <outline>
    <contour>
      <point x="290" y="530"/>
      <point x="213" y="470"/>
      <point x="159" y="367" type="curve"/>
      <point x="177" y="520" type="line"/>
      <point x="152" y="520" type="line"/>
      <point x="78" y="0" type="line"/>
      <point x="108" y="0" type="line"/>
      <point x="152" y="310" type="line"/>
      <point x="212" y="424"/>
      <point x="285" y="504"/>
      <point x="367" y="504" type="curve" smooth="yes"/>
      <point x="440" y="504"/>
      <point x="470" y="460"/>
      <point x="457" y="367" type="curve" smooth="yes"/>
      <point x="406" y="2" type="line" smooth="yes"/>
      <point x="391" y="-107"/>
      <point x="353" y="-138"/>
      <point x="281" y="-173" type="curve"/>
      <point x="291" y="-196" type="line"/>
      <point x="377" y="-156"/>
      <point x="416" y="-125"/>
      <point x="435" y="6" type="curve" smooth="yes"/>
      <point x="487" y="369" type="line" smooth="yes"/>
      <point x="501" y="471"/>
      <point x="463" y="530"/>
      <point x="370" y="530" type="curve" smooth="yes"/>
    </contour>
  </outline>
</glyph>
<glyph name="OE" format="1">
  <advance width="848"/>
  <unicode hex="0152"/>
  <outline>
    <contour>
      <point x="167" y="692"/>
      <point x="80" y="426"/>
      <point x="80" y="258" type="curve" smooth="yes"/>
      <point x="80" y="85"/>
      <point x="168" y="-10"/>
      <point x="299" y="-10" type="curve" smooth="yes"/>
      <point x="336" y="-10"/>
      <point x="374" y="-1"/>
      <point x="407" y="17" type="curve"/>
      <point x="561" y="83"/>
      <point x="613" y="288"/>
      <point x="613" y="429" type="curve" smooth="yes"/>
      <point x="613" y="548"/>
      <point x="570" y="627"/>
      <point x="496" y="665" type="curve"/>
      <point x="471" y="683"/>
      <point x="435" y="692"/>
      <point x="394" y="692" type="curve" smooth="yes"/>
    </contour>
    <contour>
      <point x="408" y="29" type="line"/>
      <point x="359" y="0" type="line"/>
      <point x="771" y="0" type="line"/>
      <point x="776" y="29" type="line"/>
    </contour>
    <contour>
      <point x="600" y="373" type="line"/>
      <point x="596" y="345" type="line"/>
      <point x="770" y="345" type="line"/>
      <point x="774" y="373" type="line"/>
    </contour>
    <contour>
      <point x="458" y="682" type="line"/>
      <point x="485" y="653" type="line"/>
      <point x="853" y="653" type="line"/>
      <point x="861" y="682" type="line"/>
    </contour>
    <contour>
      <point x="508" y="664"/>
      <point x="582" y="584"/>
      <point x="582" y="431" type="curve" smooth="yes"/>
      <point x="582" y="280"/>
      <point x="516" y="19"/>
      <point x="299" y="19" type="curve" smooth="yes"/>
      <point x="188" y="19"/>
      <point x="112" y="100"/>
      <point x="112" y="255" type="curve" smooth="yes"/>
      <point x="112" y="414"/>
      <point x="185" y="664"/>
      <point x="394" y="664" type="curve"/>
    </contour>
  </outline>
</glyph>
<glyph name="oe" format="1">
  <advance width="908"/>
  <unicode hex="0153"/>
  <outline>
    <contour>
      <point x="128" y="530"/>
      <point x="65" y="331"/>
      <point x="65" y="197" type="curve" smooth="yes"/>
      <point x="65" y="66"/>
      <point x="131" y="-10"/>
      <point x="244" y="-10" type="curve" smooth="yes"/>
      <point x="426" y="-10"/>
      <point x="496" y="196"/>
      <point x="496" y="327" type="curve"/>
      <point x="487" y="468"/>
      <point x="429" y="530"/>
      <point x="317" y="530" type="curve" smooth="yes"/>
    </contour>
    <contour>
      <point x="412" y="503"/>
      <point x="465" y="441"/>
      <point x="465" y="326" type="curve" smooth="yes"/>
      <point x="465" y="204"/>
      <point x="411" y="18"/>
      <point x="244" y="18" type="curve" smooth="yes"/>
      <point x="150" y="18"/>
      <point x="96" y="81"/>
      <point x="96" y="196" type="curve" smooth="yes"/>
      <point x="96" y="312"/>
      <point x="147" y="503"/>
      <point x="317" y="503" type="curve" smooth="yes"/>
    </contour>
    <contour>
      <point x="535" y="530"/>
      <point x="466" y="351"/>
      <point x="456" y="197" type="curve"/>
      <point x="465" y="63"/>
      <point x="524" y="-10"/>
      <point x="637" y="-10" type="curve" smooth="yes"/>
      <point x="703" y="-10"/>
      <point x="754" y="12"/>
      <point x="806" y="51" type="curve"/>
      <point x="790" y="73" type="line"/>
      <point x="740" y="38"/>
      <point x="699" y="18"/>
      <point x="637" y="18" type="curve" smooth="yes"/>
      <point x="548" y="18"/>
      <point x="487" y="73"/>
      <point x="487" y="198" type="curve" smooth="yes"/>
      <point x="487" y="330"/>
      <point x="554" y="503"/>
      <point x="712" y="503" type="curve" smooth="yes"/>
      <point x="793" y="503"/>
      <point x="834" y="464"/>
      <point x="834" y="409" type="curve" smooth="yes"/>
      <point x="834" y="309"/>
      <point x="716" y="253"/>
      <point x="483" y="239" type="curve"/>
      <point x="480" y="213" type="line"/>
      <point x="721" y="226"/>
      <point x="865" y="287"/>
      <point x="865" y="410" type="curve" smooth="yes"/>
      <point x="865" y="482"/>
      <point x="806" y="530"/>
      <point x="712" y="530" type="curve" smooth="yes"/>
    </contour>
    <contour>
      <point x="509" y="520" type="move" name="top"/>
    </contour>
  </outline>
</glyph>
<glyph name="Tbar" format="1">
  <advance width="485"/>
  <unicode hex="0166"/>
  <outline>
    <contour>
      <point x="517" y="652" type="line"/>
      <point x="526" y="682" type="line"/>
      <point x="74" y="682" type="line"/>
      <point x="70" y="652" type="line"/>
      <point x="278" y="652" type="line"/>
      <point x="240" y="382" type="line"/>
      <point x="118" y="382" type="line"/>
      <point x="114" y="354" type="line"/>
      <point x="236" y="354" type="line"/>
      <point x="186" y="0" type="line"/>
      <point x="217" y="0" type="line"/>
      <point x="267" y="354" type="line"/>
      <point x="393" y="354" type="line"/>
      <point x="397" y="382" type="line"/>
      <point x="271" y="382" type="line"/>
      <point x="309" y="652" type="line"/>
    </contour>
  </outline>
</glyph>
<glyph name="tbar" format="1">
  <advance width="325"/>
  <unicode hex="0167"/>
  <outline>
    <contour>
      <point x="124" y="344" type="line"/>
      <point x="41" y="344" type="line"/>
      <point x="37" y="317" type="line"/>
      <point x="278" y="317" type="line"/>
      <point x="287" y="344" type="line"/>
    </contour>
    <component base="t"/>
  </outline>
</glyph>
<glyph name="uni0188" format="1">
  <advance width="462"/>
  <unicode hex="0188"/>
  <outline>
    <contour>
      <point x="133" y="530"/>
      <point x="66" y="332"/>
      <point x="66" y="198" type="curve" smooth="yes"/>
      <point x="66" y="63"/>
      <point x="139" y="-10"/>
      <point x="247" y="-10" type="curve" smooth="yes"/>
      <point x="306" y="-10"/>
      <point x="356" y="10"/>
      <point x="398" y="43" type="curve"/>
      <point x="382" y="65" type="line"/>
      <point x="344" y="37"/>
      <point x="301" y="18"/>
      <point x="248" y="18" type="curve" smooth="yes"/>
      <point x="156" y="18"/>
      <point x="97" y="77"/>
      <point x="97" y="198" type="curve" smooth="yes"/>
      <point x="97" y="319"/>
      <point x="154" y="503"/>
      <point x="319" y="503" type="curve" smooth="yes"/>
      <point x="370" y="503"/>
      <point x="405" y="487"/>
      <point x="437" y="464" type="curve"/>
      <point x="452" y="480" type="line"/>
      <point x="445" y="487"/>
      <point x="438" y="493"/>
      <point x="431" y="498" type="curve"/>
      <point x="401" y="519"/>
      <point x="365" y="530"/>
      <point x="320" y="530" type="curve" smooth="yes"/>
    </contour>
    <contour>
      <point x="471" y="619" type="line" smooth="yes"/>
      <point x="480" y="688"/>
      <point x="518" y="711"/>
      <point x="559" y="711" type="curve" smooth="yes"/>
      <point x="593" y="711"/>
      <point x="614" y="700"/>
      <point x="632" y="687" type="curve"/>
      <point x="649" y="706" type="line"/>
      <point x="630" y="721"/>
      <point x="603" y="738"/>
      <point x="559" y="738" type="curve" smooth="yes"/>
      <point x="499" y="738"/>
      <point x="453" y="701"/>
      <point x="442" y="622" type="curve" smooth="yes"/>
      <point x="424" y="496" type="line"/>
      <point x="452" y="480" type="line"/>
    </contour>
  </outline>
</glyph>
<glyph name="uni0196" format="1">
  <advance width="315"/>
  <unicode hex="0196"/>
  <outline>
    <contour>
      <point x="169" y="682" type="line"/>
      <point x="100" y="189" type="line"/>
      <point x="131" y="189" type="line"/>
      <point x="200" y="682" type="line"/>
    </contour>
    <component base="hookHELPERright.case" xOffset="97" yOffset="189"/>
  </outline>
</glyph>
<glyph name="uni01C3" format="1">
  <advance width="300"/>
  <unicode hex="01C3"/>
  <outline>
    <contour>
      <point x="203" y="734" type="line"/>
      <point x="126" y="193" type="line"/>
      <point x="155" y="193" type="line"/>
      <point x="231" y="738" type="line"/>
    </contour>
    <component base="period" xOffset="62"/>
  </outline>
</glyph>
<glyph name="dotlessj" format="1">
  <advance width="261"/>
  <unicode hex="0237"/>
  <outline>
    <contour>
      <point x="153" y="520" type="line"/>
      <point x="81" y="10" type="line" smooth="yes"/>
      <point x="64" y="-107"/>
      <point x="30" y="-137"/>
      <point x="-44" y="-173" type="curve"/>
      <point x="-35" y="-196" type="line"/>
      <point x="51" y="-156"/>
      <point x="92" y="-125"/>
      <point x="110" y="7" type="curve" smooth="yes"/>
      <point x="183" y="520" type="line"/>
    </contour>
    <contour>
      <point x="167" y="520" type="move" name="top"/>
    </contour>
  </outline>
</glyph>
<glyph name="uni025F" format="1">
  <advance width="288"/>
  <unicode hex="025F"/>
  <outline>
    <contour>
      <point x="64" y="-156"/>
      <point x="105" y="-125"/>
      <point x="123" y="7" type="curve" smooth="yes"/>
      <point x="196" y="520" type="line"/>
      <point x="166" y="520" type="line"/>
      <point x="93" y="4" type="line" smooth="yes"/>
      <point x="77" y="-107"/>
      <point x="43" y="-137"/>
      <point x="-31" y="-173" type="curve"/>
      <point x="-22" y="-196" type="line"/>
    </contour>
    <contour>
      <point x="231" y="0" type="line"/>
      <point x="235" y="25" type="line"/>
      <point x="-14" y="25" type="line"/>
      <point x="-18" y="0" type="line"/>
    </contour>
  </outline>
</glyph>
<glyph name="uni0262" format="1">
  <advance width="551"/>
  <unicode hex="0262"/>
  <outline>
    <contour>
      <point x="168" y="532"/>
      <point x="65" y="376"/>
      <point x="66" y="201" type="curve" smooth="yes"/>
      <point x="66" y="59"/>
      <point x="143" y="-8"/>
      <point x="264" y="-8" type="curve" smooth="yes"/>
      <point x="315" y="-8"/>
      <point x="374" y="5"/>
      <point x="428" y="34" type="curve"/>
      <point x="461" y="277" type="line"/>
      <point x="304" y="277" type="line"/>
      <point x="304" y="249" type="line"/>
      <point x="425" y="249" type="line"/>
      <point x="398" y="50" type="line"/>
      <point x="359" y="31"/>
      <point x="319" y="20"/>
      <point x="264" y="20" type="curve" smooth="yes"/>
      <point x="161" y="20"/>
      <point x="96" y="75"/>
      <point x="96" y="201" type="curve" smooth="yes"/>
      <point x="96" y="359"/>
      <point x="181" y="504"/>
      <point x="331" y="504" type="curve" smooth="yes"/>
      <point x="379" y="504"/>
      <point x="419" y="490"/>
      <point x="456" y="460" type="curve"/>
      <point x="476" y="480" type="line"/>
      <point x="435" y="514"/>
      <point x="391" y="532"/>
      <point x="330" y="532" type="curve" smooth="yes"/>
    </contour>
  </outline>
</glyph>
<glyph name="uni026D" format="1">
  <advance width="261"/>
  <unicode hex="026D"/>
  <outline>
    <contour>
      <point x="181" y="734" type="line"/>
      <point x="78" y="0" type="line"/>
      <point x="108" y="0" type="line"/>
      <point x="211" y="738" type="line"/>
    </contour>
    <component base="hookHELPERright" xOffset="75"/>
  </outline>
</glyph>
<glyph name="uni0278" format="1">
  <advance width="622"/>
  <unicode hex="0278"/>
  <outline>
    <contour>
      <point x="348" y="486" type="line"/>
      <point x="473" y="484"/>
      <point x="537" y="424"/>
      <point x="538" y="311" type="curve" smooth="yes"/>
      <point x="538" y="151"/>
      <point x="447" y="35"/>
      <point x="283" y="34" type="curve"/>
      <point x="283" y="7" type="line"/>
      <point x="465" y="9"/>
      <point x="569" y="132"/>
      <point x="568" y="311" type="curve" smooth="yes"/>
      <point x="568" y="436"/>
      <point x="493" y="511"/>
      <point x="352" y="513" type="curve"/>
    </contour>
    <contour>
      <point x="160" y="511"/>
      <point x="53" y="387"/>
      <point x="53" y="211" type="curve" smooth="yes"/>
      <point x="53" y="84"/>
      <point x="128" y="9"/>
      <point x="269" y="7" type="curve"/>
      <point x="273" y="34" type="line"/>
      <point x="149" y="35"/>
      <point x="84" y="95"/>
      <point x="84" y="211" type="curve" smooth="yes"/>
      <point x="84" y="369"/>
      <point x="175" y="484"/>
      <point x="338" y="486" type="curve"/>
      <point x="338" y="513" type="line"/>
    </contour>
    <contour>
      <point x="364" y="734" type="line"/>
      <point x="331" y="506" type="line"/>
      <point x="329" y="493" type="line"/>
      <point x="264" y="27" type="line"/>
      <point x="261" y="13" type="line"/>
      <point x="231" y="-199" type="line"/>
      <point x="261" y="-193" type="line"/>
      <point x="290" y="13" type="line"/>
      <point x="292" y="27" type="line"/>
      <point x="357" y="493" type="line"/>
      <point x="361" y="506" type="line"/>
      <point x="394" y="739" type="line"/>
    </contour>
  </outline>
</glyph>
<glyph name="uni027B" format="1">
  <advance width="363"/>
  <unicode hex="027B"/>
  <outline>
    <contour>
      <point x="110" y="-10"/>
      <point x="167" y="50"/>
      <point x="201" y="137" type="curve"/>
      <point x="181" y="0" type="line"/>
      <point x="211" y="0" type="line"/>
      <point x="285" y="520" type="line"/>
      <point x="255" y="520" type="line"/>
      <point x="210" y="206" type="line"/>
      <point x="161" y="90"/>
      <point x="111" y="17"/>
      <point x="27" y="17" type="curve" smooth="yes"/>
      <point x="17" y="17"/>
      <point x="0" y="19"/>
      <point x="-13" y="23" type="curve"/>
      <point x="-21" y="-3" type="line"/>
      <point x="-11" y="-6"/>
      <point x="7" y="-10"/>
      <point x="27" y="-10" type="curve" smooth="yes"/>
    </contour>
    <component base="hookHELPERright" xOffset="178"/>
  </outline>
</glyph>
<glyph name="uni0280" format="1">
  <advance width="507"/>
  <unicode hex="0280"/>
  <outline>
    <contour>
      <point x="152" y="520" type="line"/>
      <point x="78" y="0" type="line"/>
      <point x="108" y="0" type="line"/>
      <point x="178" y="492" type="line"/>
      <point x="268" y="492" type="line" smooth="yes"/>
      <point x="393" y="492"/>
      <point x="432" y="451"/>
      <point x="421" y="375" type="curve" smooth="yes"/>
      <point x="410" y="297"/>
      <point x="345" y="255"/>
      <point x="240" y="255" type="curve" smooth="yes"/>
      <point x="137" y="255" type="line"/>
      <point x="134" y="228" type="line"/>
      <point x="277" y="228" type="line"/>
      <point x="369" y="241"/>
      <point x="439" y="283"/>
      <point x="452" y="371" type="curve" smooth="yes"/>
      <point x="465" y="466"/>
      <point x="410" y="520"/>
      <point x="273" y="520" type="curve" smooth="yes"/>
    </contour>
    <contour>
      <point x="257" y="247" type="line"/>
      <point x="384" y="0" type="line"/>
      <point x="420" y="0" type="line"/>
      <point x="289" y="252" type="line"/>
    </contour>
  </outline>
</glyph>
<glyph name="uni0292" format="1">
  <advance width="445"/>
  <unicode hex="0292"/>
  <outline>
    <contour>
      <point x="282" y="-199"/>
      <point x="376" y="-101"/>
      <point x="376" y="39" type="curve" smooth="yes"/>
      <point x="376" y="138"/>
      <point x="315" y="195"/>
      <point x="166" y="195" type="curve" smooth="yes"/>
      <point x="149" y="195" type="line"/>
      <point x="115" y="167" type="line"/>
      <point x="169" y="167" type="line" smooth="yes"/>
      <point x="287" y="167"/>
      <point x="345" y="130"/>
      <point x="345" y="38" type="curve" smooth="yes"/>
      <point x="345" y="-83"/>
      <point x="270" y="-171"/>
      <point x="142" y="-171" type="curve" smooth="yes"/>
      <point x="79" y="-171"/>
      <point x="32" y="-150"/>
      <point x="-12" y="-99" type="curve"/>
      <point x="-33" y="-115" type="line"/>
      <point x="10" y="-167"/>
      <point x="63" y="-199"/>
      <point x="143" y="-199" type="curve" smooth="yes"/>
    </contour>
    <contour>
      <point x="115" y="167" type="line"/>
      <point x="156" y="195" type="line"/>
      <point x="418" y="495" type="line"/>
      <point x="422" y="520" type="line"/>
      <point x="74" y="520" type="line"/>
      <point x="70" y="492" type="line"/>
      <point x="378" y="492" type="line"/>
      <point x="119" y="195" type="line"/>
    </contour>
  </outline>
</glyph>
<glyph name="uni029B" format="1">
  <advance width="550"/>
  <unicode hex="029B"/>
  <outline>
    <contour>
      <point x="495" y="619" type="line" smooth="yes"/>
      <point x="504" y="688"/>
      <point x="542" y="711"/>
      <point x="583" y="711" type="curve" smooth="yes"/>
      <point x="617" y="711"/>
      <point x="638" y="700"/>
      <point x="656" y="687" type="curve"/>
      <point x="673" y="706" type="line"/>
      <point x="654" y="721"/>
      <point x="627" y="738"/>
      <point x="583" y="738" type="curve" smooth="yes"/>
      <point x="523" y="738"/>
      <point x="477" y="701"/>
      <point x="466" y="622" type="curve" smooth="yes"/>
      <point x="448" y="496" type="line"/>
      <point x="476" y="480" type="line"/>
    </contour>
    <contour>
      <point x="168" y="532"/>
      <point x="65" y="376"/>
      <point x="66" y="201" type="curve" smooth="yes"/>
      <point x="66" y="59"/>
      <point x="143" y="-8"/>
      <point x="264" y="-8" type="curve" smooth="yes"/>
      <point x="315" y="-8"/>
      <point x="374" y="5"/>
      <point x="428" y="34" type="curve"/>
      <point x="461" y="277" type="line"/>
      <point x="304" y="277" type="line"/>
      <point x="304" y="249" type="line"/>
      <point x="425" y="249" type="line"/>
      <point x="398" y="50" type="line"/>
      <point x="359" y="31"/>
      <point x="319" y="20"/>
      <point x="264" y="20" type="curve" smooth="yes"/>
      <point x="161" y="20"/>
      <point x="96" y="75"/>
      <point x="96" y="201" type="curve" smooth="yes"/>
      <point x="96" y="359"/>
      <point x="181" y="504"/>
      <point x="331" y="504" type="curve" smooth="yes"/>
      <point x="379" y="504"/>
      <point x="419" y="490"/>
      <point x="459" y="463" type="curve"/>
      <point x="476" y="480" type="line"/>
      <point x="470" y="485"/>
      <point x="463" y="490"/>
      <point x="457" y="494" type="curve"/>
      <point x="424" y="518"/>
      <point x="382" y="532"/>
      <point x="330" y="532" type="curve" smooth="yes"/>
    </contour>
  </outline>
</glyph>
<glyph name="uni02A7" format="1">
  <advance width="548"/>
  <unicode hex="02A7"/>
  <outline>
    <contour>
      <point x="172" y="650" type="line"/>
      <point x="145" y="510" type="line"/>
      <point x="93" y="139" type="line" smooth="yes"/>
      <point x="79" y="38"/>
      <point x="127" y="-10"/>
      <point x="220" y="-10" type="curve" smooth="yes"/>
      <point x="282" y="-10"/>
      <point x="329" y="5"/>
      <point x="389" y="30" type="curve"/>
      <point x="377" y="52" type="line"/>
      <point x="320" y="30"/>
      <point x="280" y="18"/>
      <point x="220" y="18" type="curve" smooth="yes"/>
      <point x="143" y="18"/>
      <point x="111" y="57"/>
      <point x="123" y="139" type="curve" smooth="yes"/>
      <point x="195" y="653" type="line"/>
    </contour>
    <contour>
      <point x="61" y="520" type="line"/>
      <point x="57" y="493" type="line"/>
      <point x="440" y="493" type="line"/>
      <point x="449" y="520" type="line"/>
    </contour>
    <component base="uni0283" xOffset="282"/>
  </outline>
</glyph>
<glyph name="caron" format="1">
  <advance width="325"/>
  <unicode hex="02C7"/>
  <outline>
    <contour>
      <point x="220" y="671" type="line"/>
      <point x="113" y="756" type="line"/>
      <point x="97" y="738" type="line"/>
      <point x="208" y="638" type="line"/>
      <point x="224" y="638" type="line"/>
      <point x="362" y="738" type="line"/>
      <point x="348" y="756" type="line"/>
    </contour>
    <contour>
      <point x="194" y="517" type="move" name="_top"/>
    </contour>
  </outline>
</glyph>
<glyph name="ring" format="1">
  <advance width="228"/>
  <unicode hex="02DA"/>
  <outline>
    <contour>
      <point x="141" y="808"/>
      <point x="102" y="776"/>
      <point x="95" y="726" type="curve" smooth="yes"/>
      <point x="88" y="678"/>
      <point x="119" y="640"/>
      <point x="171" y="640" type="curve"/>
      <point x="221" y="640"/>
      <point x="260" y="672"/>
      <point x="267" y="722" type="curve" smooth="yes"/>
      <point x="274" y="772"/>
      <point x="243" y="808"/>
      <point x="191" y="808" type="curve"/>
    </contour>
    <contour>
      <point x="226" y="784"/>
      <point x="244" y="761"/>
      <point x="238" y="726" type="curve" smooth="yes"/>
      <point x="231" y="687"/>
      <point x="209" y="664"/>
      <point x="173" y="664" type="curve"/>
      <point x="137" y="664"/>
      <point x="119" y="689"/>
      <point x="124" y="722" type="curve" smooth="yes"/>
      <point x="130" y="761"/>
      <point x="154" y="784"/>
      <point x="189" y="784" type="curve"/>
    </contour>
    <contour>
      <point x="153" y="520" type="move" name="_top"/>
    </contour>
  </outline>
</glyph>
<glyph name="hungarumlaut" format="1">
  <advance width="268"/>
  <unicode hex="02DD"/>
  <outline>
    <contour>
      <point x="190" y="660" type="line"/>
      <point x="211" y="649" type="line"/>
      <point x="311" y="778" type="line"/>
      <point x="282" y="794" type="line"/>
    </contour>
    <contour>
      <point x="87" y="664" type="line"/>
      <point x="107" y="653" type="line"/>
      <point x="200" y="777" type="line"/>
      <point x="171" y="793" type="line"/>
    </contour>
    <contour>
      <point x="136" y="520" type="move" name="_top"/>
    </contour>
  </outline>
</glyph>
<glyph name="acutecomb" format="1">
  <advance width="243"/>
  <unicode hex="0301"/>
  <outline>
    <contour>
      <point x="112" y="656" type="line"/>
      <point x="118" y="635" type="line"/>
      <point x="313" y="711" type="line"/>
      <point x="302" y="743" type="line"/>
    </contour>
    <contour>
      <point x="189" y="520" type="move" name="_top"/>
    </contour>
  </outline>
</glyph>
<glyph name="uni030A" format="1">
  <advance width="228"/>
  <unicode hex="030A"/>
  <outline>
    <component base="ring" xOffset="-10"/>
    <contour>
      <point x="142" y="520" type="move" name="_top"/>
    </contour>
  </outline>
</glyph>
<glyph name="uni030C" format="1">
  <advance width="313"/>
  <unicode hex="030C"/>
  <outline>
    <contour>
      <point x="246" y="665" type="line"/>
      <point x="138" y="744" type="line"/>
      <point x="122" y="726" type="line"/>
      <point x="234" y="632" type="line"/>
      <point x="250" y="632" type="line"/>
      <point x="387" y="726" type="line"/>
      <point x="373" y="744" type="line"/>
    </contour>
    <contour>
      <point x="231" y="520" type="move" name="_top"/>
    </contour>
  </outline>
</glyph>
<glyph name="dotbelowcomb" format="1">
  <advance width="112"/>
  <unicode hex="0323"/>
  <outline>
    <component base="dotaccent" xOffset="-116" yOffset="-827"/>
    <contour>
      <point x="18" y="0" type="move" name="_bottom"/>
    </contour>
    <contour>
      <point x="1" y="-146" type="move" name="bottom"/>
    </contour>
  </outline>
</glyph>
<glyph name="uni0326" format="1">
  <advance width="132"/>
  <unicode hex="0326"/>
  <outline>
    <contour>
      <point x="-4" y="-91"/>
      <point x="-17" y="-106"/>
      <point x="-17" y="-125" type="curve" smooth="yes"/>
      <point x="-17" y="-134"/>
      <point x="-12" y="-146"/>
      <point x="0" y="-152" type="curve"/>
      <point x="-51" y="-265" type="line"/>
      <point x="-30" y="-265" type="line"/>
      <point x="22" y="-180" type="line" smooth="yes"/>
      <point x="42" y="-146"/>
      <point x="48" y="-137"/>
      <point x="48" y="-119" type="curve" smooth="yes"/>
      <point x="48" y="-103"/>
      <point x="36" y="-91"/>
      <point x="18" y="-91" type="curve" smooth="yes"/>
    </contour>
    <contour>
      <point x="33" y="0" type="move" name="_bottom"/>
    </contour>
  </outline>
</glyph>
<glyph name="uni0331" format="1">
  <advance width="275"/>
  <unicode hex="0331"/>
  <outline>
    <component base="macron" xOffset="-116" yOffset="-830"/>
    <contour>
      <point x="91" y="0" type="move" name="_bottom"/>
    </contour>
    <contour>
      <point x="93" y="-157" type="move" name="bottom"/>
    </contour>
  </outline>
</glyph>
<glyph name="Delta" format="1">
  <advance width="568"/>
  <unicode hex="0394"/>
  <outline>
    <contour>
      <point x="468" y="28" type="line"/>
      <point x="33" y="28" type="line"/>
      <point x="341" y="657" type="line"/>
    </contour>
    <contour>
      <point x="324" y="682" type="line"/>
      <point x="-12" y="0" type="line"/>
      <point x="506" y="0" type="line"/>
      <point x="363" y="682" type="line"/>
    </contour>
  </outline>
</glyph>
<glyph name="Theta" format="1">
  <advance width="690"/>
  <unicode hex="0398"/>
  <outline>
    <contour>
      <point x="223" y="365" type="line"/>
      <point x="219" y="337" type="line"/>
      <point x="493" y="337" type="line"/>
      <point x="497" y="365" type="line"/>
    </contour>
    <contour>
      <point x="163" y="692"/>
      <point x="80" y="428"/>
      <point x="80" y="259" type="curve" smooth="yes"/>
      <point x="80" y="85"/>
      <point x="169" y="-10"/>
      <point x="309" y="-10" type="curve" smooth="yes"/>
      <point x="552" y="-10"/>
      <point x="633" y="254"/>
      <point x="633" y="426" type="curve" smooth="yes"/>
      <point x="633" y="601"/>
      <point x="544" y="692"/>
      <point x="404" y="692" type="curve" smooth="yes"/>
    </contour>
    <contour>
      <point x="526" y="663"/>
      <point x="601" y="585"/>
      <point x="601" y="427" type="curve" smooth="yes"/>
      <point x="601" y="270"/>
      <point x="538" y="19"/>
      <point x="309" y="19" type="curve" smooth="yes"/>
      <point x="189" y="19"/>
      <point x="112" y="100"/>
      <point x="112" y="256" type="curve" smooth="yes"/>
      <point x="112" y="415"/>
      <point x="182" y="663"/>
      <point x="404" y="663" type="curve"/>
    </contour>
  </outline>
</glyph>
<glyph name="Lambda" format="1">
  <advance width="558"/>
  <unicode hex="039B"/>
  <outline>
    <contour>
      <point x="319" y="682" type="line"/>
      <point x="-12" y="0" type="line"/>
      <point x="20" y="0" type="line"/>
      <point x="335" y="657" type="line"/>
      <point x="464" y="0" type="line"/>
      <point x="496" y="0" type="line"/>
      <point x="357" y="682" type="line"/>
    </contour>
  </outline>
</glyph>
<glyph name="Xi" format="1">
  <advance width="486"/>
  <unicode hex="039E"/>
  <outline>
    <contour>
      <point x="23" y="31" type="line"/>
      <point x="18" y="0" type="line"/>
      <point x="394" y="0" type="line"/>
      <point x="399" y="31" type="line"/>
    </contour>
    <contour>
      <point x="128" y="374" type="line"/>
      <point x="124" y="344" type="line"/>
      <point x="387" y="344" type="line"/>
      <point x="391" y="374" type="line"/>
    </contour>
    <contour>
      <point x="114" y="682" type="line"/>
      <point x="110" y="653" type="line"/>
      <point x="472" y="653" type="line"/>
      <point x="479" y="682" type="line"/>
    </contour>
  </outline>
</glyph>
<glyph name="Sigma" format="1">
  <advance width="486"/>
  <unicode hex="03A3"/>
  <outline>
    <contour>
      <point x="109" y="682" type="line"/>
      <point x="107" y="666" type="line"/>
      <point x="299" y="339" type="line"/>
      <point x="16" y="16" type="line"/>
      <point x="13" y="0" type="line"/>
      <point x="399" y="0" type="line"/>
      <point x="404" y="29" type="line"/>
      <point x="64" y="29" type="line"/>
      <point x="331" y="333" type="line"/>
      <point x="333" y="345" type="line"/>
      <point x="151" y="653" type="line"/>
      <point x="491" y="653" type="line"/>
      <point x="495" y="682" type="line"/>
    </contour>
  </outline>
</glyph>
<glyph name="Omega" format="1">
  <advance width="690"/>
  <unicode hex="03A9"/>
  <outline>
    <contour>
      <point x="163" y="692"/>
      <point x="80" y="426"/>
      <point x="80" y="257" type="curve" smooth="yes"/>
      <point x="80" y="144"/>
      <point x="121" y="73"/>
      <point x="199" y="30" type="curve"/>
      <point x="65" y="30" type="line"/>
      <point x="60" y="0" type="line"/>
      <point x="245" y="0" type="line"/>
      <point x="249" y="29" type="line"/>
      <point x="160" y="70"/>
      <point x="112" y="140"/>
      <point x="112" y="258" type="curve" smooth="yes"/>
      <point x="112" y="415"/>
      <point x="184" y="664"/>
      <point x="404" y="664" type="curve" smooth="yes"/>
      <point x="527" y="664"/>
      <point x="601" y="585"/>
      <point x="601" y="427" type="curve" smooth="yes"/>
      <point x="601" y="286"/>
      <point x="557" y="95"/>
      <point x="375" y="29" type="curve"/>
      <point x="371" y="0" type="line"/>
      <point x="556" y="0" type="line"/>
      <point x="561" y="30" type="line"/>
      <point x="434" y="30" type="line"/>
      <point x="587" y="98"/>
      <point x="633" y="278"/>
      <point x="633" y="426" type="curve" smooth="yes"/>
      <point x="633" y="601"/>
      <point x="544" y="692"/>
      <point x="404" y="692" type="curve" smooth="yes"/>
    </contour>
    <contour>
      <point x="404" y="682" type="move" name="top"/>
    </contour>
    <contour>
      <point x="88" y="520" type="move" name="topleft"/>
    </contour>
  </outline>
</glyph>
<glyph name="alpha" format="1">
  <advance width="594"/>
  <unicode hex="03B1"/>
  <outline>
    <contour>
      <point x="125" y="530"/>
      <point x="64" y="320"/>
      <point x="64" y="181" type="curve" smooth="yes"/>
      <point x="64" y="53"/>
      <point x="117" y="-10"/>
      <point x="210" y="-10" type="curve" smooth="yes"/>
      <point x="303" y="-10"/>
      <point x="373" y="52"/>
      <point x="426" y="210" type="curve"/>
      <point x="427" y="63" type="line" smooth="yes"/>
      <point x="427" y="17"/>
      <point x="451" y="3"/>
      <point x="477" y="-4" type="curve"/>
      <point x="489" y="23" type="line"/>
      <point x="474" y="28"/>
      <point x="459" y="37"/>
      <point x="458" y="71" type="curve" smooth="yes"/>
      <point x="453" y="271" type="line"/>
      <point x="550" y="520" type="line"/>
      <point x="518" y="520" type="line"/>
      <point x="441" y="311" type="line"/>
      <point x="435" y="483"/>
      <point x="389" y="530"/>
      <point x="289" y="530" type="curve" smooth="yes"/>
    </contour>
    <contour>
      <point x="377" y="503"/>
      <point x="412" y="454"/>
      <point x="424" y="270" type="curve"/>
      <point x="360" y="73"/>
      <point x="288" y="18"/>
      <point x="212" y="18" type="curve" smooth="yes"/>
      <point x="139" y="18"/>
      <point x="95" y="68"/>
      <point x="95" y="181" type="curve" smooth="yes"/>
      <point x="95" y="312"/>
      <point x="150" y="503"/>
      <point x="290" y="503" type="curve" smooth="yes"/>
    </contour>
    <contour>
      <point x="304" y="520" type="move" name="top"/>
    </contour>
  </outline>
</glyph>
<glyph name="beta" format="1">
  <advance width="579"/>
  <unicode hex="03B2"/>
  <outline>
    <contour>
      <point x="259" y="738"/>
      <point x="172" y="669"/>
      <point x="155" y="542" type="curve" smooth="yes"/>
      <point x="50" y="-199" type="line"/>
      <point x="82" y="-195" type="line"/>
      <point x="119" y="67" type="line"/>
      <point x="158" y="13"/>
      <point x="218" y="-10"/>
      <point x="286" y="-10" type="curve" smooth="yes"/>
      <point x="448" y="-10"/>
      <point x="515" y="117"/>
      <point x="515" y="220" type="curve" smooth="yes"/>
      <point x="515" y="332"/>
      <point x="437" y="397"/>
      <point x="329" y="398" type="curve"/>
      <point x="474" y="410"/>
      <point x="519" y="509"/>
      <point x="519" y="591" type="curve" smooth="yes"/>
      <point x="519" y="691"/>
      <point x="443" y="738"/>
      <point x="362" y="738" type="curve" smooth="yes"/>
    </contour>
    <contour>
      <point x="426" y="711"/>
      <point x="488" y="679"/>
      <point x="488" y="591" type="curve" smooth="yes"/>
      <point x="488" y="491"/>
      <point x="418" y="412"/>
      <point x="284" y="412" type="curve" smooth="yes"/>
      <point x="243" y="412" type="line"/>
      <point x="236" y="385" type="line"/>
      <point x="281" y="385" type="line" smooth="yes"/>
      <point x="407" y="385"/>
      <point x="484" y="326"/>
      <point x="484" y="218" type="curve" smooth="yes"/>
      <point x="484" y="131"/>
      <point x="426" y="18"/>
      <point x="285" y="18" type="curve" smooth="yes"/>
      <point x="214" y="18"/>
      <point x="166" y="41"/>
      <point x="124" y="104" type="curve"/>
      <point x="185" y="538" type="line" smooth="yes"/>
      <point x="202" y="656"/>
      <point x="275" y="711"/>
      <point x="362" y="711" type="curve" smooth="yes"/>
    </contour>
  </outline>
</glyph>
<glyph name="gamma" format="1">
  <advance width="445"/>
  <unicode hex="03B3"/>
  <outline>
    <contour>
      <point x="51" y="517" type="line"/>
      <point x="100" y="437"/>
      <point x="138" y="299"/>
      <point x="172" y="12" type="curve"/>
      <point x="131" y="-69"/>
      <point x="126" y="-125"/>
      <point x="153" y="-199" type="curve"/>
      <point x="180" y="-193" type="line"/>
      <point x="157" y="-119"/>
      <point x="167" y="-63"/>
      <point x="207" y="16" type="curve" smooth="yes"/>
      <point x="461" y="518" type="line"/>
      <point x="430" y="525" type="line"/>
      <point x="194" y="46" type="line"/>
      <point x="167" y="329"/>
      <point x="123" y="455"/>
      <point x="80" y="524" type="curve"/>
    </contour>
  </outline>
</glyph>
<glyph name="delta" format="1">
  <advance width="559"/>
  <unicode hex="03B4"/>
  <outline>
    <contour>
      <point x="233" y="738"/>
      <point x="173" y="675"/>
      <point x="173" y="605" type="curve" smooth="yes"/>
      <point x="173" y="550"/>
      <point x="205" y="516"/>
      <point x="271" y="485" type="curve"/>
      <point x="112" y="426"/>
      <point x="64" y="315"/>
      <point x="64" y="189" type="curve" smooth="yes"/>
      <point x="64" y="67"/>
      <point x="131" y="-10"/>
      <point x="245" y="-10" type="curve" smooth="yes"/>
      <point x="436" y="-10"/>
      <point x="489" y="175"/>
      <point x="489" y="287" type="curve" smooth="yes"/>
      <point x="489" y="391"/>
      <point x="437" y="447"/>
      <point x="323" y="492" type="curve" smooth="yes"/>
      <point x="234" y="527"/>
      <point x="204" y="558"/>
      <point x="204" y="605" type="curve" smooth="yes"/>
      <point x="204" y="659"/>
      <point x="244" y="710"/>
      <point x="346" y="710" type="curve" smooth="yes"/>
      <point x="399" y="710"/>
      <point x="441" y="694"/>
      <point x="479" y="663" type="curve"/>
      <point x="499" y="682" type="line"/>
      <point x="458" y="718"/>
      <point x="402" y="738"/>
      <point x="347" y="738" type="curve" smooth="yes"/>
    </contour>
    <contour>
      <point x="415" y="427"/>
      <point x="459" y="380"/>
      <point x="459" y="287" type="curve" smooth="yes"/>
      <point x="459" y="195"/>
      <point x="418" y="18"/>
      <point x="246" y="18" type="curve" smooth="yes"/>
      <point x="150" y="18"/>
      <point x="94" y="84"/>
      <point x="94" y="189" type="curve" smooth="yes"/>
      <point x="94" y="306"/>
      <point x="135" y="412"/>
      <point x="300" y="473" type="curve"/>
    </contour>
  </outline>
</glyph>
<glyph name="epsilon" format="1">
  <advance width="456"/>
  <unicode hex="03B5"/>
  <outline>
    <contour>
      <point x="193" y="530"/>
      <point x="111" y="476"/>
      <point x="111" y="382" type="curve" smooth="yes"/>
      <point x="111" y="325"/>
      <point x="143" y="289"/>
      <point x="206" y="275" type="curve"/>
      <point x="86" y="266"/>
      <point x="53" y="189"/>
      <point x="53" y="130" type="curve" smooth="yes"/>
      <point x="53" y="41"/>
      <point x="121" y="-10"/>
      <point x="218" y="-10" type="curve" smooth="yes"/>
      <point x="296" y="-10"/>
      <point x="350" y="16"/>
      <point x="397" y="52" type="curve"/>
      <point x="381" y="74" type="line"/>
      <point x="332" y="39"/>
      <point x="293" y="18"/>
      <point x="219" y="18" type="curve" smooth="yes"/>
      <point x="137" y="18"/>
      <point x="84" y="57"/>
      <point x="84" y="129" type="curve" smooth="yes"/>
      <point x="84" y="190"/>
      <point x="118" y="259"/>
      <point x="261" y="259" type="curve" smooth="yes"/>
      <point x="317" y="259" type="line"/>
      <point x="325" y="286" type="line"/>
      <point x="266" y="286" type="line" smooth="yes"/>
      <point x="187" y="286"/>
      <point x="142" y="327"/>
      <point x="142" y="384" type="curve" smooth="yes"/>
      <point x="142" y="429"/>
      <point x="176" y="503"/>
      <point x="297" y="503" type="curve" smooth="yes"/>
      <point x="352" y="503"/>
      <point x="392" y="487"/>
      <point x="423" y="463" type="curve"/>
      <point x="443" y="483" type="line"/>
      <point x="410" y="509"/>
      <point x="365" y="530"/>
      <point x="295" y="530" type="curve" smooth="yes"/>
    </contour>
    <contour>
      <point x="286" y="520" type="move" name="top"/>
    </contour>
  </outline>
</glyph>
<glyph name="zeta" format="1">
  <advance width="362"/>
  <unicode hex="03B6"/>
  <outline>
    <contour>
      <point x="116" y="734" type="line"/>
      <point x="108" y="707" type="line"/>
      <point x="294" y="707" type="line" smooth="yes"/>
      <point x="342" y="707"/>
      <point x="378" y="707"/>
      <point x="416" y="709" type="curve"/>
      <point x="152" y="520"/>
      <point x="45" y="369"/>
      <point x="45" y="216" type="curve" smooth="yes"/>
      <point x="45" y="121"/>
      <point x="93" y="77"/>
      <point x="176" y="44" type="curve" smooth="yes"/>
      <point x="273" y="5"/>
      <point x="295" y="-11"/>
      <point x="295" y="-59" type="curve" smooth="yes"/>
      <point x="295" y="-94"/>
      <point x="266" y="-137"/>
      <point x="174" y="-177" type="curve"/>
      <point x="185" y="-199" type="line"/>
      <point x="297" y="-151"/>
      <point x="327" y="-102"/>
      <point x="327" y="-60" type="curve" smooth="yes"/>
      <point x="327" y="4"/>
      <point x="291" y="28"/>
      <point x="194" y="66" type="curve" smooth="yes"/>
      <point x="109" y="99"/>
      <point x="77" y="138"/>
      <point x="77" y="215" type="curve" smooth="yes"/>
      <point x="77" y="367"/>
      <point x="180" y="502"/>
      <point x="444" y="699" type="curve"/>
      <point x="443" y="734" type="line"/>
    </contour>
  </outline>
</glyph>
<glyph name="eta" format="1">
  <advance width="584"/>
  <unicode hex="03B7"/>
  <outline>
    <contour>
      <point x="296" y="530"/>
      <point x="218" y="477"/>
      <point x="161" y="367" type="curve"/>
      <point x="171" y="452"/>
      <point x="168" y="481"/>
      <point x="160" y="524" type="curve"/>
      <point x="132" y="522" type="line"/>
      <point x="138" y="482"/>
      <point x="141" y="433"/>
      <point x="130" y="355" type="curve" smooth="yes"/>
      <point x="80" y="0" type="line"/>
      <point x="110" y="0" type="line"/>
      <point x="152" y="298" type="line"/>
      <point x="210" y="428"/>
      <point x="289" y="503"/>
      <point x="369" y="503" type="curve" smooth="yes"/>
      <point x="442" y="503"/>
      <point x="472" y="460"/>
      <point x="459" y="367" type="curve" smooth="yes"/>
      <point x="379" y="-199" type="line"/>
      <point x="408" y="-195" type="line"/>
      <point x="489" y="369" type="line" smooth="yes"/>
      <point x="504" y="471"/>
      <point x="465" y="530"/>
      <point x="370" y="530" type="curve" smooth="yes"/>
    </contour>
    <contour>
      <point x="315" y="520" type="move" name="top"/>
    </contour>
  </outline>
</glyph>
<glyph name="theta" format="1">
  <advance width="557"/>
  <unicode hex="03B8"/>
  <outline>
    <contour>
      <point x="150" y="738"/>
      <point x="77" y="475"/>
      <point x="77" y="225" type="curve" smooth="yes"/>
      <point x="77" y="75"/>
      <point x="131" y="-10"/>
      <point x="243" y="-10" type="curve" smooth="yes"/>
      <point x="426" y="-10"/>
      <point x="511" y="247"/>
      <point x="511" y="500" type="curve" smooth="yes"/>
      <point x="511" y="653"/>
      <point x="461" y="738"/>
      <point x="347" y="738" type="curve" smooth="yes"/>
    </contour>
    <contour>
      <point x="445" y="156"/>
      <point x="364" y="18"/>
      <point x="244" y="18" type="curve" smooth="yes"/>
      <point x="151" y="18"/>
      <point x="107" y="92"/>
      <point x="107" y="225" type="curve" smooth="yes"/>
      <point x="107" y="263"/>
      <point x="110" y="306"/>
      <point x="115" y="355" type="curve"/>
      <point x="469" y="355" type="line"/>
    </contour>
    <contour>
      <point x="439" y="711"/>
      <point x="481" y="643"/>
      <point x="481" y="500" type="curve" smooth="yes"/>
      <point x="481" y="472"/>
      <point x="478" y="429"/>
      <point x="474" y="382" type="curve"/>
      <point x="119" y="382" type="line"/>
      <point x="145" y="591"/>
      <point x="228" y="711"/>
      <point x="346" y="711" type="curve" smooth="yes"/>
    </contour>
  </outline>
</glyph>
<glyph name="iota" format="1">
  <advance width="253"/>
  <unicode hex="03B9"/>
  <outline>
    <contour>
      <point x="147" y="520" type="line"/>
      <point x="89" y="111" type="line" smooth="yes"/>
      <point x="80" y="44"/>
      <point x="94" y="14"/>
      <point x="143" y="-5" type="curve"/>
      <point x="154" y="19" type="line"/>
      <point x="122" y="35"/>
      <point x="111" y="53"/>
      <point x="119" y="109" type="curve" smooth="yes"/>
      <point x="177" y="520" type="line"/>
    </contour>
    <contour>
      <point x="162" y="520" type="move" name="top"/>
    </contour>
  </outline>
</glyph>
<glyph name="kappa" format="1">
  <advance width="482"/>
  <unicode hex="03BA"/>
  <outline>
    <contour>
      <point x="156" y="269" type="line"/>
      <point x="358" y="36" type="line" smooth="yes"/>
      <point x="379" y="12"/>
      <point x="392" y="1"/>
      <point x="420" y="-8" type="curve"/>
      <point x="432" y="15" type="line"/>
      <point x="409" y="24"/>
      <point x="399" y="32"/>
      <point x="378" y="56" type="curve" smooth="yes"/>
      <point x="196" y="267" type="line"/>
      <point x="473" y="514" type="line"/>
      <point x="452" y="530" type="line"/>
    </contour>
    <contour>
      <point x="132" y="522" type="line"/>
      <point x="138" y="482"/>
      <point x="141" y="433"/>
      <point x="130" y="355" type="curve" smooth="yes"/>
      <point x="80" y="0" type="line"/>
      <point x="110" y="0" type="line"/>
      <point x="159" y="348" type="line"/>
      <point x="174" y="449"/>
      <point x="168" y="487"/>
      <point x="161" y="526" type="curve"/>
    </contour>
  </outline>
</glyph>
<glyph name="lambda" format="1">
  <advance width="454"/>
  <unicode hex="03BB"/>
  <outline>
    <contour>
      <point x="148" y="715" type="line"/>
      <point x="246" y="691"/>
      <point x="265" y="634"/>
      <point x="273" y="521" type="curve"/>
      <point x="262" y="523" type="line"/>
      <point x="4" y="1" type="line"/>
      <point x="32" y="-6" type="line"/>
      <point x="274" y="485" type="line"/>
      <point x="293" y="167"/>
      <point x="345" y="82"/>
      <point x="395" y="-6" type="curve"/>
      <point x="423" y="4" type="line"/>
      <point x="374" y="92"/>
      <point x="319" y="170"/>
      <point x="301" y="508" type="curve" smooth="yes"/>
      <point x="294" y="648"/>
      <point x="267" y="712"/>
      <point x="153" y="738" type="curve"/>
    </contour>
  </outline>
</glyph>
<glyph name="mu" format="1">
  <advance width="583"/>
  <unicode hex="03BC"/>
  <outline>
    <contour>
      <point x="496" y="520" type="line"/>
      <point x="466" y="520" type="line"/>
      <point x="414" y="155" type="line"/>
      <point x="362" y="73"/>
      <point x="299" y="18"/>
      <point x="223" y="18" type="curve" smooth="yes"/>
      <point x="163" y="18"/>
      <point x="115" y="50"/>
      <point x="129" y="144" type="curve" smooth="yes"/>
      <point x="182" y="520" type="line"/>
      <point x="152" y="520" type="line"/>
      <point x="51" y="-195" type="line"/>
      <point x="81" y="-193" type="line"/>
      <point x="99" y="-68" type="line" smooth="yes"/>
      <point x="106" y="-19"/>
      <point x="109" y="16"/>
      <point x="111" y="56" type="curve"/>
      <point x="124" y="19"/>
      <point x="154" y="-10"/>
      <point x="223" y="-10" type="curve" smooth="yes"/>
      <point x="307" y="-10"/>
      <point x="365" y="45"/>
      <point x="413" y="113" type="curve"/>
      <point x="410" y="62"/>
      <point x="414" y="36"/>
      <point x="424" y="-6" type="curve"/>
      <point x="451" y="-5" type="line"/>
      <point x="440" y="46"/>
      <point x="436" y="96"/>
      <point x="447" y="173" type="curve" smooth="yes"/>
    </contour>
  </outline>
</glyph>
<glyph name="nu" format="1">
  <advance width="444"/>
  <unicode hex="03BD"/>
  <outline>
    <contour>
      <point x="51" y="517" type="line"/>
      <point x="101" y="437"/>
      <point x="137" y="293"/>
      <point x="164" y="1" type="curve"/>
      <point x="206" y="0" type="line"/>
      <point x="461" y="518" type="line"/>
      <point x="431" y="525" type="line"/>
      <point x="189" y="26" type="line"/>
      <point x="166" y="314"/>
      <point x="124" y="454"/>
      <point x="80" y="524" type="curve"/>
    </contour>
  </outline>
</glyph>
<glyph name="xi" format="1">
  <advance width="412"/>
  <unicode hex="03BE"/>
  <outline>
    <contour>
      <point x="220" y="738"/>
      <point x="144" y="672"/>
      <point x="144" y="567" type="curve" smooth="yes"/>
      <point x="144" y="503"/>
      <point x="181" y="459"/>
      <point x="243" y="445" type="curve"/>
      <point x="111" y="428"/>
      <point x="57" y="327"/>
      <point x="57" y="229" type="curve" smooth="yes"/>
      <point x="57" y="132"/>
      <point x="111" y="82"/>
      <point x="206" y="45" type="curve" smooth="yes"/>
      <point x="303" y="6"/>
      <point x="325" y="-11"/>
      <point x="325" y="-59" type="curve" smooth="yes"/>
      <point x="325" y="-94"/>
      <point x="296" y="-137"/>
      <point x="204" y="-177" type="curve"/>
      <point x="215" y="-199" type="line"/>
      <point x="327" y="-151"/>
      <point x="357" y="-102"/>
      <point x="357" y="-60" type="curve" smooth="yes"/>
      <point x="357" y="4"/>
      <point x="322" y="29"/>
      <point x="225" y="67" type="curve" smooth="yes"/>
      <point x="128" y="104"/>
      <point x="88" y="151"/>
      <point x="88" y="228" type="curve" smooth="yes"/>
      <point x="88" y="313"/>
      <point x="134" y="429"/>
      <point x="297" y="429" type="curve" smooth="yes"/>
      <point x="351" y="429" type="line"/>
      <point x="359" y="456" type="line"/>
      <point x="306" y="456" type="line" smooth="yes"/>
      <point x="222" y="456"/>
      <point x="174" y="501"/>
      <point x="174" y="569" type="curve" smooth="yes"/>
      <point x="174" y="646"/>
      <point x="226" y="711"/>
      <point x="331" y="711" type="curve" smooth="yes"/>
      <point x="382" y="711"/>
      <point x="423" y="696"/>
      <point x="459" y="669" type="curve"/>
      <point x="477" y="689" type="line"/>
      <point x="439" y="719"/>
      <point x="391" y="738"/>
      <point x="332" y="738" type="curve" smooth="yes"/>
    </contour>
  </outline>
</glyph>
<glyph name="pi" format="1">
  <advance width="579"/>
  <unicode hex="03C0"/>
  <outline>
    <contour>
      <point x="186" y="520" type="line" smooth="yes"/>
      <point x="125" y="520"/>
      <point x="97" y="518"/>
      <point x="76" y="509" type="curve"/>
      <point x="80" y="483" type="line"/>
      <point x="104" y="490"/>
      <point x="122" y="492"/>
      <point x="173" y="492" type="curve"/>
      <point x="104" y="0" type="line"/>
      <point x="134" y="0" type="line"/>
      <point x="203" y="492" type="line"/>
      <point x="445" y="492" type="line"/>
      <point x="391" y="111" type="line" smooth="yes"/>
      <point x="382" y="44"/>
      <point x="396" y="14"/>
      <point x="445" y="-5" type="curve"/>
      <point x="456" y="19" type="line"/>
      <point x="424" y="35"/>
      <point x="413" y="53"/>
      <point x="421" y="109" type="curve" smooth="yes"/>
      <point x="475" y="492" type="line"/>
      <point x="564" y="492" type="line"/>
      <point x="569" y="520" type="line"/>
    </contour>
  </outline>
</glyph>
<glyph name="rho" format="1">
  <advance width="561"/>
  <unicode hex="03C1"/>
  <outline>
    <contour>
      <point x="203" y="530"/>
      <point x="130" y="431"/>
      <point x="111" y="298" type="curve" smooth="yes"/>
      <point x="41" y="-199" type="line"/>
      <point x="72" y="-195" type="line"/>
      <point x="110" y="81" type="line"/>
      <point x="135" y="29"/>
      <point x="186" y="-10"/>
      <point x="259" y="-10" type="curve" smooth="yes"/>
      <point x="435" y="-10"/>
      <point x="491" y="194"/>
      <point x="491" y="333" type="curve" smooth="yes"/>
      <point x="491" y="456"/>
      <point x="435" y="530"/>
      <point x="327" y="530" type="curve" smooth="yes"/>
    </contour>
    <contour>
      <point x="414" y="503"/>
      <point x="460" y="445"/>
      <point x="460" y="338" type="curve" smooth="yes"/>
      <point x="460" y="217"/>
      <point x="416" y="18"/>
      <point x="258" y="18" type="curve" smooth="yes"/>
      <point x="189" y="18"/>
      <point x="142" y="55"/>
      <point x="116" y="119" type="curve"/>
      <point x="140" y="292" type="line" smooth="yes"/>
      <point x="159" y="421"/>
      <point x="223" y="503"/>
      <point x="326" y="503" type="curve" smooth="yes"/>
    </contour>
  </outline>
</glyph>
<glyph name="sigmafinal" format="1">
  <advance width="451"/>
  <unicode hex="03C2"/>
  <outline>
    <contour>
      <point x="131" y="530"/>
      <point x="68" y="338"/>
      <point x="68" y="227" type="curve" smooth="yes"/>
      <point x="68" y="126"/>
      <point x="112" y="80"/>
      <point x="204" y="44" type="curve" smooth="yes"/>
      <point x="300" y="6"/>
      <point x="322" y="-11"/>
      <point x="322" y="-59" type="curve" smooth="yes"/>
      <point x="322" y="-94"/>
      <point x="293" y="-137"/>
      <point x="201" y="-177" type="curve"/>
      <point x="212" y="-199" type="line"/>
      <point x="324" y="-151"/>
      <point x="354" y="-102"/>
      <point x="354" y="-60" type="curve" smooth="yes"/>
      <point x="354" y="4"/>
      <point x="320" y="30"/>
      <point x="222" y="67" type="curve" smooth="yes"/>
      <point x="144" y="96"/>
      <point x="98" y="138"/>
      <point x="98" y="225" type="curve" smooth="yes"/>
      <point x="98" y="328"/>
      <point x="154" y="503"/>
      <point x="314" y="503" type="curve" smooth="yes"/>
      <point x="363" y="503"/>
      <point x="400" y="488"/>
      <point x="432" y="460" type="curve"/>
      <point x="451" y="479" type="line"/>
      <point x="410" y="514"/>
      <point x="369" y="530"/>
      <point x="313" y="530" type="curve" smooth="yes"/>
    </contour>
  </outline>
</glyph>
<glyph name="sigma" format="1">
  <advance width="569"/>
  <unicode hex="03C3"/>
  <outline>
    <contour>
      <point x="123" y="528"/>
      <point x="66" y="329"/>
      <point x="66" y="197" type="curve" smooth="yes"/>
      <point x="66" y="66"/>
      <point x="132" y="-10"/>
      <point x="245" y="-10" type="curve" smooth="yes"/>
      <point x="432" y="-10"/>
      <point x="496" y="189"/>
      <point x="496" y="318" type="curve" smooth="yes"/>
      <point x="496" y="408"/>
      <point x="463" y="470"/>
      <point x="412" y="503" type="curve"/>
      <point x="545" y="495" type="line"/>
      <point x="548" y="520" type="line"/>
      <point x="497" y="523"/>
      <point x="399" y="528"/>
      <point x="355" y="528" type="curve" smooth="yes"/>
    </contour>
    <contour>
      <point x="428" y="473"/>
      <point x="466" y="413"/>
      <point x="466" y="320" type="curve" smooth="yes"/>
      <point x="466" y="209"/>
      <point x="417" y="18"/>
      <point x="245" y="18" type="curve" smooth="yes"/>
      <point x="151" y="18"/>
      <point x="97" y="81"/>
      <point x="97" y="194" type="curve" smooth="yes"/>
      <point x="97" y="316"/>
      <point x="150" y="511"/>
      <point x="363" y="505" type="curve" smooth="yes"/>
      <point x="372" y="505" type="line"/>
    </contour>
  </outline>
</glyph>
<glyph name="tau" format="1">
  <advance width="423"/>
  <unicode hex="03C4"/>
  <outline>
    <contour>
      <point x="137" y="520" type="line" smooth="yes"/>
      <point x="76" y="520"/>
      <point x="48" y="518"/>
      <point x="27" y="509" type="curve"/>
      <point x="31" y="483" type="line"/>
      <point x="56" y="490"/>
      <point x="74" y="492"/>
      <point x="129" y="492" type="curve" smooth="yes"/>
      <point x="220" y="492" type="line"/>
      <point x="166" y="111" type="line" smooth="yes"/>
      <point x="157" y="44"/>
      <point x="171" y="14"/>
      <point x="220" y="-5" type="curve"/>
      <point x="231" y="19" type="line"/>
      <point x="199" y="35"/>
      <point x="188" y="53"/>
      <point x="196" y="109" type="curve" smooth="yes"/>
      <point x="250" y="492" type="line"/>
      <point x="443" y="492" type="line"/>
      <point x="448" y="520" type="line"/>
    </contour>
  </outline>
</glyph>
<glyph name="upsilon" format="1">
  <advance width="558"/>
  <unicode hex="03C5"/>
  <outline>
    <contour>
      <point x="447" y="520" type="line"/>
      <point x="448" y="493"/>
      <point x="449" y="460"/>
      <point x="449" y="426" type="curve" smooth="yes"/>
      <point x="449" y="248"/>
      <point x="412" y="16"/>
      <point x="235" y="18" type="curve" smooth="yes"/>
      <point x="137" y="19"/>
      <point x="116" y="87"/>
      <point x="126" y="157" type="curve" smooth="yes"/>
      <point x="177" y="520" type="line"/>
      <point x="147" y="520" type="line"/>
      <point x="96" y="158" type="line" smooth="yes"/>
      <point x="85" y="83"/>
      <point x="108" y="-10"/>
      <point x="234" y="-10" type="curve" smooth="yes"/>
      <point x="439" y="-10"/>
      <point x="479" y="231"/>
      <point x="479" y="426" type="curve" smooth="yes"/>
      <point x="479" y="460"/>
      <point x="478" y="493"/>
      <point x="477" y="520" type="curve"/>
    </contour>
    <contour>
      <point x="313" y="520" type="move" name="top"/>
    </contour>
  </outline>
</glyph>
<glyph name="phi" format="1">
  <advance width="709"/>
  <unicode hex="03C6"/>
  <outline>
    <contour>
      <point x="428" y="530"/>
      <point x="368" y="479"/>
      <point x="350" y="355" type="curve" smooth="yes"/>
      <point x="302" y="18" type="line"/>
      <point x="179" y="26"/>
      <point x="110" y="63"/>
      <point x="110" y="186" type="curve" smooth="yes"/>
      <point x="110" y="285"/>
      <point x="152" y="411"/>
      <point x="208" y="520" type="curve"/>
      <point x="179" y="520" type="line"/>
      <point x="122" y="409"/>
      <point x="79" y="291"/>
      <point x="79" y="185" type="curve" smooth="yes"/>
      <point x="79" y="56"/>
      <point x="153" y="-1"/>
      <point x="299" y="-10" type="curve"/>
      <point x="272" y="-199" type="line"/>
      <point x="303" y="-195" type="line"/>
      <point x="329" y="-10" type="line"/>
      <point x="605" y="1"/>
      <point x="642" y="188"/>
      <point x="642" y="360" type="curve" smooth="yes"/>
      <point x="642" y="486"/>
      <point x="591" y="530"/>
      <point x="513" y="530" type="curve" smooth="yes"/>
    </contour>
    <contour>
      <point x="576" y="504"/>
      <point x="612" y="466"/>
      <point x="612" y="363" type="curve" smooth="yes"/>
      <point x="612" y="194"/>
      <point x="577" y="27"/>
      <point x="333" y="17" type="curve"/>
      <point x="379" y="346" type="line" smooth="yes"/>
      <point x="397" y="471"/>
      <point x="448" y="504"/>
      <point x="513" y="504" type="curve" smooth="yes"/>
    </contour>
  </outline>
</glyph>
<glyph name="chi" format="1">
  <advance width="414"/>
  <unicode hex="03C7"/>
  <outline>
    <contour>
      <point x="36" y="517" type="line"/>
      <point x="86" y="449"/>
      <point x="118" y="376"/>
      <point x="175" y="183" type="curve"/>
      <point x="188" y="157" type="line"/>
      <point x="306" y="-197" type="line"/>
      <point x="336" y="-188" type="line"/>
      <point x="207" y="182" type="line"/>
      <point x="193" y="208" type="line"/>
      <point x="145" y="393"/>
      <point x="112" y="460"/>
      <point x="65" y="526" type="curve"/>
    </contour>
    <contour>
      <point x="193" y="208" type="line"/>
      <point x="175" y="183" type="line"/>
      <point x="-62" y="-192" type="line"/>
      <point x="-31" y="-196" type="line"/>
      <point x="188" y="157" type="line"/>
      <point x="207" y="182" type="line"/>
      <point x="413" y="520" type="line"/>
      <point x="382" y="523" type="line"/>
    </contour>
  </outline>
</glyph>
<glyph name="psi" format="1">
  <advance width="741"/>
  <unicode hex="03C8"/>
  <outline>
    <contour>
      <point x="660" y="447"/>
      <point x="658" y="487"/>
      <point x="655" y="520" type="curve"/>
      <point x="625" y="520" type="line"/>
      <point x="627" y="490"/>
      <point x="629" y="453"/>
      <point x="629" y="421" type="curve" smooth="yes"/>
      <point x="629" y="208"/>
      <point x="602" y="26"/>
      <point x="349" y="17" type="curve"/>
      <point x="420" y="520" type="line"/>
      <point x="390" y="520" type="line"/>
      <point x="319" y="17" type="line"/>
      <point x="172" y="19"/>
      <point x="105" y="75"/>
      <point x="124" y="211" type="curve" smooth="yes"/>
      <point x="168" y="520" type="line"/>
      <point x="138" y="520" type="line"/>
      <point x="94" y="214" type="line" smooth="yes"/>
      <point x="72" y="61"/>
      <point x="153" y="-8"/>
      <point x="315" y="-10" type="curve"/>
      <point x="288" y="-199" type="line"/>
      <point x="319" y="-195" type="line"/>
      <point x="345" y="-10" type="line"/>
      <point x="616" y="2"/>
      <point x="660" y="179"/>
      <point x="660" y="412" type="curve"/>
    </contour>
  </outline>
</glyph>
<glyph name="omega" format="1">
  <advance width="773"/>
  <unicode hex="03C9"/>
  <outline>
    <contour>
      <point x="640" y="520" type="line"/>
      <point x="651" y="480"/>
      <point x="660" y="422"/>
      <point x="660" y="351" type="curve" smooth="yes"/>
      <point x="660" y="202"/>
      <point x="628" y="18"/>
      <point x="484" y="18" type="curve" smooth="yes"/>
      <point x="431" y="18"/>
      <point x="387" y="44"/>
      <point x="387" y="131" type="curve" smooth="yes"/>
      <point x="387" y="144"/>
      <point x="388" y="159"/>
      <point x="390" y="176" type="curve"/>
      <point x="415" y="356" type="line"/>
      <point x="384" y="351" type="line"/>
      <point x="360" y="179" type="line" smooth="yes"/>
      <point x="343" y="59"/>
      <point x="282" y="18"/>
      <point x="220" y="18" type="curve" smooth="yes"/>
      <point x="160" y="18"/>
      <point x="109" y="52"/>
      <point x="109" y="164" type="curve" smooth="yes"/>
      <point x="109" y="272"/>
      <point x="145" y="397"/>
      <point x="210" y="520" type="curve"/>
      <point x="180" y="520" type="line"/>
      <point x="120" y="407"/>
      <point x="78" y="286"/>
      <point x="78" y="164" type="curve" smooth="yes"/>
      <point x="78" y="43"/>
      <point x="134" y="-10"/>
      <point x="221" y="-10" type="curve" smooth="yes"/>
      <point x="285" y="-10"/>
      <point x="343" y="26"/>
      <point x="367" y="116" type="curve"/>
      <point x="362" y="28"/>
      <point x="414" y="-10"/>
      <point x="487" y="-10" type="curve" smooth="yes"/>
      <point x="644" y="-10"/>
      <point x="691" y="176"/>
      <point x="691" y="346" type="curve" smooth="yes"/>
      <point x="691" y="412"/>
      <point x="683" y="472"/>
      <point x="670" y="520" type="curve"/>
    </contour>
    <contour>
      <point x="424" y="520" type="move" name="top"/>
    </contour>
  </outline>
</glyph>
<glyph name="uni0402" format="1">
  <advance width="687.773"/>
  <unicode hex="0402"/>
  <outline>
    <contour>
      <point x="384.627" y="424"/>
      <point x="321.458" y="390.939"/>
      <point x="264.412" y="335.378" type="curve"/>
      <point x="309.173" y="652" type="line"/>
      <point x="517" y="652" type="line"/>
      <point x="526" y="682" type="line"/>
      <point x="74" y="682" type="line"/>
      <point x="70" y="652" type="line"/>
      <point x="278.173" y="652" type="line"/>
      <point x="186" y="0" type="line"/>
      <point x="217" y="0" type="line"/>
      <point x="258.227" y="291.623" type="line"/>
      <point x="323.394" y="360.849"/>
      <point x="387.134" y="395"/>
      <point x="467" y="395" type="curve" smooth="yes"/>
      <point x="576" y="395"/>
      <point x="611" y="333"/>
      <point x="598" y="242" type="curve"/>
      <point x="577" y="91" type="line"/>
      <point x="564" y="-1.9999"/>
      <point x="535" y="-36.9999"/>
      <point x="438" y="-80.9999" type="curve"/>
      <point x="446" y="-104" type="line"/>
      <point x="565" y="-53.9999"/>
      <point x="593" y="-15.9999"/>
      <point x="608" y="87" type="curve"/>
      <point x="629" y="242" type="line"/>
      <point x="645" y="352"/>
      <point x="593" y="424"/>
      <point x="468" y="424" type="curve" smooth="yes"/>
    </contour>
  </outline>
</glyph>
<glyph name="uni0404" format="1">
  <advance width="552"/>
  <unicode hex="0404"/>
  <outline>
    <contour>
      <point x="180" y="692"/>
      <point x="81" y="469"/>
      <point x="81" y="261" type="curve" smooth="yes"/>
      <point x="81" y="83"/>
      <point x="173" y="-10"/>
      <point x="306" y="-10" type="curve"/>
      <point x="383" y="-10"/>
      <point x="440" y="16"/>
      <point x="489" y="54" type="curve"/>
      <point x="471" y="77" type="line"/>
      <point x="426" y="44"/>
      <point x="383" y="20"/>
      <point x="307" y="20" type="curve"/>
      <point x="195" y="20"/>
      <point x="113" y="99"/>
      <point x="113" y="261" type="curve" smooth="yes"/>
      <point x="113" y="286"/>
      <point x="115" y="314"/>
      <point x="119" y="346" type="curve"/>
      <point x="120" y="357" type="line"/>
      <point x="154" y="570"/>
      <point x="275" y="664"/>
      <point x="406" y="664" type="curve" smooth="yes"/>
      <point x="467" y="664"/>
      <point x="500" y="647"/>
      <point x="542" y="611" type="curve"/>
      <point x="562" y="632" type="line"/>
      <point x="521" y="668"/>
      <point x="473" y="692"/>
      <point x="404" y="692" type="curve" smooth="yes"/>
    </contour>
    <contour>
      <point x="116" y="370" type="line"/>
      <point x="112" y="341" type="line"/>
      <point x="402" y="341" type="line"/>
      <point x="406" y="370" type="line"/>
    </contour>
  </outline>
</glyph>
<glyph name="uni0409" format="1">
  <advance width="878"/>
  <unicode hex="0409"/>
  <outline>
    <contour>
      <point x="236" y="682" type="line"/>
      <point x="151" y="364" type="line" smooth="yes"/>
      <point x="74" y="75"/>
      <point x="62" y="37"/>
      <point x="-1" y="20" type="curve"/>
      <point x="4" y="-6" type="line"/>
      <point x="92" y="17"/>
      <point x="101" y="67"/>
      <point x="181" y="366" type="curve" smooth="yes"/>
      <point x="258" y="653" type="line"/>
      <point x="512" y="653" type="line"/>
      <point x="547" y="682" type="line"/>
    </contour>
    <contour>
      <point x="516" y="682" type="line"/>
      <point x="420" y="0" type="line"/>
      <point x="567" y="0" type="line" smooth="yes"/>
      <point x="764" y="0"/>
      <point x="829" y="129"/>
      <point x="829" y="240" type="curve" smooth="yes"/>
      <point x="829" y="358"/>
      <point x="753" y="412"/>
      <point x="623" y="412" type="curve" smooth="yes"/>
      <point x="502" y="412" type="line"/>
      <point x="498" y="383" type="line"/>
      <point x="624" y="383" type="line" smooth="yes"/>
      <point x="734" y="383"/>
      <point x="797" y="341"/>
      <point x="797" y="239" type="curve" smooth="yes"/>
      <point x="797" y="156"/>
      <point x="750" y="29"/>
      <point x="578" y="29" type="curve" smooth="yes"/>
      <point x="456" y="29" type="line"/>
      <point x="547" y="682" type="line"/>
    </contour>
  </outline>
</glyph>
<glyph name="uni040A" format="1">
  <advance width="925"/>
  <unicode hex="040A"/>
  <outline>
    <contour>
      <point x="550" y="384" type="line"/>
      <point x="592" y="682" type="line"/>
      <point x="561" y="682" type="line"/>
      <point x="519" y="384" type="line"/>
      <point x="168" y="384" type="line"/>
      <point x="210" y="682" type="line"/>
      <point x="179" y="682" type="line"/>
      <point x="83" y="0" type="line"/>
      <point x="114" y="0" type="line"/>
      <point x="164" y="355" type="line"/>
      <point x="515" y="355" type="line"/>
      <point x="465" y="0" type="line"/>
      <point x="612" y="0" type="line" smooth="yes"/>
      <point x="809" y="0"/>
      <point x="874" y="118"/>
      <point x="874" y="220" type="curve" smooth="yes"/>
      <point x="874" y="319"/>
      <point x="798" y="384"/>
      <point x="668" y="384" type="curve" smooth="yes"/>
    </contour>
    <contour>
      <point x="501" y="29" type="line"/>
      <point x="546" y="355" type="line"/>
      <point x="669" y="355" type="line" smooth="yes"/>
      <point x="784" y="355"/>
      <point x="842" y="302"/>
      <point x="842" y="219" type="curve" smooth="yes"/>
      <point x="842" y="145"/>
      <point x="795" y="29"/>
      <point x="623" y="29" type="curve" smooth="yes"/>
    </contour>
  </outline>
</glyph>
<glyph name="uni040B" format="1">
  <advance width="690"/>
  <unicode hex="040B"/>
  <outline>
    <contour>
      <point x="74" y="682" type="line"/>
      <point x="70" y="652" type="line"/>
      <point x="517" y="652" type="line"/>
      <point x="526" y="682" type="line"/>
    </contour>
    <component base="uni04BA" xOffset="106"/>
  </outline>
</glyph>
<glyph name="uni0411" format="1">
  <advance width="561"/>
  <unicode hex="0411"/>
  <outline>
    <contour>
      <point x="179" y="682" type="line"/>
      <point x="83" y="0" type="line"/>
      <point x="243" y="0" type="line" smooth="yes"/>
      <point x="441" y="0"/>
      <point x="502" y="131"/>
      <point x="502" y="241" type="curve" smooth="yes"/>
      <point x="502" y="351"/>
      <point x="426" y="408"/>
      <point x="296" y="408" type="curve" smooth="yes"/>
      <point x="165" y="408" type="line"/>
      <point x="161" y="379" type="line"/>
      <point x="297" y="379" type="line" smooth="yes"/>
      <point x="407" y="379"/>
      <point x="470" y="335"/>
      <point x="470" y="240" type="curve" smooth="yes"/>
      <point x="470" y="151"/>
      <point x="423" y="29"/>
      <point x="251" y="29" type="curve" smooth="yes"/>
      <point x="119" y="29" type="line"/>
      <point x="209" y="672" type="line"/>
    </contour>
    <contour>
      <point x="179" y="682" type="line"/>
      <point x="195" y="653" type="line"/>
      <point x="492" y="653" type="line"/>
      <point x="502" y="682" type="line"/>
    </contour>
  </outline>
</glyph>
<glyph name="uni0413" format="1">
  <advance width="508"/>
  <unicode hex="0413"/>
  <outline>
    <contour>
      <point x="83" y="0" type="line"/>
      <point x="114" y="0" type="line"/>
      <point x="208" y="663" type="line"/>
      <point x="179" y="682" type="line"/>
    </contour>
    <contour>
      <point x="179" y="682" type="line"/>
      <point x="195" y="652" type="line"/>
      <point x="548" y="652" type="line"/>
      <point x="557" y="682" type="line"/>
    </contour>
    <contour>
      <point x="388" y="682" type="move" name="top"/>
    </contour>
    <contour>
      <point x="124" y="0" type="move" name="bottomright"/>
    </contour>
  </outline>
</glyph>
<glyph name="uni0414" format="1">
  <advance width="588"/>
  <unicode hex="0414"/>
  <outline>
    <contour>
      <point x="237" y="682" type="line"/>
      <point x="158" y="384" type="line" smooth="yes"/>
      <point x="90" y="122"/>
      <point x="50" y="70"/>
      <point x="4" y="29" type="curve"/>
      <point x="0" y="0" type="line"/>
      <point x="435" y="0" type="line"/>
      <point x="531" y="682" type="line"/>
    </contour>
    <contour>
      <point x="409" y="29" type="line"/>
      <point x="36" y="29" type="line"/>
      <point x="84" y="71"/>
      <point x="123" y="132"/>
      <point x="191" y="383" type="curve" smooth="yes"/>
      <point x="262" y="653" type="line"/>
      <point x="496" y="653" type="line"/>
    </contour>
    <component base="descStraight-cy.case" xOffset="414"/>
    <component base="descStraightleft-cy.case" xOffset="-57"/>
  </outline>
</glyph>
<glyph name="uni0416" format="1">
  <advance width="735"/>
  <unicode hex="0416"/>
  <outline>
    <contour>
      <point x="706" y="677"/>
      <point x="689" y="659"/>
      <point x="638" y="582" type="curve" smooth="yes"/>
      <point x="500" y="374" type="line"/>
      <point x="399" y="374" type="line"/>
      <point x="442" y="682" type="line"/>
      <point x="412" y="682" type="line"/>
      <point x="369" y="374" type="line"/>
      <point x="263" y="374" type="line"/>
      <point x="167" y="576" type="line" smooth="yes"/>
      <point x="125" y="665"/>
      <point x="116" y="676"/>
      <point x="73" y="692" type="curve"/>
      <point x="64" y="668" type="line"/>
      <point x="97" y="656"/>
      <point x="105" y="646"/>
      <point x="145" y="560" type="curve" smooth="yes"/>
      <point x="238" y="362" type="line"/>
      <point x="-21" y="0" type="line"/>
      <point x="15" y="0" type="line"/>
      <point x="263" y="346" type="line"/>
      <point x="365" y="346" type="line"/>
      <point x="316" y="0" type="line"/>
      <point x="346" y="0" type="line"/>
      <point x="395" y="346" type="line"/>
      <point x="500" y="346" type="line"/>
      <point x="650" y="0" type="line"/>
      <point x="683" y="0" type="line"/>
      <point x="525" y="362" type="line"/>
      <point x="658" y="564" type="line" smooth="yes"/>
      <point x="708" y="640"/>
      <point x="725" y="655"/>
      <point x="759" y="669" type="curve"/>
      <point x="750" y="692" type="line"/>
    </contour>
    <contour>
      <point x="427" y="682" type="move" name="top"/>
    </contour>
    <contour>
      <point x="662" y="0" type="move" name="bottomright"/>
    </contour>
  </outline>
</glyph>
<glyph name="uni0417" format="1">
  <advance width="519"/>
  <unicode hex="0417"/>
  <outline>
    <contour>
      <point x="232" y="692"/>
      <point x="166" y="663"/>
      <point x="99" y="610" type="curve"/>
      <point x="117" y="588" type="line"/>
      <point x="174" y="632"/>
      <point x="235" y="664"/>
      <point x="308" y="664" type="curve" smooth="yes"/>
      <point x="396" y="664"/>
      <point x="445" y="617"/>
      <point x="445" y="547" type="curve" smooth="yes"/>
      <point x="445" y="480"/>
      <point x="396" y="383"/>
      <point x="252" y="383" type="curve" smooth="yes"/>
      <point x="202" y="383" type="line"/>
      <point x="194" y="354" type="line"/>
      <point x="255" y="355" type="line" smooth="yes"/>
      <point x="364" y="357"/>
      <point x="420" y="304"/>
      <point x="420" y="218" type="curve" smooth="yes"/>
      <point x="420" y="137"/>
      <point x="365" y="19"/>
      <point x="209" y="19" type="curve" smooth="yes"/>
      <point x="127" y="19"/>
      <point x="69" y="50"/>
      <point x="28" y="100" type="curve"/>
      <point x="5" y="83" type="line"/>
      <point x="57" y="22"/>
      <point x="122" y="-10"/>
      <point x="209" y="-10" type="curve" smooth="yes"/>
      <point x="384" y="-10"/>
      <point x="452" y="121"/>
      <point x="452" y="218" type="curve" smooth="yes"/>
      <point x="452" y="311"/>
      <point x="396" y="362"/>
      <point x="321" y="370" type="curve"/>
      <point x="436" y="394"/>
      <point x="477" y="472"/>
      <point x="477" y="548" type="curve" smooth="yes"/>
      <point x="477" y="635"/>
      <point x="418" y="692"/>
      <point x="309" y="692" type="curve" smooth="yes"/>
    </contour>
    <contour>
      <point x="317" y="682" type="move" name="top"/>
    </contour>
    <contour>
      <point x="220" y="0" type="move" name="bottom"/>
    </contour>
  </outline>
</glyph>
<glyph name="uni0418" format="1">
  <advance width="664"/>
  <unicode hex="0418"/>
  <outline>
    <contour>
      <point x="559" y="682" type="line"/>
      <point x="115" y="31" type="line"/>
      <point x="126" y="94"/>
      <point x="143" y="204"/>
      <point x="155" y="291" type="curve" smooth="yes"/>
      <point x="210" y="682" type="line"/>
      <point x="179" y="682" type="line"/>
      <point x="83" y="0" type="line"/>
      <point x="127" y="0" type="line"/>
      <point x="572" y="651" type="line"/>
      <point x="558" y="578"/>
      <point x="545" y="488"/>
      <point x="531" y="389" type="curve" smooth="yes"/>
      <point x="476" y="0" type="line"/>
      <point x="507" y="0" type="line"/>
      <point x="603" y="682" type="line"/>
    </contour>
    <contour>
      <point x="392" y="682" type="move" name="top"/>
    </contour>
  </outline>
</glyph>
<glyph name="uni041A" format="1">
  <advance width="538"/>
  <unicode hex="041A"/>
  <outline>
    <contour>
      <point x="513" y="677"/>
      <point x="494" y="668"/>
      <point x="441" y="593" type="curve" smooth="yes"/>
      <point x="287" y="374" type="line"/>
      <point x="167" y="374" type="line"/>
      <point x="210" y="682" type="line"/>
      <point x="179" y="682" type="line"/>
      <point x="83" y="0" type="line"/>
      <point x="114" y="0" type="line"/>
      <point x="163" y="346" type="line"/>
      <point x="287" y="346" type="line"/>
      <point x="458" y="0" type="line"/>
      <point x="490" y="0" type="line"/>
      <point x="312" y="362" type="line"/>
      <point x="461" y="575" type="line" smooth="yes"/>
      <point x="513" y="649"/>
      <point x="528" y="657"/>
      <point x="566" y="669" type="curve"/>
      <point x="557" y="692" type="line"/>
    </contour>
    <contour>
      <point x="368" y="682" type="move" name="top"/>
    </contour>
    <contour>
      <point x="480" y="0" type="move" name="bottomright"/>
    </contour>
  </outline>
</glyph>
<glyph name="uni041B" format="1">
  <advance width="633"/>
  <unicode hex="041B"/>
  <outline>
    <contour>
      <point x="236" y="682" type="line"/>
      <point x="151" y="364" type="line" smooth="yes"/>
      <point x="74" y="75"/>
      <point x="62" y="37"/>
      <point x="-1" y="20" type="curve"/>
      <point x="4" y="-6" type="line"/>
      <point x="92" y="17"/>
      <point x="101" y="67"/>
      <point x="181" y="366" type="curve" smooth="yes"/>
      <point x="258" y="653" type="line"/>
      <point x="537" y="653" type="line"/>
      <point x="445" y="0" type="line"/>
      <point x="476" y="0" type="line"/>
      <point x="572" y="682" type="line"/>
    </contour>
  </outline>
</glyph>
<glyph name="uni041F" format="1">
  <advance width="657"/>
  <unicode hex="041F"/>
  <outline>
    <contour>
      <point x="179" y="682" type="line"/>
      <point x="83" y="0" type="line"/>
      <point x="114" y="0" type="line"/>
      <point x="206" y="653" type="line"/>
      <point x="561" y="653" type="line"/>
      <point x="469" y="0" type="line"/>
      <point x="500" y="0" type="line"/>
      <point x="596" y="682" type="line"/>
    </contour>
    <contour>
      <point x="510" y="0" type="move" name="bottomright"/>
    </contour>
  </outline>
</glyph>
<glyph name="uni0423" format="1">
  <advance width="501"/>
  <unicode hex="0423"/>
  <outline>
    <contour>
      <point x="516" y="682" type="line"/>
      <point x="260" y="218" type="line"/>
      <point x="107" y="682" type="line"/>
      <point x="74" y="682" type="line"/>
      <point x="240" y="194" type="line"/>
      <point x="248" y="195" type="line"/>
      <point x="174" y="60"/>
      <point x="149" y="42"/>
      <point x="63" y="15" type="curve"/>
      <point x="69" y="-10" type="line"/>
      <point x="176" y="23"/>
      <point x="197" y="48"/>
      <point x="277" y="192" type="curve" smooth="yes"/>
      <point x="550" y="682" type="line"/>
    </contour>
    <contour>
      <point x="320" y="682" type="move" name="top"/>
    </contour>
  </outline>
</glyph>
<glyph name="uni0424" format="1">
  <advance width="785"/>
  <unicode hex="0424"/>
  <outline>
    <contour>
      <point x="450" y="622" type="line"/>
      <point x="633" y="620"/>
      <point x="720" y="528"/>
      <point x="720" y="404" type="curve" smooth="yes"/>
      <point x="720" y="247"/>
      <point x="656" y="88"/>
      <point x="371" y="75" type="curve"/>
      <point x="371" y="47" type="line"/>
      <point x="680" y="58"/>
      <point x="751" y="238"/>
      <point x="751" y="404" type="curve" smooth="yes"/>
      <point x="751" y="541"/>
      <point x="653" y="646"/>
      <point x="454" y="649" type="curve"/>
    </contour>
    <contour>
      <point x="126" y="638"/>
      <point x="58" y="449"/>
      <point x="58" y="290" type="curve" smooth="yes"/>
      <point x="58" y="156"/>
      <point x="156" y="50"/>
      <point x="356" y="47" type="curve"/>
      <point x="360" y="75" type="line"/>
      <point x="176" y="77"/>
      <point x="90" y="167"/>
      <point x="90" y="292" type="curve" smooth="yes"/>
      <point x="90" y="449"/>
      <point x="153" y="609"/>
      <point x="439" y="622" type="curve"/>
      <point x="439" y="649" type="line"/>
    </contour>
    <contour>
      <point x="441" y="715" type="line"/>
      <point x="431" y="642" type="line"/>
      <point x="430" y="629" type="line"/>
      <point x="351" y="68" type="line"/>
      <point x="348" y="54" type="line"/>
      <point x="338" y="-19" type="line"/>
      <point x="369" y="-19" type="line"/>
      <point x="379" y="54" type="line"/>
      <point x="380" y="68" type="line"/>
      <point x="459" y="629" type="line"/>
      <point x="462" y="642" type="line"/>
      <point x="472" y="715" type="line"/>
    </contour>
  </outline>
</glyph>
<glyph name="uni0427" format="1">
  <advance width="579"/>
  <unicode hex="0427"/>
  <outline>
    <contour>
      <point x="109" y="682" type="line"/>
      <point x="72" y="416" type="line" smooth="yes"/>
      <point x="55" y="298"/>
      <point x="124" y="228"/>
      <point x="237" y="228" type="curve" smooth="yes"/>
      <point x="322" y="228"/>
      <point x="389" y="264"/>
      <point x="443" y="316" type="curve"/>
      <point x="445" y="354" type="line"/>
      <point x="398" y="297"/>
      <point x="321" y="257"/>
      <point x="241" y="257" type="curve" smooth="yes"/>
      <point x="142" y="257"/>
      <point x="89" y="314"/>
      <point x="103" y="416" type="curve" smooth="yes"/>
      <point x="140" y="682" type="line"/>
    </contour>
    <contour>
      <point x="487" y="682" type="line"/>
      <point x="391" y="0" type="line"/>
      <point x="422" y="0" type="line"/>
      <point x="518" y="682" type="line"/>
    </contour>
    <contour>
      <point x="314" y="682" type="move" name="top"/>
    </contour>
    <contour>
      <point x="432" y="0" type="move" name="bottomright"/>
    </contour>
    <contour>
      <point x="371" y="0" type="move" name="bottomleft"/>
    </contour>
  </outline>
</glyph>
<glyph name="uni0428" format="1">
  <advance width="900"/>
  <unicode hex="0428"/>
  <outline>
    <contour>
      <point x="808" y="682" type="line"/>
      <point x="717" y="29" type="line"/>
      <point x="433" y="29" type="line"/>
      <point x="524" y="682" type="line"/>
      <point x="494" y="682" type="line"/>
      <point x="403" y="29" type="line"/>
      <point x="119" y="29" type="line"/>
      <point x="210" y="682" type="line"/>
      <point x="179" y="682" type="line"/>
      <point x="83" y="0" type="line"/>
      <point x="743" y="0" type="line"/>
      <point x="839" y="682" type="line"/>
    </contour>
    <contour>
      <point x="753" y="0" type="move" name="bottomright"/>
    </contour>
  </outline>
</glyph>
<glyph name="uni042B" format="1">
  <advance width="779"/>
  <unicode hex="042B"/>
  <outline>
    <contour>
      <point x="687" y="682" type="line"/>
      <point x="591" y="0" type="line"/>
      <point x="622" y="0" type="line"/>
      <point x="718" y="682" type="line"/>
    </contour>
    <contour>
      <point x="83" y="0" type="line"/>
      <point x="230" y="0" type="line" smooth="yes"/>
      <point x="427" y="0"/>
      <point x="492" y="129"/>
      <point x="492" y="240" type="curve" smooth="yes"/>
      <point x="492" y="358"/>
      <point x="416" y="412"/>
      <point x="286" y="412" type="curve" smooth="yes"/>
      <point x="165" y="412" type="line"/>
      <point x="161" y="383" type="line"/>
      <point x="287" y="383" type="line" smooth="yes"/>
      <point x="397" y="383"/>
      <point x="460" y="341"/>
      <point x="460" y="239" type="curve" smooth="yes"/>
      <point x="460" y="156"/>
      <point x="413" y="29"/>
      <point x="241" y="29" type="curve" smooth="yes"/>
      <point x="119" y="29" type="line"/>
      <point x="210" y="682" type="line"/>
      <point x="179" y="682" type="line"/>
    </contour>
    <contour>
      <point x="454" y="682" type="move" name="top"/>
    </contour>
  </outline>
</glyph>
<glyph name="uni042C" format="1">
  <advance width="551"/>
  <unicode hex="042C"/>
  <outline>
    <contour>
      <point x="83" y="0" type="line"/>
      <point x="240" y="0" type="line" smooth="yes"/>
      <point x="437" y="0"/>
      <point x="502" y="129"/>
      <point x="502" y="240" type="curve" smooth="yes"/>
      <point x="502" y="358"/>
      <point x="426" y="412"/>
      <point x="296" y="412" type="curve" smooth="yes"/>
      <point x="165" y="412" type="line"/>
      <point x="161" y="383" type="line"/>
      <point x="297" y="383" type="line" smooth="yes"/>
      <point x="407" y="383"/>
      <point x="470" y="341"/>
      <point x="470" y="239" type="curve" smooth="yes"/>
      <point x="470" y="156"/>
      <point x="423" y="29"/>
      <point x="251" y="29" type="curve" smooth="yes"/>
      <point x="119" y="29" type="line"/>
      <point x="210" y="682" type="line"/>
      <point x="179" y="682" type="line"/>
    </contour>
  </outline>
</glyph>
<glyph name="uni042D" format="1">
  <advance width="528"/>
  <unicode hex="042D"/>
  <outline>
    <contour>
      <point x="211" y="692"/>
      <point x="147" y="670"/>
      <point x="86" y="627" type="curve"/>
      <point x="101" y="605" type="line"/>
      <point x="169" y="648"/>
      <point x="215" y="664"/>
      <point x="281" y="664" type="curve" smooth="yes"/>
      <point x="378" y="664"/>
      <point x="441" y="596"/>
      <point x="441" y="441" type="curve" smooth="yes"/>
      <point x="441" y="288"/>
      <point x="389" y="20"/>
      <point x="180" y="20" type="curve"/>
      <point x="108" y="20"/>
      <point x="69" y="45"/>
      <point x="28" y="83" type="curve"/>
      <point x="7" y="62" type="line"/>
      <point x="47" y="25"/>
      <point x="95" y="-10"/>
      <point x="181" y="-10" type="curve"/>
      <point x="410" y="-10"/>
      <point x="472" y="265"/>
      <point x="472" y="444" type="curve" smooth="yes"/>
      <point x="472" y="617"/>
      <point x="395" y="692"/>
      <point x="282" y="692" type="curve" smooth="yes"/>
    </contour>
    <contour>
      <point x="146" y="370" type="line"/>
      <point x="142" y="341" type="line"/>
      <point x="439" y="341" type="line"/>
      <point x="443" y="370" type="line"/>
    </contour>
    <contour>
      <point x="280" y="682" type="move" name="top"/>
    </contour>
  </outline>
</glyph>
<glyph name="uni042E" format="1">
  <advance width="861"/>
  <unicode hex="042E"/>
  <outline>
    <contour>
      <point x="351" y="692"/>
      <point x="273" y="427"/>
      <point x="273" y="255" type="curve" smooth="yes"/>
      <point x="273" y="80"/>
      <point x="354" y="-10"/>
      <point x="490" y="-10" type="curve" smooth="yes"/>
      <point x="727" y="-10"/>
      <point x="804" y="251"/>
      <point x="804" y="431" type="curve" smooth="yes"/>
      <point x="804" y="603"/>
      <point x="722" y="692"/>
      <point x="585" y="692" type="curve" smooth="yes"/>
    </contour>
    <contour>
      <point x="179" y="682" type="line"/>
      <point x="83" y="0" type="line"/>
      <point x="114" y="0" type="line"/>
      <point x="162" y="341" type="line"/>
      <point x="290" y="341" type="line"/>
      <point x="294" y="370" type="line"/>
      <point x="166" y="370" type="line"/>
      <point x="210" y="682" type="line"/>
    </contour>
    <contour>
      <point x="702" y="663"/>
      <point x="773" y="586"/>
      <point x="773" y="431" type="curve" smooth="yes"/>
      <point x="773" y="274"/>
      <point x="712" y="19"/>
      <point x="490" y="19" type="curve" smooth="yes"/>
      <point x="375" y="19"/>
      <point x="303" y="96"/>
      <point x="303" y="252" type="curve" smooth="yes"/>
      <point x="303" y="416"/>
      <point x="372" y="663"/>
      <point x="585" y="663" type="curve"/>
    </contour>
  </outline>
</glyph>
<glyph name="uni042F" format="1">
  <advance width="587"/>
  <unicode hex="042F"/>
  <outline>
    <contour>
      <point x="219" y="308" type="line"/>
      <point x="14" y="0" type="line"/>
      <point x="52" y="0" type="line"/>
      <point x="252" y="303" type="line"/>
    </contour>
    <contour>
      <point x="236" y="296" type="line"/>
      <point x="448" y="296" type="line"/>
      <point x="452" y="325" type="line"/>
      <point x="264" y="325" type="line" smooth="yes"/>
      <point x="182" y="325"/>
      <point x="125" y="374"/>
      <point x="125" y="454" type="curve" smooth="yes"/>
      <point x="125" y="542"/>
      <point x="166" y="653"/>
      <point x="372" y="653" type="curve" smooth="yes"/>
      <point x="491" y="653" type="line"/>
      <point x="399" y="0" type="line"/>
      <point x="430" y="0" type="line"/>
      <point x="526" y="682" type="line"/>
      <point x="372" y="682" type="line" smooth="yes"/>
      <point x="140" y="682"/>
      <point x="92" y="548"/>
      <point x="92" y="451" type="curve" smooth="yes"/>
      <point x="92" y="368"/>
      <point x="147" y="317"/>
      <point x="222" y="300" type="curve"/>
    </contour>
  </outline>
</glyph>
<glyph name="uni0431" format="1">
  <advance width="562"/>
  <unicode hex="0431"/>
  <outline>
    <contour>
      <point x="232" y="496"/>
      <point x="151" y="421"/>
      <point x="108" y="346" type="curve"/>
      <point x="132" y="509"/>
      <point x="193" y="583"/>
      <point x="327" y="629" type="curve" smooth="yes"/>
      <point x="408" y="657"/>
      <point x="455" y="677"/>
      <point x="493" y="713" type="curve"/>
      <point x="477" y="735" type="line"/>
      <point x="431" y="696"/>
      <point x="395" y="679"/>
      <point x="316" y="653" type="curve" smooth="yes"/>
      <point x="93" y="580"/>
      <point x="75" y="401"/>
      <point x="75" y="227" type="curve" smooth="yes"/>
      <point x="75" y="70"/>
      <point x="147" y="-10"/>
      <point x="262" y="-10" type="curve" smooth="yes"/>
      <point x="440" y="-10"/>
      <point x="494" y="177"/>
      <point x="494" y="303" type="curve" smooth="yes"/>
      <point x="494" y="422"/>
      <point x="438" y="496"/>
      <point x="333" y="496" type="curve" smooth="yes"/>
    </contour>
    <contour>
      <point x="160" y="18"/>
      <point x="104" y="91"/>
      <point x="104" y="222" type="curve" smooth="yes"/>
      <point x="104" y="252"/>
      <point x="105" y="279"/>
      <point x="107" y="299" type="curve"/>
      <point x="151" y="388"/>
      <point x="235" y="468"/>
      <point x="332" y="468" type="curve" smooth="yes"/>
      <point x="417" y="468"/>
      <point x="463" y="410"/>
      <point x="463" y="303" type="curve" smooth="yes"/>
      <point x="463" y="191"/>
      <point x="420" y="18"/>
      <point x="263" y="18" type="curve" smooth="yes"/>
    </contour>
  </outline>
</glyph>
